G75*
%MOIN*%
%OFA0B0*%
%FSLAX25Y25*%
%IPPOS*%
%LPD*%
%AMOC8*
5,1,8,0,0,1.08239X$1,22.5*
%
%ADD10C,0.00000*%
%ADD11C,0.05707*%
%ADD12R,0.04337X0.05912*%
%ADD13R,0.09400X0.02600*%
%ADD14C,0.13400*%
%ADD15R,0.06306X0.03943*%
%ADD16C,0.07800*%
%ADD17R,0.03550X0.02762*%
%ADD18R,0.03550X0.02369*%
D10*
X0007524Y0024687D02*
X0007524Y0231380D01*
X0102012Y0231380D01*
X0102012Y0024687D01*
X0007524Y0024687D01*
X0083701Y0153624D02*
X0083703Y0153785D01*
X0083709Y0153945D01*
X0083719Y0154106D01*
X0083733Y0154266D01*
X0083751Y0154426D01*
X0083772Y0154585D01*
X0083798Y0154744D01*
X0083828Y0154902D01*
X0083861Y0155059D01*
X0083899Y0155216D01*
X0083940Y0155371D01*
X0083985Y0155525D01*
X0084034Y0155678D01*
X0084087Y0155830D01*
X0084143Y0155981D01*
X0084204Y0156130D01*
X0084267Y0156278D01*
X0084335Y0156424D01*
X0084406Y0156568D01*
X0084480Y0156710D01*
X0084558Y0156851D01*
X0084640Y0156989D01*
X0084725Y0157126D01*
X0084813Y0157260D01*
X0084905Y0157392D01*
X0085000Y0157522D01*
X0085098Y0157650D01*
X0085199Y0157775D01*
X0085303Y0157897D01*
X0085410Y0158017D01*
X0085520Y0158134D01*
X0085633Y0158249D01*
X0085749Y0158360D01*
X0085868Y0158469D01*
X0085989Y0158574D01*
X0086113Y0158677D01*
X0086239Y0158777D01*
X0086367Y0158873D01*
X0086498Y0158966D01*
X0086632Y0159056D01*
X0086767Y0159143D01*
X0086905Y0159226D01*
X0087044Y0159306D01*
X0087186Y0159382D01*
X0087329Y0159455D01*
X0087474Y0159524D01*
X0087621Y0159590D01*
X0087769Y0159652D01*
X0087919Y0159710D01*
X0088070Y0159765D01*
X0088223Y0159816D01*
X0088377Y0159863D01*
X0088532Y0159906D01*
X0088688Y0159945D01*
X0088844Y0159981D01*
X0089002Y0160012D01*
X0089160Y0160040D01*
X0089319Y0160064D01*
X0089479Y0160084D01*
X0089639Y0160100D01*
X0089799Y0160112D01*
X0089960Y0160120D01*
X0090121Y0160124D01*
X0090281Y0160124D01*
X0090442Y0160120D01*
X0090603Y0160112D01*
X0090763Y0160100D01*
X0090923Y0160084D01*
X0091083Y0160064D01*
X0091242Y0160040D01*
X0091400Y0160012D01*
X0091558Y0159981D01*
X0091714Y0159945D01*
X0091870Y0159906D01*
X0092025Y0159863D01*
X0092179Y0159816D01*
X0092332Y0159765D01*
X0092483Y0159710D01*
X0092633Y0159652D01*
X0092781Y0159590D01*
X0092928Y0159524D01*
X0093073Y0159455D01*
X0093216Y0159382D01*
X0093358Y0159306D01*
X0093497Y0159226D01*
X0093635Y0159143D01*
X0093770Y0159056D01*
X0093904Y0158966D01*
X0094035Y0158873D01*
X0094163Y0158777D01*
X0094289Y0158677D01*
X0094413Y0158574D01*
X0094534Y0158469D01*
X0094653Y0158360D01*
X0094769Y0158249D01*
X0094882Y0158134D01*
X0094992Y0158017D01*
X0095099Y0157897D01*
X0095203Y0157775D01*
X0095304Y0157650D01*
X0095402Y0157522D01*
X0095497Y0157392D01*
X0095589Y0157260D01*
X0095677Y0157126D01*
X0095762Y0156989D01*
X0095844Y0156851D01*
X0095922Y0156710D01*
X0095996Y0156568D01*
X0096067Y0156424D01*
X0096135Y0156278D01*
X0096198Y0156130D01*
X0096259Y0155981D01*
X0096315Y0155830D01*
X0096368Y0155678D01*
X0096417Y0155525D01*
X0096462Y0155371D01*
X0096503Y0155216D01*
X0096541Y0155059D01*
X0096574Y0154902D01*
X0096604Y0154744D01*
X0096630Y0154585D01*
X0096651Y0154426D01*
X0096669Y0154266D01*
X0096683Y0154106D01*
X0096693Y0153945D01*
X0096699Y0153785D01*
X0096701Y0153624D01*
X0096699Y0153463D01*
X0096693Y0153303D01*
X0096683Y0153142D01*
X0096669Y0152982D01*
X0096651Y0152822D01*
X0096630Y0152663D01*
X0096604Y0152504D01*
X0096574Y0152346D01*
X0096541Y0152189D01*
X0096503Y0152032D01*
X0096462Y0151877D01*
X0096417Y0151723D01*
X0096368Y0151570D01*
X0096315Y0151418D01*
X0096259Y0151267D01*
X0096198Y0151118D01*
X0096135Y0150970D01*
X0096067Y0150824D01*
X0095996Y0150680D01*
X0095922Y0150538D01*
X0095844Y0150397D01*
X0095762Y0150259D01*
X0095677Y0150122D01*
X0095589Y0149988D01*
X0095497Y0149856D01*
X0095402Y0149726D01*
X0095304Y0149598D01*
X0095203Y0149473D01*
X0095099Y0149351D01*
X0094992Y0149231D01*
X0094882Y0149114D01*
X0094769Y0148999D01*
X0094653Y0148888D01*
X0094534Y0148779D01*
X0094413Y0148674D01*
X0094289Y0148571D01*
X0094163Y0148471D01*
X0094035Y0148375D01*
X0093904Y0148282D01*
X0093770Y0148192D01*
X0093635Y0148105D01*
X0093497Y0148022D01*
X0093358Y0147942D01*
X0093216Y0147866D01*
X0093073Y0147793D01*
X0092928Y0147724D01*
X0092781Y0147658D01*
X0092633Y0147596D01*
X0092483Y0147538D01*
X0092332Y0147483D01*
X0092179Y0147432D01*
X0092025Y0147385D01*
X0091870Y0147342D01*
X0091714Y0147303D01*
X0091558Y0147267D01*
X0091400Y0147236D01*
X0091242Y0147208D01*
X0091083Y0147184D01*
X0090923Y0147164D01*
X0090763Y0147148D01*
X0090603Y0147136D01*
X0090442Y0147128D01*
X0090281Y0147124D01*
X0090121Y0147124D01*
X0089960Y0147128D01*
X0089799Y0147136D01*
X0089639Y0147148D01*
X0089479Y0147164D01*
X0089319Y0147184D01*
X0089160Y0147208D01*
X0089002Y0147236D01*
X0088844Y0147267D01*
X0088688Y0147303D01*
X0088532Y0147342D01*
X0088377Y0147385D01*
X0088223Y0147432D01*
X0088070Y0147483D01*
X0087919Y0147538D01*
X0087769Y0147596D01*
X0087621Y0147658D01*
X0087474Y0147724D01*
X0087329Y0147793D01*
X0087186Y0147866D01*
X0087044Y0147942D01*
X0086905Y0148022D01*
X0086767Y0148105D01*
X0086632Y0148192D01*
X0086498Y0148282D01*
X0086367Y0148375D01*
X0086239Y0148471D01*
X0086113Y0148571D01*
X0085989Y0148674D01*
X0085868Y0148779D01*
X0085749Y0148888D01*
X0085633Y0148999D01*
X0085520Y0149114D01*
X0085410Y0149231D01*
X0085303Y0149351D01*
X0085199Y0149473D01*
X0085098Y0149598D01*
X0085000Y0149726D01*
X0084905Y0149856D01*
X0084813Y0149988D01*
X0084725Y0150122D01*
X0084640Y0150259D01*
X0084558Y0150397D01*
X0084480Y0150538D01*
X0084406Y0150680D01*
X0084335Y0150824D01*
X0084267Y0150970D01*
X0084204Y0151118D01*
X0084143Y0151267D01*
X0084087Y0151418D01*
X0084034Y0151570D01*
X0083985Y0151723D01*
X0083940Y0151877D01*
X0083899Y0152032D01*
X0083861Y0152189D01*
X0083828Y0152346D01*
X0083798Y0152504D01*
X0083772Y0152663D01*
X0083751Y0152822D01*
X0083733Y0152982D01*
X0083719Y0153142D01*
X0083709Y0153303D01*
X0083703Y0153463D01*
X0083701Y0153624D01*
X0013819Y0218585D02*
X0013821Y0218746D01*
X0013827Y0218906D01*
X0013837Y0219067D01*
X0013851Y0219227D01*
X0013869Y0219387D01*
X0013890Y0219546D01*
X0013916Y0219705D01*
X0013946Y0219863D01*
X0013979Y0220020D01*
X0014017Y0220177D01*
X0014058Y0220332D01*
X0014103Y0220486D01*
X0014152Y0220639D01*
X0014205Y0220791D01*
X0014261Y0220942D01*
X0014322Y0221091D01*
X0014385Y0221239D01*
X0014453Y0221385D01*
X0014524Y0221529D01*
X0014598Y0221671D01*
X0014676Y0221812D01*
X0014758Y0221950D01*
X0014843Y0222087D01*
X0014931Y0222221D01*
X0015023Y0222353D01*
X0015118Y0222483D01*
X0015216Y0222611D01*
X0015317Y0222736D01*
X0015421Y0222858D01*
X0015528Y0222978D01*
X0015638Y0223095D01*
X0015751Y0223210D01*
X0015867Y0223321D01*
X0015986Y0223430D01*
X0016107Y0223535D01*
X0016231Y0223638D01*
X0016357Y0223738D01*
X0016485Y0223834D01*
X0016616Y0223927D01*
X0016750Y0224017D01*
X0016885Y0224104D01*
X0017023Y0224187D01*
X0017162Y0224267D01*
X0017304Y0224343D01*
X0017447Y0224416D01*
X0017592Y0224485D01*
X0017739Y0224551D01*
X0017887Y0224613D01*
X0018037Y0224671D01*
X0018188Y0224726D01*
X0018341Y0224777D01*
X0018495Y0224824D01*
X0018650Y0224867D01*
X0018806Y0224906D01*
X0018962Y0224942D01*
X0019120Y0224973D01*
X0019278Y0225001D01*
X0019437Y0225025D01*
X0019597Y0225045D01*
X0019757Y0225061D01*
X0019917Y0225073D01*
X0020078Y0225081D01*
X0020239Y0225085D01*
X0020399Y0225085D01*
X0020560Y0225081D01*
X0020721Y0225073D01*
X0020881Y0225061D01*
X0021041Y0225045D01*
X0021201Y0225025D01*
X0021360Y0225001D01*
X0021518Y0224973D01*
X0021676Y0224942D01*
X0021832Y0224906D01*
X0021988Y0224867D01*
X0022143Y0224824D01*
X0022297Y0224777D01*
X0022450Y0224726D01*
X0022601Y0224671D01*
X0022751Y0224613D01*
X0022899Y0224551D01*
X0023046Y0224485D01*
X0023191Y0224416D01*
X0023334Y0224343D01*
X0023476Y0224267D01*
X0023615Y0224187D01*
X0023753Y0224104D01*
X0023888Y0224017D01*
X0024022Y0223927D01*
X0024153Y0223834D01*
X0024281Y0223738D01*
X0024407Y0223638D01*
X0024531Y0223535D01*
X0024652Y0223430D01*
X0024771Y0223321D01*
X0024887Y0223210D01*
X0025000Y0223095D01*
X0025110Y0222978D01*
X0025217Y0222858D01*
X0025321Y0222736D01*
X0025422Y0222611D01*
X0025520Y0222483D01*
X0025615Y0222353D01*
X0025707Y0222221D01*
X0025795Y0222087D01*
X0025880Y0221950D01*
X0025962Y0221812D01*
X0026040Y0221671D01*
X0026114Y0221529D01*
X0026185Y0221385D01*
X0026253Y0221239D01*
X0026316Y0221091D01*
X0026377Y0220942D01*
X0026433Y0220791D01*
X0026486Y0220639D01*
X0026535Y0220486D01*
X0026580Y0220332D01*
X0026621Y0220177D01*
X0026659Y0220020D01*
X0026692Y0219863D01*
X0026722Y0219705D01*
X0026748Y0219546D01*
X0026769Y0219387D01*
X0026787Y0219227D01*
X0026801Y0219067D01*
X0026811Y0218906D01*
X0026817Y0218746D01*
X0026819Y0218585D01*
X0026817Y0218424D01*
X0026811Y0218264D01*
X0026801Y0218103D01*
X0026787Y0217943D01*
X0026769Y0217783D01*
X0026748Y0217624D01*
X0026722Y0217465D01*
X0026692Y0217307D01*
X0026659Y0217150D01*
X0026621Y0216993D01*
X0026580Y0216838D01*
X0026535Y0216684D01*
X0026486Y0216531D01*
X0026433Y0216379D01*
X0026377Y0216228D01*
X0026316Y0216079D01*
X0026253Y0215931D01*
X0026185Y0215785D01*
X0026114Y0215641D01*
X0026040Y0215499D01*
X0025962Y0215358D01*
X0025880Y0215220D01*
X0025795Y0215083D01*
X0025707Y0214949D01*
X0025615Y0214817D01*
X0025520Y0214687D01*
X0025422Y0214559D01*
X0025321Y0214434D01*
X0025217Y0214312D01*
X0025110Y0214192D01*
X0025000Y0214075D01*
X0024887Y0213960D01*
X0024771Y0213849D01*
X0024652Y0213740D01*
X0024531Y0213635D01*
X0024407Y0213532D01*
X0024281Y0213432D01*
X0024153Y0213336D01*
X0024022Y0213243D01*
X0023888Y0213153D01*
X0023753Y0213066D01*
X0023615Y0212983D01*
X0023476Y0212903D01*
X0023334Y0212827D01*
X0023191Y0212754D01*
X0023046Y0212685D01*
X0022899Y0212619D01*
X0022751Y0212557D01*
X0022601Y0212499D01*
X0022450Y0212444D01*
X0022297Y0212393D01*
X0022143Y0212346D01*
X0021988Y0212303D01*
X0021832Y0212264D01*
X0021676Y0212228D01*
X0021518Y0212197D01*
X0021360Y0212169D01*
X0021201Y0212145D01*
X0021041Y0212125D01*
X0020881Y0212109D01*
X0020721Y0212097D01*
X0020560Y0212089D01*
X0020399Y0212085D01*
X0020239Y0212085D01*
X0020078Y0212089D01*
X0019917Y0212097D01*
X0019757Y0212109D01*
X0019597Y0212125D01*
X0019437Y0212145D01*
X0019278Y0212169D01*
X0019120Y0212197D01*
X0018962Y0212228D01*
X0018806Y0212264D01*
X0018650Y0212303D01*
X0018495Y0212346D01*
X0018341Y0212393D01*
X0018188Y0212444D01*
X0018037Y0212499D01*
X0017887Y0212557D01*
X0017739Y0212619D01*
X0017592Y0212685D01*
X0017447Y0212754D01*
X0017304Y0212827D01*
X0017162Y0212903D01*
X0017023Y0212983D01*
X0016885Y0213066D01*
X0016750Y0213153D01*
X0016616Y0213243D01*
X0016485Y0213336D01*
X0016357Y0213432D01*
X0016231Y0213532D01*
X0016107Y0213635D01*
X0015986Y0213740D01*
X0015867Y0213849D01*
X0015751Y0213960D01*
X0015638Y0214075D01*
X0015528Y0214192D01*
X0015421Y0214312D01*
X0015317Y0214434D01*
X0015216Y0214559D01*
X0015118Y0214687D01*
X0015023Y0214817D01*
X0014931Y0214949D01*
X0014843Y0215083D01*
X0014758Y0215220D01*
X0014676Y0215358D01*
X0014598Y0215499D01*
X0014524Y0215641D01*
X0014453Y0215785D01*
X0014385Y0215931D01*
X0014322Y0216079D01*
X0014261Y0216228D01*
X0014205Y0216379D01*
X0014152Y0216531D01*
X0014103Y0216684D01*
X0014058Y0216838D01*
X0014017Y0216993D01*
X0013979Y0217150D01*
X0013946Y0217307D01*
X0013916Y0217465D01*
X0013890Y0217624D01*
X0013869Y0217783D01*
X0013851Y0217943D01*
X0013837Y0218103D01*
X0013827Y0218264D01*
X0013821Y0218424D01*
X0013819Y0218585D01*
D11*
X0031982Y0192778D03*
X0038608Y0202377D03*
X0048936Y0207798D03*
X0060600Y0207798D03*
X0070928Y0202377D03*
X0077554Y0192778D03*
X0078960Y0181199D03*
X0074824Y0170292D03*
X0066093Y0162558D03*
X0054768Y0159766D03*
X0043443Y0162558D03*
X0034712Y0170292D03*
X0030576Y0181199D03*
D12*
X0031146Y0139254D03*
X0027406Y0130593D03*
X0034886Y0130593D03*
X0043154Y0130593D03*
X0046894Y0139254D03*
X0050634Y0130593D03*
X0058902Y0130593D03*
X0062642Y0139254D03*
X0066382Y0130593D03*
X0074650Y0130593D03*
X0078390Y0139254D03*
X0082130Y0130593D03*
X0078390Y0119569D03*
X0074650Y0110908D03*
X0082130Y0110908D03*
X0090398Y0110908D03*
X0094138Y0119569D03*
X0097878Y0110908D03*
X0097878Y0128624D03*
X0094138Y0137286D03*
X0090398Y0128624D03*
X0066382Y0110908D03*
X0062642Y0119569D03*
X0058902Y0110908D03*
X0050634Y0110908D03*
X0046894Y0119569D03*
X0043154Y0110908D03*
X0034886Y0110908D03*
X0031146Y0119569D03*
X0027406Y0110908D03*
X0019138Y0110908D03*
X0015398Y0119569D03*
X0011658Y0110908D03*
X0011658Y0130593D03*
X0015398Y0139254D03*
X0019138Y0130593D03*
D13*
X0044842Y0096183D03*
X0044842Y0091183D03*
X0044842Y0086183D03*
X0044842Y0081183D03*
X0044842Y0076183D03*
X0044842Y0071183D03*
X0044842Y0066183D03*
X0044842Y0061183D03*
X0044842Y0056183D03*
X0044842Y0051183D03*
X0044842Y0046183D03*
X0044842Y0041183D03*
X0044842Y0036183D03*
X0044842Y0031183D03*
X0080442Y0031183D03*
X0080442Y0036183D03*
X0080442Y0041183D03*
X0080442Y0046183D03*
X0080442Y0051183D03*
X0080442Y0056183D03*
X0080442Y0061183D03*
X0080442Y0066183D03*
X0080442Y0071183D03*
X0080442Y0076183D03*
X0080442Y0081183D03*
X0080442Y0086183D03*
X0080442Y0091183D03*
X0080442Y0096183D03*
D14*
X0090201Y0153624D03*
X0020319Y0218585D03*
D15*
X0045123Y0190632D03*
X0045123Y0177640D03*
X0064414Y0177640D03*
X0064414Y0190632D03*
D16*
X0021067Y0090593D02*
X0013667Y0090593D01*
X0013667Y0080593D02*
X0021067Y0080593D01*
X0021067Y0070593D02*
X0013667Y0070593D01*
X0013667Y0060593D02*
X0021067Y0060593D01*
X0021067Y0050593D02*
X0013667Y0050593D01*
X0013667Y0040593D02*
X0021067Y0040593D01*
X0021067Y0030593D02*
X0013667Y0030593D01*
D17*
X0031028Y0085730D03*
X0036934Y0085730D03*
X0036934Y0095770D03*
X0031028Y0095770D03*
X0087327Y0092778D03*
X0093233Y0092778D03*
X0093233Y0082738D03*
X0087327Y0082738D03*
D18*
X0087327Y0086183D03*
X0087327Y0089333D03*
X0093233Y0089333D03*
X0093233Y0086183D03*
X0036934Y0089175D03*
X0036934Y0092325D03*
X0031028Y0092325D03*
X0031028Y0089175D03*
M02*
