G75*
%MOIN*%
%OFA0B0*%
%FSLAX25Y25*%
%IPPOS*%
%LPD*%
%AMOC8*
5,1,8,0,0,1.08239X$1,22.5*
%
%ADD10C,0.00000*%
%ADD11C,0.05307*%
%ADD12R,0.05118X0.05906*%
%ADD13C,0.07400*%
%ADD14R,0.02362X0.03150*%
%ADD15R,0.01969X0.03150*%
%ADD16R,0.03937X0.04331*%
%ADD17C,0.01600*%
%ADD18C,0.03562*%
%ADD19C,0.01200*%
D10*
X0007524Y0024687D02*
X0007524Y0231380D01*
X0102012Y0231380D01*
X0102012Y0024687D01*
X0007524Y0024687D01*
X0083701Y0153624D02*
X0083703Y0153785D01*
X0083709Y0153945D01*
X0083719Y0154106D01*
X0083733Y0154266D01*
X0083751Y0154426D01*
X0083772Y0154585D01*
X0083798Y0154744D01*
X0083828Y0154902D01*
X0083861Y0155059D01*
X0083899Y0155216D01*
X0083940Y0155371D01*
X0083985Y0155525D01*
X0084034Y0155678D01*
X0084087Y0155830D01*
X0084143Y0155981D01*
X0084204Y0156130D01*
X0084267Y0156278D01*
X0084335Y0156424D01*
X0084406Y0156568D01*
X0084480Y0156710D01*
X0084558Y0156851D01*
X0084640Y0156989D01*
X0084725Y0157126D01*
X0084813Y0157260D01*
X0084905Y0157392D01*
X0085000Y0157522D01*
X0085098Y0157650D01*
X0085199Y0157775D01*
X0085303Y0157897D01*
X0085410Y0158017D01*
X0085520Y0158134D01*
X0085633Y0158249D01*
X0085749Y0158360D01*
X0085868Y0158469D01*
X0085989Y0158574D01*
X0086113Y0158677D01*
X0086239Y0158777D01*
X0086367Y0158873D01*
X0086498Y0158966D01*
X0086632Y0159056D01*
X0086767Y0159143D01*
X0086905Y0159226D01*
X0087044Y0159306D01*
X0087186Y0159382D01*
X0087329Y0159455D01*
X0087474Y0159524D01*
X0087621Y0159590D01*
X0087769Y0159652D01*
X0087919Y0159710D01*
X0088070Y0159765D01*
X0088223Y0159816D01*
X0088377Y0159863D01*
X0088532Y0159906D01*
X0088688Y0159945D01*
X0088844Y0159981D01*
X0089002Y0160012D01*
X0089160Y0160040D01*
X0089319Y0160064D01*
X0089479Y0160084D01*
X0089639Y0160100D01*
X0089799Y0160112D01*
X0089960Y0160120D01*
X0090121Y0160124D01*
X0090281Y0160124D01*
X0090442Y0160120D01*
X0090603Y0160112D01*
X0090763Y0160100D01*
X0090923Y0160084D01*
X0091083Y0160064D01*
X0091242Y0160040D01*
X0091400Y0160012D01*
X0091558Y0159981D01*
X0091714Y0159945D01*
X0091870Y0159906D01*
X0092025Y0159863D01*
X0092179Y0159816D01*
X0092332Y0159765D01*
X0092483Y0159710D01*
X0092633Y0159652D01*
X0092781Y0159590D01*
X0092928Y0159524D01*
X0093073Y0159455D01*
X0093216Y0159382D01*
X0093358Y0159306D01*
X0093497Y0159226D01*
X0093635Y0159143D01*
X0093770Y0159056D01*
X0093904Y0158966D01*
X0094035Y0158873D01*
X0094163Y0158777D01*
X0094289Y0158677D01*
X0094413Y0158574D01*
X0094534Y0158469D01*
X0094653Y0158360D01*
X0094769Y0158249D01*
X0094882Y0158134D01*
X0094992Y0158017D01*
X0095099Y0157897D01*
X0095203Y0157775D01*
X0095304Y0157650D01*
X0095402Y0157522D01*
X0095497Y0157392D01*
X0095589Y0157260D01*
X0095677Y0157126D01*
X0095762Y0156989D01*
X0095844Y0156851D01*
X0095922Y0156710D01*
X0095996Y0156568D01*
X0096067Y0156424D01*
X0096135Y0156278D01*
X0096198Y0156130D01*
X0096259Y0155981D01*
X0096315Y0155830D01*
X0096368Y0155678D01*
X0096417Y0155525D01*
X0096462Y0155371D01*
X0096503Y0155216D01*
X0096541Y0155059D01*
X0096574Y0154902D01*
X0096604Y0154744D01*
X0096630Y0154585D01*
X0096651Y0154426D01*
X0096669Y0154266D01*
X0096683Y0154106D01*
X0096693Y0153945D01*
X0096699Y0153785D01*
X0096701Y0153624D01*
X0096699Y0153463D01*
X0096693Y0153303D01*
X0096683Y0153142D01*
X0096669Y0152982D01*
X0096651Y0152822D01*
X0096630Y0152663D01*
X0096604Y0152504D01*
X0096574Y0152346D01*
X0096541Y0152189D01*
X0096503Y0152032D01*
X0096462Y0151877D01*
X0096417Y0151723D01*
X0096368Y0151570D01*
X0096315Y0151418D01*
X0096259Y0151267D01*
X0096198Y0151118D01*
X0096135Y0150970D01*
X0096067Y0150824D01*
X0095996Y0150680D01*
X0095922Y0150538D01*
X0095844Y0150397D01*
X0095762Y0150259D01*
X0095677Y0150122D01*
X0095589Y0149988D01*
X0095497Y0149856D01*
X0095402Y0149726D01*
X0095304Y0149598D01*
X0095203Y0149473D01*
X0095099Y0149351D01*
X0094992Y0149231D01*
X0094882Y0149114D01*
X0094769Y0148999D01*
X0094653Y0148888D01*
X0094534Y0148779D01*
X0094413Y0148674D01*
X0094289Y0148571D01*
X0094163Y0148471D01*
X0094035Y0148375D01*
X0093904Y0148282D01*
X0093770Y0148192D01*
X0093635Y0148105D01*
X0093497Y0148022D01*
X0093358Y0147942D01*
X0093216Y0147866D01*
X0093073Y0147793D01*
X0092928Y0147724D01*
X0092781Y0147658D01*
X0092633Y0147596D01*
X0092483Y0147538D01*
X0092332Y0147483D01*
X0092179Y0147432D01*
X0092025Y0147385D01*
X0091870Y0147342D01*
X0091714Y0147303D01*
X0091558Y0147267D01*
X0091400Y0147236D01*
X0091242Y0147208D01*
X0091083Y0147184D01*
X0090923Y0147164D01*
X0090763Y0147148D01*
X0090603Y0147136D01*
X0090442Y0147128D01*
X0090281Y0147124D01*
X0090121Y0147124D01*
X0089960Y0147128D01*
X0089799Y0147136D01*
X0089639Y0147148D01*
X0089479Y0147164D01*
X0089319Y0147184D01*
X0089160Y0147208D01*
X0089002Y0147236D01*
X0088844Y0147267D01*
X0088688Y0147303D01*
X0088532Y0147342D01*
X0088377Y0147385D01*
X0088223Y0147432D01*
X0088070Y0147483D01*
X0087919Y0147538D01*
X0087769Y0147596D01*
X0087621Y0147658D01*
X0087474Y0147724D01*
X0087329Y0147793D01*
X0087186Y0147866D01*
X0087044Y0147942D01*
X0086905Y0148022D01*
X0086767Y0148105D01*
X0086632Y0148192D01*
X0086498Y0148282D01*
X0086367Y0148375D01*
X0086239Y0148471D01*
X0086113Y0148571D01*
X0085989Y0148674D01*
X0085868Y0148779D01*
X0085749Y0148888D01*
X0085633Y0148999D01*
X0085520Y0149114D01*
X0085410Y0149231D01*
X0085303Y0149351D01*
X0085199Y0149473D01*
X0085098Y0149598D01*
X0085000Y0149726D01*
X0084905Y0149856D01*
X0084813Y0149988D01*
X0084725Y0150122D01*
X0084640Y0150259D01*
X0084558Y0150397D01*
X0084480Y0150538D01*
X0084406Y0150680D01*
X0084335Y0150824D01*
X0084267Y0150970D01*
X0084204Y0151118D01*
X0084143Y0151267D01*
X0084087Y0151418D01*
X0084034Y0151570D01*
X0083985Y0151723D01*
X0083940Y0151877D01*
X0083899Y0152032D01*
X0083861Y0152189D01*
X0083828Y0152346D01*
X0083798Y0152504D01*
X0083772Y0152663D01*
X0083751Y0152822D01*
X0083733Y0152982D01*
X0083719Y0153142D01*
X0083709Y0153303D01*
X0083703Y0153463D01*
X0083701Y0153624D01*
X0013819Y0218585D02*
X0013821Y0218746D01*
X0013827Y0218906D01*
X0013837Y0219067D01*
X0013851Y0219227D01*
X0013869Y0219387D01*
X0013890Y0219546D01*
X0013916Y0219705D01*
X0013946Y0219863D01*
X0013979Y0220020D01*
X0014017Y0220177D01*
X0014058Y0220332D01*
X0014103Y0220486D01*
X0014152Y0220639D01*
X0014205Y0220791D01*
X0014261Y0220942D01*
X0014322Y0221091D01*
X0014385Y0221239D01*
X0014453Y0221385D01*
X0014524Y0221529D01*
X0014598Y0221671D01*
X0014676Y0221812D01*
X0014758Y0221950D01*
X0014843Y0222087D01*
X0014931Y0222221D01*
X0015023Y0222353D01*
X0015118Y0222483D01*
X0015216Y0222611D01*
X0015317Y0222736D01*
X0015421Y0222858D01*
X0015528Y0222978D01*
X0015638Y0223095D01*
X0015751Y0223210D01*
X0015867Y0223321D01*
X0015986Y0223430D01*
X0016107Y0223535D01*
X0016231Y0223638D01*
X0016357Y0223738D01*
X0016485Y0223834D01*
X0016616Y0223927D01*
X0016750Y0224017D01*
X0016885Y0224104D01*
X0017023Y0224187D01*
X0017162Y0224267D01*
X0017304Y0224343D01*
X0017447Y0224416D01*
X0017592Y0224485D01*
X0017739Y0224551D01*
X0017887Y0224613D01*
X0018037Y0224671D01*
X0018188Y0224726D01*
X0018341Y0224777D01*
X0018495Y0224824D01*
X0018650Y0224867D01*
X0018806Y0224906D01*
X0018962Y0224942D01*
X0019120Y0224973D01*
X0019278Y0225001D01*
X0019437Y0225025D01*
X0019597Y0225045D01*
X0019757Y0225061D01*
X0019917Y0225073D01*
X0020078Y0225081D01*
X0020239Y0225085D01*
X0020399Y0225085D01*
X0020560Y0225081D01*
X0020721Y0225073D01*
X0020881Y0225061D01*
X0021041Y0225045D01*
X0021201Y0225025D01*
X0021360Y0225001D01*
X0021518Y0224973D01*
X0021676Y0224942D01*
X0021832Y0224906D01*
X0021988Y0224867D01*
X0022143Y0224824D01*
X0022297Y0224777D01*
X0022450Y0224726D01*
X0022601Y0224671D01*
X0022751Y0224613D01*
X0022899Y0224551D01*
X0023046Y0224485D01*
X0023191Y0224416D01*
X0023334Y0224343D01*
X0023476Y0224267D01*
X0023615Y0224187D01*
X0023753Y0224104D01*
X0023888Y0224017D01*
X0024022Y0223927D01*
X0024153Y0223834D01*
X0024281Y0223738D01*
X0024407Y0223638D01*
X0024531Y0223535D01*
X0024652Y0223430D01*
X0024771Y0223321D01*
X0024887Y0223210D01*
X0025000Y0223095D01*
X0025110Y0222978D01*
X0025217Y0222858D01*
X0025321Y0222736D01*
X0025422Y0222611D01*
X0025520Y0222483D01*
X0025615Y0222353D01*
X0025707Y0222221D01*
X0025795Y0222087D01*
X0025880Y0221950D01*
X0025962Y0221812D01*
X0026040Y0221671D01*
X0026114Y0221529D01*
X0026185Y0221385D01*
X0026253Y0221239D01*
X0026316Y0221091D01*
X0026377Y0220942D01*
X0026433Y0220791D01*
X0026486Y0220639D01*
X0026535Y0220486D01*
X0026580Y0220332D01*
X0026621Y0220177D01*
X0026659Y0220020D01*
X0026692Y0219863D01*
X0026722Y0219705D01*
X0026748Y0219546D01*
X0026769Y0219387D01*
X0026787Y0219227D01*
X0026801Y0219067D01*
X0026811Y0218906D01*
X0026817Y0218746D01*
X0026819Y0218585D01*
X0026817Y0218424D01*
X0026811Y0218264D01*
X0026801Y0218103D01*
X0026787Y0217943D01*
X0026769Y0217783D01*
X0026748Y0217624D01*
X0026722Y0217465D01*
X0026692Y0217307D01*
X0026659Y0217150D01*
X0026621Y0216993D01*
X0026580Y0216838D01*
X0026535Y0216684D01*
X0026486Y0216531D01*
X0026433Y0216379D01*
X0026377Y0216228D01*
X0026316Y0216079D01*
X0026253Y0215931D01*
X0026185Y0215785D01*
X0026114Y0215641D01*
X0026040Y0215499D01*
X0025962Y0215358D01*
X0025880Y0215220D01*
X0025795Y0215083D01*
X0025707Y0214949D01*
X0025615Y0214817D01*
X0025520Y0214687D01*
X0025422Y0214559D01*
X0025321Y0214434D01*
X0025217Y0214312D01*
X0025110Y0214192D01*
X0025000Y0214075D01*
X0024887Y0213960D01*
X0024771Y0213849D01*
X0024652Y0213740D01*
X0024531Y0213635D01*
X0024407Y0213532D01*
X0024281Y0213432D01*
X0024153Y0213336D01*
X0024022Y0213243D01*
X0023888Y0213153D01*
X0023753Y0213066D01*
X0023615Y0212983D01*
X0023476Y0212903D01*
X0023334Y0212827D01*
X0023191Y0212754D01*
X0023046Y0212685D01*
X0022899Y0212619D01*
X0022751Y0212557D01*
X0022601Y0212499D01*
X0022450Y0212444D01*
X0022297Y0212393D01*
X0022143Y0212346D01*
X0021988Y0212303D01*
X0021832Y0212264D01*
X0021676Y0212228D01*
X0021518Y0212197D01*
X0021360Y0212169D01*
X0021201Y0212145D01*
X0021041Y0212125D01*
X0020881Y0212109D01*
X0020721Y0212097D01*
X0020560Y0212089D01*
X0020399Y0212085D01*
X0020239Y0212085D01*
X0020078Y0212089D01*
X0019917Y0212097D01*
X0019757Y0212109D01*
X0019597Y0212125D01*
X0019437Y0212145D01*
X0019278Y0212169D01*
X0019120Y0212197D01*
X0018962Y0212228D01*
X0018806Y0212264D01*
X0018650Y0212303D01*
X0018495Y0212346D01*
X0018341Y0212393D01*
X0018188Y0212444D01*
X0018037Y0212499D01*
X0017887Y0212557D01*
X0017739Y0212619D01*
X0017592Y0212685D01*
X0017447Y0212754D01*
X0017304Y0212827D01*
X0017162Y0212903D01*
X0017023Y0212983D01*
X0016885Y0213066D01*
X0016750Y0213153D01*
X0016616Y0213243D01*
X0016485Y0213336D01*
X0016357Y0213432D01*
X0016231Y0213532D01*
X0016107Y0213635D01*
X0015986Y0213740D01*
X0015867Y0213849D01*
X0015751Y0213960D01*
X0015638Y0214075D01*
X0015528Y0214192D01*
X0015421Y0214312D01*
X0015317Y0214434D01*
X0015216Y0214559D01*
X0015118Y0214687D01*
X0015023Y0214817D01*
X0014931Y0214949D01*
X0014843Y0215083D01*
X0014758Y0215220D01*
X0014676Y0215358D01*
X0014598Y0215499D01*
X0014524Y0215641D01*
X0014453Y0215785D01*
X0014385Y0215931D01*
X0014322Y0216079D01*
X0014261Y0216228D01*
X0014205Y0216379D01*
X0014152Y0216531D01*
X0014103Y0216684D01*
X0014058Y0216838D01*
X0014017Y0216993D01*
X0013979Y0217150D01*
X0013946Y0217307D01*
X0013916Y0217465D01*
X0013890Y0217624D01*
X0013869Y0217783D01*
X0013851Y0217943D01*
X0013837Y0218103D01*
X0013827Y0218264D01*
X0013821Y0218424D01*
X0013819Y0218585D01*
D11*
X0031982Y0192778D03*
X0038608Y0202377D03*
X0048936Y0207798D03*
X0060600Y0207798D03*
X0070928Y0202377D03*
X0077554Y0192778D03*
X0078960Y0181199D03*
X0074824Y0170292D03*
X0066093Y0162558D03*
X0054768Y0159766D03*
X0043443Y0162558D03*
X0034712Y0170292D03*
X0030576Y0181199D03*
D12*
X0055949Y0060120D03*
X0062642Y0060120D03*
X0069335Y0060120D03*
X0069335Y0048309D03*
X0062642Y0048309D03*
X0055949Y0048309D03*
X0055949Y0036498D03*
X0062642Y0036498D03*
X0069335Y0036498D03*
D13*
X0021067Y0040593D02*
X0013667Y0040593D01*
X0013667Y0050593D02*
X0021067Y0050593D01*
X0021067Y0060593D02*
X0013667Y0060593D01*
X0013667Y0070593D02*
X0021067Y0070593D01*
X0021067Y0080593D02*
X0013667Y0080593D01*
X0013667Y0090593D02*
X0021067Y0090593D01*
X0021067Y0030593D02*
X0013667Y0030593D01*
D14*
X0056083Y0089648D03*
X0056083Y0095553D03*
X0066123Y0095553D03*
X0066123Y0089648D03*
D15*
X0062678Y0089648D03*
X0059528Y0089648D03*
X0059528Y0095553D03*
X0062678Y0095553D03*
D16*
X0011264Y0172167D03*
X0011264Y0178860D03*
D17*
X0015633Y0178144D02*
X0026484Y0178144D01*
X0026292Y0178336D02*
X0027713Y0176914D01*
X0029571Y0176145D01*
X0031581Y0176145D01*
X0033439Y0176914D01*
X0034860Y0178336D01*
X0035630Y0180193D01*
X0035630Y0182204D01*
X0034860Y0184061D01*
X0033439Y0185483D01*
X0031581Y0186252D01*
X0029571Y0186252D01*
X0027713Y0185483D01*
X0026292Y0184061D01*
X0025523Y0182204D01*
X0025523Y0180193D01*
X0026292Y0178336D01*
X0025709Y0179743D02*
X0015633Y0179743D01*
X0015633Y0181341D02*
X0025523Y0181341D01*
X0025827Y0182940D02*
X0014713Y0182940D01*
X0014592Y0183060D02*
X0014461Y0183115D01*
X0014461Y0184176D01*
X0015006Y0184720D01*
X0015642Y0186257D01*
X0015642Y0187920D01*
X0015006Y0189457D01*
X0013830Y0190633D01*
X0012293Y0191270D01*
X0010629Y0191270D01*
X0009924Y0190978D01*
X0009924Y0228980D01*
X0099612Y0228980D01*
X0099612Y0170109D01*
X0085980Y0183742D01*
X0084877Y0184199D01*
X0083107Y0184199D01*
X0081823Y0185483D01*
X0079966Y0186252D01*
X0077955Y0186252D01*
X0076098Y0185483D01*
X0074676Y0184061D01*
X0073907Y0182204D01*
X0073907Y0180193D01*
X0074676Y0178336D01*
X0076098Y0176914D01*
X0077955Y0176145D01*
X0079966Y0176145D01*
X0081823Y0176914D01*
X0083072Y0178164D01*
X0096060Y0165177D01*
X0096060Y0161893D01*
X0095329Y0162506D01*
X0091982Y0163724D01*
X0088420Y0163724D01*
X0085073Y0162506D01*
X0082345Y0160216D01*
X0080564Y0157132D01*
X0080564Y0157132D01*
X0079945Y0153624D01*
X0080564Y0150116D01*
X0082345Y0147032D01*
X0082345Y0147032D01*
X0085073Y0144742D01*
X0085073Y0144742D01*
X0088420Y0143524D01*
X0091982Y0143524D01*
X0095329Y0144742D01*
X0095329Y0144742D01*
X0095345Y0144756D01*
X0094878Y0143629D01*
X0094878Y0141966D01*
X0095515Y0140429D01*
X0096691Y0139253D01*
X0098228Y0138616D01*
X0099612Y0138616D01*
X0099612Y0027087D01*
X0026188Y0027087D01*
X0026238Y0027137D01*
X0027167Y0029379D01*
X0027167Y0031806D01*
X0026238Y0034048D01*
X0024693Y0035593D01*
X0026238Y0037137D01*
X0027167Y0039379D01*
X0027167Y0041806D01*
X0026238Y0044048D01*
X0024693Y0045593D01*
X0026238Y0047137D01*
X0027167Y0049379D01*
X0027167Y0051806D01*
X0026238Y0054048D01*
X0024693Y0055593D01*
X0026238Y0057137D01*
X0026427Y0057593D01*
X0047081Y0057593D01*
X0047387Y0057534D01*
X0047672Y0057593D01*
X0047963Y0057593D01*
X0048251Y0057712D01*
X0048556Y0057775D01*
X0048797Y0057938D01*
X0049066Y0058049D01*
X0049286Y0058269D01*
X0050990Y0059425D01*
X0050990Y0056690D01*
X0051356Y0055808D01*
X0052031Y0055133D01*
X0052913Y0054767D01*
X0052949Y0054767D01*
X0052949Y0053662D01*
X0052913Y0053662D01*
X0052031Y0053297D01*
X0051356Y0052621D01*
X0050990Y0051739D01*
X0050990Y0044879D01*
X0051356Y0043997D01*
X0052031Y0043322D01*
X0052913Y0042956D01*
X0052949Y0042956D01*
X0052949Y0041851D01*
X0052913Y0041851D01*
X0052031Y0041485D01*
X0051356Y0040810D01*
X0050990Y0039928D01*
X0050990Y0033068D01*
X0051356Y0032186D01*
X0052031Y0031511D01*
X0052913Y0031145D01*
X0058986Y0031145D01*
X0059296Y0031274D01*
X0059606Y0031145D01*
X0065679Y0031145D01*
X0066561Y0031511D01*
X0066795Y0031745D01*
X0068856Y0031745D01*
X0068856Y0036019D01*
X0069815Y0036019D01*
X0069815Y0036978D01*
X0073694Y0036978D01*
X0073694Y0039688D01*
X0073572Y0040146D01*
X0073432Y0040388D01*
X0091225Y0040388D01*
X0091770Y0039843D01*
X0093307Y0039207D01*
X0094970Y0039207D01*
X0096507Y0039843D01*
X0097683Y0041019D01*
X0098319Y0042556D01*
X0098319Y0044220D01*
X0097683Y0045756D01*
X0096507Y0046932D01*
X0094970Y0047569D01*
X0093307Y0047569D01*
X0091770Y0046932D01*
X0091225Y0046388D01*
X0073694Y0046388D01*
X0073694Y0047830D01*
X0069815Y0047830D01*
X0069815Y0048789D01*
X0073694Y0048789D01*
X0073694Y0051215D01*
X0088273Y0051215D01*
X0088817Y0050670D01*
X0090354Y0050034D01*
X0092017Y0050034D01*
X0093554Y0050670D01*
X0094730Y0051846D01*
X0095367Y0053383D01*
X0095367Y0055046D01*
X0094730Y0056583D01*
X0093554Y0057759D01*
X0092017Y0058396D01*
X0090354Y0058396D01*
X0088817Y0057759D01*
X0088273Y0057215D01*
X0073694Y0057215D01*
X0073694Y0059641D01*
X0069815Y0059641D01*
X0069815Y0060600D01*
X0068856Y0060600D01*
X0068856Y0064873D01*
X0066795Y0064873D01*
X0066561Y0065108D01*
X0065679Y0065473D01*
X0059913Y0065473D01*
X0061821Y0066766D01*
X0063474Y0066766D01*
X0065011Y0067402D01*
X0066187Y0068579D01*
X0066783Y0070018D01*
X0066972Y0069563D01*
X0068148Y0068387D01*
X0069685Y0067750D01*
X0071348Y0067750D01*
X0072885Y0068387D01*
X0074061Y0069563D01*
X0074697Y0071100D01*
X0074697Y0072763D01*
X0074061Y0074300D01*
X0073602Y0074758D01*
X0074853Y0075276D01*
X0076029Y0076453D01*
X0076666Y0077989D01*
X0076666Y0079653D01*
X0076029Y0081189D01*
X0074853Y0082366D01*
X0073316Y0083002D01*
X0072546Y0083002D01*
X0069667Y0085882D01*
X0070669Y0085467D01*
X0072332Y0085467D01*
X0073869Y0086103D01*
X0075045Y0087279D01*
X0075682Y0088816D01*
X0075682Y0090479D01*
X0075485Y0090955D01*
X0075485Y0164063D01*
X0075028Y0165166D01*
X0074955Y0165239D01*
X0075829Y0165239D01*
X0077687Y0166008D01*
X0079108Y0167430D01*
X0079878Y0169287D01*
X0079878Y0171297D01*
X0079108Y0173155D01*
X0077687Y0174576D01*
X0075829Y0175346D01*
X0073819Y0175346D01*
X0071962Y0174576D01*
X0070540Y0173155D01*
X0069771Y0171297D01*
X0069771Y0170423D01*
X0068765Y0171429D01*
X0068792Y0171493D01*
X0068792Y0173157D01*
X0068155Y0174693D01*
X0066979Y0175869D01*
X0065442Y0176506D01*
X0063779Y0176506D01*
X0063674Y0176462D01*
X0063674Y0181923D01*
X0064458Y0181923D01*
X0065995Y0182560D01*
X0067171Y0183736D01*
X0067808Y0185273D01*
X0067808Y0186936D01*
X0067171Y0188473D01*
X0065995Y0189649D01*
X0064458Y0190286D01*
X0062795Y0190286D01*
X0061258Y0189649D01*
X0060082Y0188473D01*
X0059445Y0186936D01*
X0059445Y0186923D01*
X0059254Y0186795D01*
X0058974Y0186679D01*
X0058762Y0186467D01*
X0058513Y0186301D01*
X0058345Y0186049D01*
X0058130Y0185835D01*
X0058016Y0185558D01*
X0057849Y0185309D01*
X0057790Y0185012D01*
X0057674Y0184733D01*
X0057674Y0184433D01*
X0057615Y0184139D01*
X0057674Y0183842D01*
X0057674Y0164007D01*
X0057631Y0164050D01*
X0055773Y0164820D01*
X0053763Y0164820D01*
X0051906Y0164050D01*
X0050484Y0162629D01*
X0049715Y0160771D01*
X0049715Y0158761D01*
X0050484Y0156904D01*
X0051906Y0155482D01*
X0053763Y0154713D01*
X0054567Y0154713D01*
X0052225Y0152371D01*
X0051768Y0151268D01*
X0051768Y0120120D01*
X0051224Y0119575D01*
X0050587Y0118038D01*
X0050587Y0116375D01*
X0051224Y0114838D01*
X0052400Y0113662D01*
X0053937Y0113026D01*
X0055600Y0113026D01*
X0057137Y0113662D01*
X0058313Y0114838D01*
X0058949Y0116375D01*
X0058949Y0118038D01*
X0058313Y0119575D01*
X0057768Y0120120D01*
X0057768Y0149429D01*
X0062373Y0154034D01*
X0063217Y0154877D01*
X0063674Y0155980D01*
X0063674Y0158090D01*
X0065088Y0157504D01*
X0067099Y0157504D01*
X0068956Y0158273D01*
X0069485Y0158802D01*
X0069485Y0106624D01*
X0068700Y0106624D01*
X0067164Y0105988D01*
X0065987Y0104811D01*
X0065758Y0104256D01*
X0065011Y0105003D01*
X0063474Y0105640D01*
X0061811Y0105640D01*
X0060274Y0105003D01*
X0059197Y0103927D01*
X0058121Y0105003D01*
X0056584Y0105640D01*
X0054921Y0105640D01*
X0053384Y0105003D01*
X0052208Y0103827D01*
X0052017Y0103367D01*
X0051759Y0103474D01*
X0045870Y0103474D01*
X0045326Y0104019D01*
X0043789Y0104656D01*
X0043004Y0104656D01*
X0043004Y0109083D01*
X0043062Y0109426D01*
X0043004Y0109674D01*
X0043004Y0109930D01*
X0042872Y0110250D01*
X0042793Y0110589D01*
X0042645Y0110796D01*
X0042548Y0111032D01*
X0042302Y0111278D01*
X0042100Y0111560D01*
X0041884Y0111696D01*
X0041704Y0111876D01*
X0041383Y0112009D01*
X0035130Y0115917D01*
X0035130Y0159893D01*
X0038389Y0162065D01*
X0038389Y0161552D01*
X0039159Y0159695D01*
X0040580Y0158273D01*
X0042438Y0157504D01*
X0044448Y0157504D01*
X0046306Y0158273D01*
X0047727Y0159695D01*
X0048497Y0161552D01*
X0048497Y0163563D01*
X0047727Y0165420D01*
X0046306Y0166842D01*
X0045845Y0167033D01*
X0045853Y0167041D01*
X0046102Y0167207D01*
X0046271Y0167459D01*
X0046485Y0167673D01*
X0046599Y0167950D01*
X0046766Y0168199D01*
X0046826Y0168496D01*
X0046941Y0168775D01*
X0046941Y0169075D01*
X0047000Y0169369D01*
X0046983Y0169454D01*
X0047486Y0169956D01*
X0048123Y0171493D01*
X0048123Y0173157D01*
X0047486Y0174693D01*
X0046310Y0175869D01*
X0044773Y0176506D01*
X0043110Y0176506D01*
X0041573Y0175869D01*
X0040397Y0174693D01*
X0039760Y0173157D01*
X0039760Y0171493D01*
X0040183Y0170472D01*
X0039766Y0170194D01*
X0039766Y0171297D01*
X0038997Y0173155D01*
X0037575Y0174576D01*
X0035718Y0175346D01*
X0033707Y0175346D01*
X0031850Y0174576D01*
X0030428Y0173155D01*
X0029659Y0171297D01*
X0029659Y0169287D01*
X0030428Y0167430D01*
X0031850Y0166008D01*
X0032860Y0165590D01*
X0030711Y0164157D01*
X0030431Y0164041D01*
X0030219Y0163829D01*
X0029970Y0163663D01*
X0029801Y0163412D01*
X0029587Y0163197D01*
X0029472Y0162921D01*
X0029306Y0162672D01*
X0029246Y0162375D01*
X0029130Y0162095D01*
X0029130Y0161795D01*
X0029072Y0161501D01*
X0029130Y0161204D01*
X0029130Y0114503D01*
X0029073Y0114161D01*
X0029130Y0113912D01*
X0029130Y0113657D01*
X0029263Y0113336D01*
X0029341Y0112998D01*
X0029490Y0112790D01*
X0029587Y0112555D01*
X0029833Y0112309D01*
X0030034Y0112026D01*
X0030251Y0111891D01*
X0030431Y0111711D01*
X0030752Y0111578D01*
X0037004Y0107670D01*
X0037004Y0078095D01*
X0032856Y0073947D01*
X0026280Y0073947D01*
X0026238Y0074048D01*
X0024522Y0075764D01*
X0024048Y0075960D01*
X0024650Y0076397D01*
X0025262Y0077010D01*
X0025771Y0077710D01*
X0026164Y0078481D01*
X0026431Y0079305D01*
X0026567Y0080160D01*
X0026567Y0080393D01*
X0017567Y0080393D01*
X0017567Y0080793D01*
X0026567Y0080793D01*
X0026567Y0081025D01*
X0026431Y0081881D01*
X0026164Y0082704D01*
X0025771Y0083475D01*
X0025262Y0084176D01*
X0024650Y0084788D01*
X0024048Y0085225D01*
X0024522Y0085421D01*
X0026238Y0087137D01*
X0027167Y0089379D01*
X0027167Y0091806D01*
X0026238Y0094048D01*
X0024522Y0095764D01*
X0022280Y0096693D01*
X0015509Y0096693D01*
X0014264Y0097938D01*
X0014264Y0167832D01*
X0014592Y0167967D01*
X0015267Y0168643D01*
X0015633Y0169525D01*
X0015633Y0174810D01*
X0015341Y0175514D01*
X0015633Y0176218D01*
X0015633Y0181503D01*
X0015267Y0182385D01*
X0014592Y0183060D01*
X0014824Y0184538D02*
X0026769Y0184538D01*
X0029293Y0186137D02*
X0015592Y0186137D01*
X0015642Y0187735D02*
X0030950Y0187735D01*
X0030977Y0187724D02*
X0032987Y0187724D01*
X0034845Y0188493D01*
X0036266Y0189915D01*
X0037036Y0191772D01*
X0037036Y0193783D01*
X0036266Y0195640D01*
X0034845Y0197062D01*
X0032987Y0197831D01*
X0030977Y0197831D01*
X0029119Y0197062D01*
X0027698Y0195640D01*
X0026928Y0193783D01*
X0026928Y0191772D01*
X0027698Y0189915D01*
X0029119Y0188493D01*
X0030977Y0187724D01*
X0031860Y0186137D02*
X0058403Y0186137D01*
X0057674Y0184538D02*
X0034383Y0184538D01*
X0035325Y0182940D02*
X0057674Y0182940D01*
X0057674Y0181341D02*
X0035630Y0181341D01*
X0035443Y0179743D02*
X0057674Y0179743D01*
X0057674Y0178144D02*
X0034669Y0178144D01*
X0036680Y0174947D02*
X0040651Y0174947D01*
X0039840Y0173349D02*
X0038803Y0173349D01*
X0039578Y0171750D02*
X0039760Y0171750D01*
X0046033Y0166955D02*
X0057674Y0166955D01*
X0057674Y0168553D02*
X0046849Y0168553D01*
X0047567Y0170152D02*
X0057674Y0170152D01*
X0057674Y0171750D02*
X0048123Y0171750D01*
X0048043Y0173349D02*
X0057674Y0173349D01*
X0057674Y0174947D02*
X0047232Y0174947D01*
X0047754Y0165356D02*
X0057674Y0165356D01*
X0063674Y0157364D02*
X0069485Y0157364D01*
X0069485Y0155765D02*
X0063585Y0155765D01*
X0062506Y0154167D02*
X0069485Y0154167D01*
X0069485Y0152568D02*
X0060908Y0152568D01*
X0059309Y0150970D02*
X0069485Y0150970D01*
X0069485Y0149371D02*
X0057768Y0149371D01*
X0057768Y0147772D02*
X0069485Y0147772D01*
X0069485Y0146174D02*
X0057768Y0146174D01*
X0057768Y0144575D02*
X0069485Y0144575D01*
X0069485Y0142977D02*
X0057768Y0142977D01*
X0057768Y0141378D02*
X0069485Y0141378D01*
X0069485Y0139780D02*
X0057768Y0139780D01*
X0057768Y0138181D02*
X0069485Y0138181D01*
X0069485Y0136583D02*
X0057768Y0136583D01*
X0057768Y0134984D02*
X0069485Y0134984D01*
X0069485Y0133386D02*
X0057768Y0133386D01*
X0057768Y0131787D02*
X0069485Y0131787D01*
X0069485Y0130189D02*
X0057768Y0130189D01*
X0057768Y0128590D02*
X0069485Y0128590D01*
X0069485Y0126992D02*
X0057768Y0126992D01*
X0057768Y0125393D02*
X0069485Y0125393D01*
X0069485Y0123795D02*
X0057768Y0123795D01*
X0057768Y0122196D02*
X0069485Y0122196D01*
X0069485Y0120598D02*
X0057768Y0120598D01*
X0058551Y0118999D02*
X0069485Y0118999D01*
X0069485Y0117401D02*
X0058949Y0117401D01*
X0058712Y0115802D02*
X0069485Y0115802D01*
X0069485Y0114204D02*
X0057678Y0114204D01*
X0058512Y0104613D02*
X0059883Y0104613D01*
X0065401Y0104613D02*
X0065905Y0104613D01*
X0067703Y0106211D02*
X0043004Y0106211D01*
X0043004Y0107810D02*
X0069485Y0107810D01*
X0069485Y0109408D02*
X0043059Y0109408D01*
X0042558Y0111007D02*
X0069485Y0111007D01*
X0069485Y0112605D02*
X0040429Y0112605D01*
X0037871Y0114204D02*
X0051858Y0114204D01*
X0050824Y0115802D02*
X0035314Y0115802D01*
X0035130Y0117401D02*
X0050587Y0117401D01*
X0050985Y0118999D02*
X0035130Y0118999D01*
X0035130Y0120598D02*
X0051768Y0120598D01*
X0051768Y0122196D02*
X0035130Y0122196D01*
X0035130Y0123795D02*
X0051768Y0123795D01*
X0051768Y0125393D02*
X0035130Y0125393D01*
X0035130Y0126992D02*
X0051768Y0126992D01*
X0051768Y0128590D02*
X0035130Y0128590D01*
X0035130Y0130189D02*
X0051768Y0130189D01*
X0051768Y0131787D02*
X0035130Y0131787D01*
X0035130Y0133386D02*
X0051768Y0133386D01*
X0051768Y0134984D02*
X0035130Y0134984D01*
X0035130Y0136583D02*
X0051768Y0136583D01*
X0051768Y0138181D02*
X0035130Y0138181D01*
X0035130Y0139780D02*
X0051768Y0139780D01*
X0051768Y0141378D02*
X0035130Y0141378D01*
X0035130Y0142977D02*
X0051768Y0142977D01*
X0051768Y0144575D02*
X0035130Y0144575D01*
X0035130Y0146174D02*
X0051768Y0146174D01*
X0051768Y0147772D02*
X0035130Y0147772D01*
X0035130Y0149371D02*
X0051768Y0149371D01*
X0051768Y0150970D02*
X0035130Y0150970D01*
X0035130Y0152568D02*
X0052422Y0152568D01*
X0054021Y0154167D02*
X0035130Y0154167D01*
X0035130Y0155765D02*
X0051623Y0155765D01*
X0050294Y0157364D02*
X0035130Y0157364D01*
X0035130Y0158962D02*
X0039892Y0158962D01*
X0038800Y0160561D02*
X0036132Y0160561D01*
X0032509Y0165356D02*
X0014264Y0165356D01*
X0014264Y0163758D02*
X0030111Y0163758D01*
X0029157Y0162159D02*
X0014264Y0162159D01*
X0014264Y0160561D02*
X0029130Y0160561D01*
X0029130Y0158962D02*
X0014264Y0158962D01*
X0014264Y0157364D02*
X0029130Y0157364D01*
X0029130Y0155765D02*
X0014264Y0155765D01*
X0014264Y0154167D02*
X0029130Y0154167D01*
X0029130Y0152568D02*
X0014264Y0152568D01*
X0014264Y0150970D02*
X0029130Y0150970D01*
X0029130Y0149371D02*
X0014264Y0149371D01*
X0014264Y0147772D02*
X0029130Y0147772D01*
X0029130Y0146174D02*
X0014264Y0146174D01*
X0014264Y0144575D02*
X0029130Y0144575D01*
X0029130Y0142977D02*
X0014264Y0142977D01*
X0014264Y0141378D02*
X0029130Y0141378D01*
X0029130Y0139780D02*
X0014264Y0139780D01*
X0014264Y0138181D02*
X0029130Y0138181D01*
X0029130Y0136583D02*
X0014264Y0136583D01*
X0014264Y0134984D02*
X0029130Y0134984D01*
X0029130Y0133386D02*
X0014264Y0133386D01*
X0014264Y0131787D02*
X0029130Y0131787D01*
X0029130Y0130189D02*
X0014264Y0130189D01*
X0014264Y0128590D02*
X0029130Y0128590D01*
X0029130Y0126992D02*
X0014264Y0126992D01*
X0014264Y0125393D02*
X0029130Y0125393D01*
X0029130Y0123795D02*
X0014264Y0123795D01*
X0014264Y0122196D02*
X0029130Y0122196D01*
X0029130Y0120598D02*
X0014264Y0120598D01*
X0014264Y0118999D02*
X0029130Y0118999D01*
X0029130Y0117401D02*
X0014264Y0117401D01*
X0014264Y0115802D02*
X0029130Y0115802D01*
X0029080Y0114204D02*
X0014264Y0114204D01*
X0014264Y0112605D02*
X0029566Y0112605D01*
X0031666Y0111007D02*
X0014264Y0111007D01*
X0014264Y0109408D02*
X0034223Y0109408D01*
X0036781Y0107810D02*
X0014264Y0107810D01*
X0014264Y0106211D02*
X0037004Y0106211D01*
X0037004Y0104613D02*
X0014264Y0104613D01*
X0014264Y0103014D02*
X0037004Y0103014D01*
X0037004Y0101416D02*
X0014264Y0101416D01*
X0014264Y0099817D02*
X0037004Y0099817D01*
X0037004Y0098219D02*
X0014264Y0098219D01*
X0022455Y0096620D02*
X0037004Y0096620D01*
X0037004Y0095022D02*
X0025264Y0095022D01*
X0026497Y0093423D02*
X0037004Y0093423D01*
X0037004Y0091825D02*
X0027159Y0091825D01*
X0027167Y0090226D02*
X0037004Y0090226D01*
X0037004Y0088628D02*
X0026855Y0088628D01*
X0026130Y0087029D02*
X0037004Y0087029D01*
X0037004Y0085431D02*
X0024531Y0085431D01*
X0025511Y0083832D02*
X0037004Y0083832D01*
X0037004Y0082234D02*
X0026317Y0082234D01*
X0026344Y0079036D02*
X0037004Y0079036D01*
X0037004Y0080635D02*
X0017567Y0080635D01*
X0024340Y0075839D02*
X0034749Y0075839D01*
X0033150Y0074241D02*
X0026045Y0074241D01*
X0025573Y0077438D02*
X0036347Y0077438D01*
X0049273Y0058256D02*
X0050990Y0058256D01*
X0051004Y0056657D02*
X0025758Y0056657D01*
X0025227Y0055059D02*
X0052209Y0055059D01*
X0052426Y0053460D02*
X0026481Y0053460D01*
X0027144Y0051862D02*
X0051041Y0051862D01*
X0050990Y0050263D02*
X0027167Y0050263D01*
X0026871Y0048665D02*
X0050990Y0048665D01*
X0050990Y0047066D02*
X0026167Y0047066D01*
X0024818Y0045468D02*
X0050990Y0045468D01*
X0051483Y0043869D02*
X0026312Y0043869D01*
X0026974Y0042271D02*
X0052949Y0042271D01*
X0051298Y0040672D02*
X0027167Y0040672D01*
X0027040Y0039074D02*
X0050990Y0039074D01*
X0050990Y0037475D02*
X0026378Y0037475D01*
X0024977Y0035877D02*
X0050990Y0035877D01*
X0050990Y0034278D02*
X0026008Y0034278D01*
X0026805Y0032680D02*
X0051151Y0032680D01*
X0068856Y0032680D02*
X0069815Y0032680D01*
X0069815Y0031745D02*
X0072131Y0031745D01*
X0072589Y0031868D01*
X0072999Y0032105D01*
X0073335Y0032440D01*
X0073572Y0032851D01*
X0073694Y0033308D01*
X0073694Y0036019D01*
X0069815Y0036019D01*
X0069815Y0031745D01*
X0069815Y0034278D02*
X0068856Y0034278D01*
X0068856Y0035877D02*
X0069815Y0035877D01*
X0073473Y0032680D02*
X0099612Y0032680D01*
X0099612Y0034278D02*
X0073694Y0034278D01*
X0073694Y0035877D02*
X0099612Y0035877D01*
X0099612Y0037475D02*
X0073694Y0037475D01*
X0073694Y0039074D02*
X0099612Y0039074D01*
X0099612Y0040672D02*
X0097336Y0040672D01*
X0098201Y0042271D02*
X0099612Y0042271D01*
X0099612Y0043869D02*
X0098319Y0043869D01*
X0097802Y0045468D02*
X0099612Y0045468D01*
X0099612Y0047066D02*
X0096184Y0047066D01*
X0099612Y0050263D02*
X0092572Y0050263D01*
X0094737Y0051862D02*
X0099612Y0051862D01*
X0099612Y0053460D02*
X0095367Y0053460D01*
X0095361Y0055059D02*
X0099612Y0055059D01*
X0099612Y0056657D02*
X0094656Y0056657D01*
X0092355Y0058256D02*
X0099612Y0058256D01*
X0099612Y0059854D02*
X0069815Y0059854D01*
X0069815Y0060600D02*
X0073694Y0060600D01*
X0073694Y0063310D01*
X0073572Y0063768D01*
X0073335Y0064178D01*
X0072999Y0064513D01*
X0072589Y0064750D01*
X0072131Y0064873D01*
X0069815Y0064873D01*
X0069815Y0060600D01*
X0069815Y0061453D02*
X0068856Y0061453D01*
X0068856Y0063051D02*
X0069815Y0063051D01*
X0069815Y0064650D02*
X0068856Y0064650D01*
X0069451Y0067847D02*
X0065455Y0067847D01*
X0066546Y0069445D02*
X0067089Y0069445D01*
X0071582Y0067847D02*
X0099612Y0067847D01*
X0099612Y0069445D02*
X0073943Y0069445D01*
X0074674Y0071044D02*
X0099612Y0071044D01*
X0099612Y0072642D02*
X0074697Y0072642D01*
X0074085Y0074241D02*
X0099612Y0074241D01*
X0099612Y0075839D02*
X0075416Y0075839D01*
X0076438Y0077438D02*
X0099612Y0077438D01*
X0099612Y0079036D02*
X0076666Y0079036D01*
X0076259Y0080635D02*
X0099612Y0080635D01*
X0099612Y0082234D02*
X0074985Y0082234D01*
X0074795Y0087029D02*
X0099612Y0087029D01*
X0099612Y0085431D02*
X0070118Y0085431D01*
X0071716Y0083832D02*
X0099612Y0083832D01*
X0099612Y0088628D02*
X0075604Y0088628D01*
X0075682Y0090226D02*
X0099612Y0090226D01*
X0099612Y0091825D02*
X0075485Y0091825D01*
X0075485Y0093423D02*
X0099612Y0093423D01*
X0099612Y0095022D02*
X0075485Y0095022D01*
X0075485Y0096620D02*
X0099612Y0096620D01*
X0099612Y0098219D02*
X0075485Y0098219D01*
X0075485Y0099817D02*
X0099612Y0099817D01*
X0099612Y0101416D02*
X0075485Y0101416D01*
X0075485Y0103014D02*
X0099612Y0103014D01*
X0099612Y0104613D02*
X0075485Y0104613D01*
X0075485Y0106211D02*
X0099612Y0106211D01*
X0099612Y0107810D02*
X0075485Y0107810D01*
X0075485Y0109408D02*
X0099612Y0109408D01*
X0099612Y0111007D02*
X0075485Y0111007D01*
X0075485Y0112605D02*
X0099612Y0112605D01*
X0099612Y0114204D02*
X0075485Y0114204D01*
X0075485Y0115802D02*
X0099612Y0115802D01*
X0099612Y0117401D02*
X0075485Y0117401D01*
X0075485Y0118999D02*
X0099612Y0118999D01*
X0099612Y0120598D02*
X0075485Y0120598D01*
X0075485Y0122196D02*
X0099612Y0122196D01*
X0099612Y0123795D02*
X0075485Y0123795D01*
X0075485Y0125393D02*
X0099612Y0125393D01*
X0099612Y0126992D02*
X0075485Y0126992D01*
X0075485Y0128590D02*
X0099612Y0128590D01*
X0099612Y0130189D02*
X0075485Y0130189D01*
X0075485Y0131787D02*
X0099612Y0131787D01*
X0099612Y0133386D02*
X0075485Y0133386D01*
X0075485Y0134984D02*
X0099612Y0134984D01*
X0099612Y0136583D02*
X0075485Y0136583D01*
X0075485Y0138181D02*
X0099612Y0138181D01*
X0096164Y0139780D02*
X0075485Y0139780D01*
X0075485Y0141378D02*
X0095122Y0141378D01*
X0094878Y0142977D02*
X0075485Y0142977D01*
X0075485Y0144575D02*
X0085532Y0144575D01*
X0083367Y0146174D02*
X0075485Y0146174D01*
X0075485Y0147772D02*
X0081917Y0147772D01*
X0080994Y0149371D02*
X0075485Y0149371D01*
X0075485Y0150970D02*
X0080414Y0150970D01*
X0080564Y0150116D02*
X0080564Y0150116D01*
X0080132Y0152568D02*
X0075485Y0152568D01*
X0075485Y0154167D02*
X0080041Y0154167D01*
X0079945Y0153624D02*
X0079945Y0153624D01*
X0080323Y0155765D02*
X0075485Y0155765D01*
X0075485Y0157364D02*
X0080698Y0157364D01*
X0081621Y0158962D02*
X0075485Y0158962D01*
X0075485Y0160561D02*
X0082755Y0160561D01*
X0082345Y0160216D02*
X0082345Y0160216D01*
X0082345Y0160216D01*
X0084660Y0162159D02*
X0075485Y0162159D01*
X0075485Y0163758D02*
X0096060Y0163758D01*
X0095329Y0162506D02*
X0095329Y0162506D01*
X0095743Y0162159D02*
X0096060Y0162159D01*
X0095880Y0165356D02*
X0076113Y0165356D01*
X0078633Y0166955D02*
X0094282Y0166955D01*
X0092683Y0168553D02*
X0079574Y0168553D01*
X0079878Y0170152D02*
X0091085Y0170152D01*
X0089486Y0171750D02*
X0079690Y0171750D01*
X0078914Y0173349D02*
X0087888Y0173349D01*
X0086289Y0174947D02*
X0076792Y0174947D01*
X0076988Y0176546D02*
X0063674Y0176546D01*
X0063674Y0178144D02*
X0074868Y0178144D01*
X0074093Y0179743D02*
X0063674Y0179743D01*
X0063674Y0181341D02*
X0073907Y0181341D01*
X0074212Y0182940D02*
X0066375Y0182940D01*
X0067503Y0184538D02*
X0075153Y0184538D01*
X0077677Y0186137D02*
X0067808Y0186137D01*
X0067477Y0187735D02*
X0076522Y0187735D01*
X0076549Y0187724D02*
X0078560Y0187724D01*
X0080417Y0188493D01*
X0081839Y0189915D01*
X0082608Y0191772D01*
X0082608Y0193783D01*
X0081839Y0195640D01*
X0080417Y0197062D01*
X0078560Y0197831D01*
X0076549Y0197831D01*
X0074692Y0197062D01*
X0073270Y0195640D01*
X0072501Y0193783D01*
X0072501Y0191772D01*
X0073270Y0189915D01*
X0074692Y0188493D01*
X0076549Y0187724D01*
X0078587Y0187735D02*
X0099612Y0187735D01*
X0099612Y0186137D02*
X0080244Y0186137D01*
X0082767Y0184538D02*
X0099612Y0184538D01*
X0099612Y0182940D02*
X0086782Y0182940D01*
X0088380Y0181341D02*
X0099612Y0181341D01*
X0099612Y0179743D02*
X0089979Y0179743D01*
X0091577Y0178144D02*
X0099612Y0178144D01*
X0099612Y0176546D02*
X0093176Y0176546D01*
X0094774Y0174947D02*
X0099612Y0174947D01*
X0099612Y0173349D02*
X0096373Y0173349D01*
X0097971Y0171750D02*
X0099612Y0171750D01*
X0099570Y0170152D02*
X0099612Y0170152D01*
X0099612Y0189334D02*
X0081257Y0189334D01*
X0082260Y0190932D02*
X0099612Y0190932D01*
X0099612Y0192531D02*
X0082608Y0192531D01*
X0082464Y0194129D02*
X0099612Y0194129D01*
X0099612Y0195728D02*
X0081751Y0195728D01*
X0079779Y0197326D02*
X0099612Y0197326D01*
X0099612Y0198925D02*
X0074623Y0198925D01*
X0075213Y0199514D02*
X0073791Y0198093D01*
X0071934Y0197323D01*
X0069923Y0197323D01*
X0068066Y0198093D01*
X0066644Y0199514D01*
X0065875Y0201372D01*
X0065875Y0203382D01*
X0066644Y0205239D01*
X0068066Y0206661D01*
X0069923Y0207430D01*
X0071934Y0207430D01*
X0073791Y0206661D01*
X0075213Y0205239D01*
X0075982Y0203382D01*
X0075982Y0201372D01*
X0075213Y0199514D01*
X0075631Y0200523D02*
X0099612Y0200523D01*
X0099612Y0202122D02*
X0075982Y0202122D01*
X0075842Y0203720D02*
X0099612Y0203720D01*
X0099612Y0205319D02*
X0075133Y0205319D01*
X0073172Y0206917D02*
X0099612Y0206917D01*
X0099612Y0208516D02*
X0065654Y0208516D01*
X0065654Y0208803D02*
X0064884Y0210660D01*
X0063463Y0212082D01*
X0061605Y0212851D01*
X0059595Y0212851D01*
X0057738Y0212082D01*
X0056316Y0210660D01*
X0055547Y0208803D01*
X0055547Y0206793D01*
X0056316Y0204935D01*
X0057738Y0203514D01*
X0059595Y0202744D01*
X0061605Y0202744D01*
X0063463Y0203514D01*
X0064884Y0204935D01*
X0065654Y0206793D01*
X0065654Y0208803D01*
X0065110Y0210114D02*
X0099612Y0210114D01*
X0099612Y0211713D02*
X0063832Y0211713D01*
X0065654Y0206917D02*
X0068685Y0206917D01*
X0066724Y0205319D02*
X0065043Y0205319D01*
X0066015Y0203720D02*
X0063670Y0203720D01*
X0065875Y0202122D02*
X0043662Y0202122D01*
X0043662Y0201372D02*
X0042892Y0199514D01*
X0041471Y0198093D01*
X0039613Y0197323D01*
X0037603Y0197323D01*
X0035745Y0198093D01*
X0034324Y0199514D01*
X0033554Y0201372D01*
X0033554Y0203382D01*
X0034324Y0205239D01*
X0035745Y0206661D01*
X0037603Y0207430D01*
X0039613Y0207430D01*
X0041471Y0206661D01*
X0042892Y0205239D01*
X0043662Y0203382D01*
X0043662Y0201372D01*
X0043310Y0200523D02*
X0066226Y0200523D01*
X0067234Y0198925D02*
X0042303Y0198925D01*
X0039620Y0197326D02*
X0069916Y0197326D01*
X0071941Y0197326D02*
X0075330Y0197326D01*
X0073358Y0195728D02*
X0036179Y0195728D01*
X0036892Y0194129D02*
X0072644Y0194129D01*
X0072501Y0192531D02*
X0037036Y0192531D01*
X0036688Y0190932D02*
X0072849Y0190932D01*
X0073852Y0189334D02*
X0066310Y0189334D01*
X0060943Y0189334D02*
X0035685Y0189334D01*
X0033014Y0187735D02*
X0059776Y0187735D01*
X0057674Y0176546D02*
X0032549Y0176546D01*
X0032745Y0174947D02*
X0015576Y0174947D01*
X0015633Y0173349D02*
X0030622Y0173349D01*
X0029846Y0171750D02*
X0015633Y0171750D01*
X0015633Y0170152D02*
X0029659Y0170152D01*
X0029963Y0168553D02*
X0015178Y0168553D01*
X0014264Y0166955D02*
X0030903Y0166955D01*
X0028603Y0176546D02*
X0015633Y0176546D01*
X0015057Y0189334D02*
X0028279Y0189334D01*
X0027276Y0190932D02*
X0013108Y0190932D01*
X0009924Y0192531D02*
X0026928Y0192531D01*
X0027072Y0194129D02*
X0009924Y0194129D01*
X0009924Y0195728D02*
X0027785Y0195728D01*
X0029758Y0197326D02*
X0009924Y0197326D01*
X0009924Y0198925D02*
X0034913Y0198925D01*
X0034206Y0197326D02*
X0037596Y0197326D01*
X0033906Y0200523D02*
X0009924Y0200523D01*
X0009924Y0202122D02*
X0033554Y0202122D01*
X0033695Y0203720D02*
X0009924Y0203720D01*
X0009924Y0205319D02*
X0034403Y0205319D01*
X0036364Y0206917D02*
X0009924Y0206917D01*
X0009924Y0208516D02*
X0018453Y0208516D01*
X0018538Y0208485D02*
X0020876Y0208485D01*
X0022100Y0208485D01*
X0022100Y0208485D01*
X0025447Y0209703D01*
X0025447Y0209703D01*
X0028176Y0211992D01*
X0028176Y0211992D01*
X0028176Y0211992D01*
X0029957Y0215077D01*
X0030575Y0218585D01*
X0029957Y0222092D01*
X0029957Y0222092D01*
X0028176Y0225177D01*
X0025447Y0227467D01*
X0022100Y0228685D01*
X0018538Y0228685D01*
X0015192Y0227467D01*
X0015191Y0227467D01*
X0012463Y0225177D01*
X0010682Y0222092D01*
X0010064Y0218585D01*
X0010682Y0215077D01*
X0012463Y0211992D01*
X0015191Y0209703D01*
X0015192Y0209703D01*
X0018538Y0208485D01*
X0014701Y0210114D02*
X0009924Y0210114D01*
X0009924Y0211713D02*
X0012796Y0211713D01*
X0012463Y0211992D02*
X0012463Y0211992D01*
X0011701Y0213311D02*
X0009924Y0213311D01*
X0009924Y0214910D02*
X0010779Y0214910D01*
X0010682Y0215077D02*
X0010682Y0215077D01*
X0010430Y0216508D02*
X0009924Y0216508D01*
X0009924Y0218107D02*
X0010148Y0218107D01*
X0010064Y0218585D02*
X0010064Y0218585D01*
X0009924Y0219705D02*
X0010261Y0219705D01*
X0010543Y0221304D02*
X0009924Y0221304D01*
X0010682Y0222092D02*
X0010682Y0222092D01*
X0011150Y0222903D02*
X0009924Y0222903D01*
X0009924Y0224501D02*
X0012073Y0224501D01*
X0012463Y0225177D02*
X0012463Y0225177D01*
X0012463Y0225177D01*
X0013562Y0226100D02*
X0009924Y0226100D01*
X0009924Y0227698D02*
X0015828Y0227698D01*
X0024811Y0227698D02*
X0099612Y0227698D01*
X0099612Y0226100D02*
X0027076Y0226100D01*
X0028176Y0225177D02*
X0028176Y0225177D01*
X0028566Y0224501D02*
X0099612Y0224501D01*
X0099612Y0222903D02*
X0029489Y0222903D01*
X0030096Y0221304D02*
X0099612Y0221304D01*
X0099612Y0219705D02*
X0030378Y0219705D01*
X0030575Y0218585D02*
X0030575Y0218585D01*
X0030491Y0218107D02*
X0099612Y0218107D01*
X0099612Y0216508D02*
X0030209Y0216508D01*
X0029957Y0215077D02*
X0029957Y0215077D01*
X0029860Y0214910D02*
X0099612Y0214910D01*
X0099612Y0213311D02*
X0028937Y0213311D01*
X0027843Y0211713D02*
X0045705Y0211713D01*
X0046074Y0212082D02*
X0044652Y0210660D01*
X0043883Y0208803D01*
X0043883Y0206793D01*
X0044652Y0204935D01*
X0046074Y0203514D01*
X0047931Y0202744D01*
X0049942Y0202744D01*
X0051799Y0203514D01*
X0053221Y0204935D01*
X0053990Y0206793D01*
X0053990Y0208803D01*
X0053221Y0210660D01*
X0051799Y0212082D01*
X0049942Y0212851D01*
X0047931Y0212851D01*
X0046074Y0212082D01*
X0044426Y0210114D02*
X0025938Y0210114D01*
X0022186Y0208516D02*
X0043883Y0208516D01*
X0043883Y0206917D02*
X0040852Y0206917D01*
X0042813Y0205319D02*
X0044493Y0205319D01*
X0043521Y0203720D02*
X0045867Y0203720D01*
X0052006Y0203720D02*
X0057531Y0203720D01*
X0056157Y0205319D02*
X0053379Y0205319D01*
X0053990Y0206917D02*
X0055547Y0206917D01*
X0055547Y0208516D02*
X0053990Y0208516D01*
X0053447Y0210114D02*
X0056090Y0210114D01*
X0057369Y0211713D02*
X0052168Y0211713D01*
X0067901Y0174947D02*
X0072857Y0174947D01*
X0070734Y0173349D02*
X0068712Y0173349D01*
X0068792Y0171750D02*
X0069958Y0171750D01*
X0080933Y0176546D02*
X0084691Y0176546D01*
X0083092Y0178144D02*
X0083053Y0178144D01*
X0085073Y0162506D02*
X0085073Y0162506D01*
X0094871Y0144575D02*
X0095271Y0144575D01*
X0052993Y0104613D02*
X0043893Y0104613D01*
X0061057Y0066248D02*
X0099612Y0066248D01*
X0099612Y0064650D02*
X0072763Y0064650D01*
X0073694Y0063051D02*
X0099612Y0063051D01*
X0099612Y0061453D02*
X0073694Y0061453D01*
X0073694Y0058256D02*
X0090016Y0058256D01*
X0089799Y0050263D02*
X0073694Y0050263D01*
X0073694Y0047066D02*
X0092093Y0047066D01*
X0099612Y0048665D02*
X0069815Y0048665D01*
X0099612Y0031081D02*
X0027167Y0031081D01*
X0027167Y0029483D02*
X0099612Y0029483D01*
X0099612Y0027884D02*
X0026547Y0027884D01*
X0046994Y0158962D02*
X0049715Y0158962D01*
X0049715Y0160561D02*
X0048086Y0160561D01*
X0048497Y0162159D02*
X0050289Y0162159D01*
X0051613Y0163758D02*
X0048416Y0163758D01*
X0025447Y0227467D02*
X0025447Y0227467D01*
D18*
X0041973Y0191026D03*
X0043941Y0172325D03*
X0064611Y0172325D03*
X0063627Y0186104D03*
X0067564Y0136892D03*
X0054768Y0117207D03*
X0050831Y0105396D03*
X0055752Y0101459D03*
X0062642Y0101459D03*
X0064611Y0105396D03*
X0069532Y0102443D03*
X0071501Y0089648D03*
X0072485Y0078821D03*
X0070516Y0071931D03*
X0062642Y0070947D03*
X0053784Y0077837D03*
X0052800Y0071931D03*
X0059689Y0054215D03*
X0062642Y0041419D03*
X0036067Y0050278D03*
X0042957Y0100475D03*
X0035083Y0105396D03*
X0019335Y0105396D03*
X0020319Y0136892D03*
X0036067Y0136892D03*
X0051815Y0136892D03*
X0083312Y0136892D03*
X0099060Y0136892D03*
X0099060Y0142797D03*
X0098075Y0105396D03*
X0082327Y0105396D03*
X0091186Y0054215D03*
X0094138Y0043388D03*
X0011461Y0187089D03*
D19*
X0011461Y0179057D01*
X0011264Y0178860D01*
X0011264Y0172167D02*
X0011264Y0096695D01*
X0017367Y0090593D01*
X0017721Y0070947D02*
X0017367Y0070593D01*
X0017721Y0070947D02*
X0034099Y0070947D01*
X0040004Y0076852D01*
X0040004Y0109333D01*
X0032130Y0114254D01*
X0032130Y0161498D01*
X0043941Y0169372D01*
X0043941Y0172325D01*
X0060674Y0156577D02*
X0054768Y0150671D01*
X0054768Y0117207D01*
X0055752Y0101459D02*
X0059689Y0099490D01*
X0059689Y0095715D01*
X0059528Y0095553D01*
X0062642Y0095589D02*
X0062678Y0095553D01*
X0062642Y0095589D02*
X0062642Y0101459D01*
X0066123Y0095553D02*
X0069532Y0098963D01*
X0069532Y0102443D01*
X0072485Y0090632D02*
X0071501Y0089648D01*
X0072485Y0090632D02*
X0072485Y0163467D01*
X0064611Y0171341D01*
X0064611Y0172325D01*
X0060674Y0184136D02*
X0063627Y0186104D01*
X0060674Y0184136D02*
X0060674Y0156577D01*
X0078960Y0181199D02*
X0084280Y0181199D01*
X0099060Y0166419D01*
X0099060Y0142797D01*
X0066123Y0089648D02*
X0066123Y0085183D01*
X0072485Y0078821D01*
X0070516Y0071931D02*
X0062678Y0079770D01*
X0062678Y0089648D01*
X0059528Y0089648D02*
X0059528Y0078660D01*
X0052800Y0071931D01*
X0053784Y0077837D02*
X0056083Y0080136D01*
X0056083Y0089648D01*
X0056083Y0095553D02*
X0051162Y0100475D01*
X0042957Y0100475D01*
X0062642Y0070947D02*
X0047367Y0060593D01*
X0017367Y0060593D01*
X0055949Y0060120D02*
X0055949Y0048309D01*
X0055949Y0050475D01*
X0059689Y0054215D01*
X0065595Y0054215D02*
X0062642Y0060120D01*
X0065595Y0054215D02*
X0091186Y0054215D01*
X0094138Y0043388D02*
X0065595Y0043388D01*
X0064611Y0044372D01*
X0064611Y0046341D01*
X0062642Y0048309D01*
X0062642Y0041419D02*
X0062642Y0036498D01*
X0055949Y0036498D02*
X0055949Y0048309D01*
M02*
