%
M48
M72
T01C0.02362
T02C0.03307
T03C0.04000
T04C0.13000
%
T01
X11461Y187089
X41973Y191026
X43941Y172325
X64611Y172325
X63627Y186104
X83312Y136892
X99060Y136892
X99060Y142797
X98075Y105396
X82327Y105396
X71501Y89648
X72485Y78821
X70516Y71931
X62642Y70947
X53784Y77837
X52800Y71931
X59689Y54215
X62642Y41419
X36067Y50278
X42957Y100475
X35083Y105396
X19335Y105396
X20319Y136892
X36067Y136892
X51815Y136892
X54768Y117207
X50831Y105396
X55752Y101459
X62642Y101459
X64611Y105396
X69532Y102443
X67564Y136892
X91186Y54215
X94138Y43388
T02
X74824Y170292
X78960Y181199
X77554Y192778
X70928Y202377
X60600Y207798
X48936Y207798
X38608Y202377
X31982Y192778
X30576Y181199
X34712Y170292
X43443Y162558
X54768Y159766
X66093Y162558
T03
X17367Y90593
X17367Y80593
X17367Y70593
X17367Y60593
X17367Y50593
X17367Y40593
X17367Y30593
T04
X90201Y153624
X20319Y218585
M30
