G75*
%MOIN*%
%OFA0B0*%
%FSLAX25Y25*%
%IPPOS*%
%LPD*%
%AMOC8*
5,1,8,0,0,1.08239X$1,22.5*
%
%ADD10C,0.00000*%
%ADD11C,0.05307*%
%ADD12R,0.05512X0.03937*%
%ADD13R,0.02200X0.09000*%
%ADD14R,0.03937X0.05512*%
%ADD15R,0.05906X0.03543*%
%ADD16C,0.07400*%
%ADD17C,0.07400*%
%ADD18R,0.02362X0.03150*%
%ADD19R,0.01969X0.03150*%
%ADD20R,0.04331X0.03937*%
%ADD21C,0.03562*%
%ADD22C,0.01000*%
%ADD23C,0.01200*%
%ADD24C,0.01600*%
D10*
X0007524Y0003094D02*
X0007524Y0199944D01*
X0145319Y0199944D01*
X0145319Y0003094D01*
X0007524Y0003094D01*
X0127008Y0014905D02*
X0127010Y0015066D01*
X0127016Y0015226D01*
X0127026Y0015387D01*
X0127040Y0015547D01*
X0127058Y0015707D01*
X0127079Y0015866D01*
X0127105Y0016025D01*
X0127135Y0016183D01*
X0127168Y0016340D01*
X0127206Y0016497D01*
X0127247Y0016652D01*
X0127292Y0016806D01*
X0127341Y0016959D01*
X0127394Y0017111D01*
X0127450Y0017262D01*
X0127511Y0017411D01*
X0127574Y0017559D01*
X0127642Y0017705D01*
X0127713Y0017849D01*
X0127787Y0017991D01*
X0127865Y0018132D01*
X0127947Y0018270D01*
X0128032Y0018407D01*
X0128120Y0018541D01*
X0128212Y0018673D01*
X0128307Y0018803D01*
X0128405Y0018931D01*
X0128506Y0019056D01*
X0128610Y0019178D01*
X0128717Y0019298D01*
X0128827Y0019415D01*
X0128940Y0019530D01*
X0129056Y0019641D01*
X0129175Y0019750D01*
X0129296Y0019855D01*
X0129420Y0019958D01*
X0129546Y0020058D01*
X0129674Y0020154D01*
X0129805Y0020247D01*
X0129939Y0020337D01*
X0130074Y0020424D01*
X0130212Y0020507D01*
X0130351Y0020587D01*
X0130493Y0020663D01*
X0130636Y0020736D01*
X0130781Y0020805D01*
X0130928Y0020871D01*
X0131076Y0020933D01*
X0131226Y0020991D01*
X0131377Y0021046D01*
X0131530Y0021097D01*
X0131684Y0021144D01*
X0131839Y0021187D01*
X0131995Y0021226D01*
X0132151Y0021262D01*
X0132309Y0021293D01*
X0132467Y0021321D01*
X0132626Y0021345D01*
X0132786Y0021365D01*
X0132946Y0021381D01*
X0133106Y0021393D01*
X0133267Y0021401D01*
X0133428Y0021405D01*
X0133588Y0021405D01*
X0133749Y0021401D01*
X0133910Y0021393D01*
X0134070Y0021381D01*
X0134230Y0021365D01*
X0134390Y0021345D01*
X0134549Y0021321D01*
X0134707Y0021293D01*
X0134865Y0021262D01*
X0135021Y0021226D01*
X0135177Y0021187D01*
X0135332Y0021144D01*
X0135486Y0021097D01*
X0135639Y0021046D01*
X0135790Y0020991D01*
X0135940Y0020933D01*
X0136088Y0020871D01*
X0136235Y0020805D01*
X0136380Y0020736D01*
X0136523Y0020663D01*
X0136665Y0020587D01*
X0136804Y0020507D01*
X0136942Y0020424D01*
X0137077Y0020337D01*
X0137211Y0020247D01*
X0137342Y0020154D01*
X0137470Y0020058D01*
X0137596Y0019958D01*
X0137720Y0019855D01*
X0137841Y0019750D01*
X0137960Y0019641D01*
X0138076Y0019530D01*
X0138189Y0019415D01*
X0138299Y0019298D01*
X0138406Y0019178D01*
X0138510Y0019056D01*
X0138611Y0018931D01*
X0138709Y0018803D01*
X0138804Y0018673D01*
X0138896Y0018541D01*
X0138984Y0018407D01*
X0139069Y0018270D01*
X0139151Y0018132D01*
X0139229Y0017991D01*
X0139303Y0017849D01*
X0139374Y0017705D01*
X0139442Y0017559D01*
X0139505Y0017411D01*
X0139566Y0017262D01*
X0139622Y0017111D01*
X0139675Y0016959D01*
X0139724Y0016806D01*
X0139769Y0016652D01*
X0139810Y0016497D01*
X0139848Y0016340D01*
X0139881Y0016183D01*
X0139911Y0016025D01*
X0139937Y0015866D01*
X0139958Y0015707D01*
X0139976Y0015547D01*
X0139990Y0015387D01*
X0140000Y0015226D01*
X0140006Y0015066D01*
X0140008Y0014905D01*
X0140006Y0014744D01*
X0140000Y0014584D01*
X0139990Y0014423D01*
X0139976Y0014263D01*
X0139958Y0014103D01*
X0139937Y0013944D01*
X0139911Y0013785D01*
X0139881Y0013627D01*
X0139848Y0013470D01*
X0139810Y0013313D01*
X0139769Y0013158D01*
X0139724Y0013004D01*
X0139675Y0012851D01*
X0139622Y0012699D01*
X0139566Y0012548D01*
X0139505Y0012399D01*
X0139442Y0012251D01*
X0139374Y0012105D01*
X0139303Y0011961D01*
X0139229Y0011819D01*
X0139151Y0011678D01*
X0139069Y0011540D01*
X0138984Y0011403D01*
X0138896Y0011269D01*
X0138804Y0011137D01*
X0138709Y0011007D01*
X0138611Y0010879D01*
X0138510Y0010754D01*
X0138406Y0010632D01*
X0138299Y0010512D01*
X0138189Y0010395D01*
X0138076Y0010280D01*
X0137960Y0010169D01*
X0137841Y0010060D01*
X0137720Y0009955D01*
X0137596Y0009852D01*
X0137470Y0009752D01*
X0137342Y0009656D01*
X0137211Y0009563D01*
X0137077Y0009473D01*
X0136942Y0009386D01*
X0136804Y0009303D01*
X0136665Y0009223D01*
X0136523Y0009147D01*
X0136380Y0009074D01*
X0136235Y0009005D01*
X0136088Y0008939D01*
X0135940Y0008877D01*
X0135790Y0008819D01*
X0135639Y0008764D01*
X0135486Y0008713D01*
X0135332Y0008666D01*
X0135177Y0008623D01*
X0135021Y0008584D01*
X0134865Y0008548D01*
X0134707Y0008517D01*
X0134549Y0008489D01*
X0134390Y0008465D01*
X0134230Y0008445D01*
X0134070Y0008429D01*
X0133910Y0008417D01*
X0133749Y0008409D01*
X0133588Y0008405D01*
X0133428Y0008405D01*
X0133267Y0008409D01*
X0133106Y0008417D01*
X0132946Y0008429D01*
X0132786Y0008445D01*
X0132626Y0008465D01*
X0132467Y0008489D01*
X0132309Y0008517D01*
X0132151Y0008548D01*
X0131995Y0008584D01*
X0131839Y0008623D01*
X0131684Y0008666D01*
X0131530Y0008713D01*
X0131377Y0008764D01*
X0131226Y0008819D01*
X0131076Y0008877D01*
X0130928Y0008939D01*
X0130781Y0009005D01*
X0130636Y0009074D01*
X0130493Y0009147D01*
X0130351Y0009223D01*
X0130212Y0009303D01*
X0130074Y0009386D01*
X0129939Y0009473D01*
X0129805Y0009563D01*
X0129674Y0009656D01*
X0129546Y0009752D01*
X0129420Y0009852D01*
X0129296Y0009955D01*
X0129175Y0010060D01*
X0129056Y0010169D01*
X0128940Y0010280D01*
X0128827Y0010395D01*
X0128717Y0010512D01*
X0128610Y0010632D01*
X0128506Y0010754D01*
X0128405Y0010879D01*
X0128307Y0011007D01*
X0128212Y0011137D01*
X0128120Y0011269D01*
X0128032Y0011403D01*
X0127947Y0011540D01*
X0127865Y0011678D01*
X0127787Y0011819D01*
X0127713Y0011961D01*
X0127642Y0012105D01*
X0127574Y0012251D01*
X0127511Y0012399D01*
X0127450Y0012548D01*
X0127394Y0012699D01*
X0127341Y0012851D01*
X0127292Y0013004D01*
X0127247Y0013158D01*
X0127206Y0013313D01*
X0127168Y0013470D01*
X0127135Y0013627D01*
X0127105Y0013785D01*
X0127079Y0013944D01*
X0127058Y0014103D01*
X0127040Y0014263D01*
X0127026Y0014423D01*
X0127016Y0014584D01*
X0127010Y0014744D01*
X0127008Y0014905D01*
X0012835Y0188133D02*
X0012837Y0188294D01*
X0012843Y0188454D01*
X0012853Y0188615D01*
X0012867Y0188775D01*
X0012885Y0188935D01*
X0012906Y0189094D01*
X0012932Y0189253D01*
X0012962Y0189411D01*
X0012995Y0189568D01*
X0013033Y0189725D01*
X0013074Y0189880D01*
X0013119Y0190034D01*
X0013168Y0190187D01*
X0013221Y0190339D01*
X0013277Y0190490D01*
X0013338Y0190639D01*
X0013401Y0190787D01*
X0013469Y0190933D01*
X0013540Y0191077D01*
X0013614Y0191219D01*
X0013692Y0191360D01*
X0013774Y0191498D01*
X0013859Y0191635D01*
X0013947Y0191769D01*
X0014039Y0191901D01*
X0014134Y0192031D01*
X0014232Y0192159D01*
X0014333Y0192284D01*
X0014437Y0192406D01*
X0014544Y0192526D01*
X0014654Y0192643D01*
X0014767Y0192758D01*
X0014883Y0192869D01*
X0015002Y0192978D01*
X0015123Y0193083D01*
X0015247Y0193186D01*
X0015373Y0193286D01*
X0015501Y0193382D01*
X0015632Y0193475D01*
X0015766Y0193565D01*
X0015901Y0193652D01*
X0016039Y0193735D01*
X0016178Y0193815D01*
X0016320Y0193891D01*
X0016463Y0193964D01*
X0016608Y0194033D01*
X0016755Y0194099D01*
X0016903Y0194161D01*
X0017053Y0194219D01*
X0017204Y0194274D01*
X0017357Y0194325D01*
X0017511Y0194372D01*
X0017666Y0194415D01*
X0017822Y0194454D01*
X0017978Y0194490D01*
X0018136Y0194521D01*
X0018294Y0194549D01*
X0018453Y0194573D01*
X0018613Y0194593D01*
X0018773Y0194609D01*
X0018933Y0194621D01*
X0019094Y0194629D01*
X0019255Y0194633D01*
X0019415Y0194633D01*
X0019576Y0194629D01*
X0019737Y0194621D01*
X0019897Y0194609D01*
X0020057Y0194593D01*
X0020217Y0194573D01*
X0020376Y0194549D01*
X0020534Y0194521D01*
X0020692Y0194490D01*
X0020848Y0194454D01*
X0021004Y0194415D01*
X0021159Y0194372D01*
X0021313Y0194325D01*
X0021466Y0194274D01*
X0021617Y0194219D01*
X0021767Y0194161D01*
X0021915Y0194099D01*
X0022062Y0194033D01*
X0022207Y0193964D01*
X0022350Y0193891D01*
X0022492Y0193815D01*
X0022631Y0193735D01*
X0022769Y0193652D01*
X0022904Y0193565D01*
X0023038Y0193475D01*
X0023169Y0193382D01*
X0023297Y0193286D01*
X0023423Y0193186D01*
X0023547Y0193083D01*
X0023668Y0192978D01*
X0023787Y0192869D01*
X0023903Y0192758D01*
X0024016Y0192643D01*
X0024126Y0192526D01*
X0024233Y0192406D01*
X0024337Y0192284D01*
X0024438Y0192159D01*
X0024536Y0192031D01*
X0024631Y0191901D01*
X0024723Y0191769D01*
X0024811Y0191635D01*
X0024896Y0191498D01*
X0024978Y0191360D01*
X0025056Y0191219D01*
X0025130Y0191077D01*
X0025201Y0190933D01*
X0025269Y0190787D01*
X0025332Y0190639D01*
X0025393Y0190490D01*
X0025449Y0190339D01*
X0025502Y0190187D01*
X0025551Y0190034D01*
X0025596Y0189880D01*
X0025637Y0189725D01*
X0025675Y0189568D01*
X0025708Y0189411D01*
X0025738Y0189253D01*
X0025764Y0189094D01*
X0025785Y0188935D01*
X0025803Y0188775D01*
X0025817Y0188615D01*
X0025827Y0188454D01*
X0025833Y0188294D01*
X0025835Y0188133D01*
X0025833Y0187972D01*
X0025827Y0187812D01*
X0025817Y0187651D01*
X0025803Y0187491D01*
X0025785Y0187331D01*
X0025764Y0187172D01*
X0025738Y0187013D01*
X0025708Y0186855D01*
X0025675Y0186698D01*
X0025637Y0186541D01*
X0025596Y0186386D01*
X0025551Y0186232D01*
X0025502Y0186079D01*
X0025449Y0185927D01*
X0025393Y0185776D01*
X0025332Y0185627D01*
X0025269Y0185479D01*
X0025201Y0185333D01*
X0025130Y0185189D01*
X0025056Y0185047D01*
X0024978Y0184906D01*
X0024896Y0184768D01*
X0024811Y0184631D01*
X0024723Y0184497D01*
X0024631Y0184365D01*
X0024536Y0184235D01*
X0024438Y0184107D01*
X0024337Y0183982D01*
X0024233Y0183860D01*
X0024126Y0183740D01*
X0024016Y0183623D01*
X0023903Y0183508D01*
X0023787Y0183397D01*
X0023668Y0183288D01*
X0023547Y0183183D01*
X0023423Y0183080D01*
X0023297Y0182980D01*
X0023169Y0182884D01*
X0023038Y0182791D01*
X0022904Y0182701D01*
X0022769Y0182614D01*
X0022631Y0182531D01*
X0022492Y0182451D01*
X0022350Y0182375D01*
X0022207Y0182302D01*
X0022062Y0182233D01*
X0021915Y0182167D01*
X0021767Y0182105D01*
X0021617Y0182047D01*
X0021466Y0181992D01*
X0021313Y0181941D01*
X0021159Y0181894D01*
X0021004Y0181851D01*
X0020848Y0181812D01*
X0020692Y0181776D01*
X0020534Y0181745D01*
X0020376Y0181717D01*
X0020217Y0181693D01*
X0020057Y0181673D01*
X0019897Y0181657D01*
X0019737Y0181645D01*
X0019576Y0181637D01*
X0019415Y0181633D01*
X0019255Y0181633D01*
X0019094Y0181637D01*
X0018933Y0181645D01*
X0018773Y0181657D01*
X0018613Y0181673D01*
X0018453Y0181693D01*
X0018294Y0181717D01*
X0018136Y0181745D01*
X0017978Y0181776D01*
X0017822Y0181812D01*
X0017666Y0181851D01*
X0017511Y0181894D01*
X0017357Y0181941D01*
X0017204Y0181992D01*
X0017053Y0182047D01*
X0016903Y0182105D01*
X0016755Y0182167D01*
X0016608Y0182233D01*
X0016463Y0182302D01*
X0016320Y0182375D01*
X0016178Y0182451D01*
X0016039Y0182531D01*
X0015901Y0182614D01*
X0015766Y0182701D01*
X0015632Y0182791D01*
X0015501Y0182884D01*
X0015373Y0182980D01*
X0015247Y0183080D01*
X0015123Y0183183D01*
X0015002Y0183288D01*
X0014883Y0183397D01*
X0014767Y0183508D01*
X0014654Y0183623D01*
X0014544Y0183740D01*
X0014437Y0183860D01*
X0014333Y0183982D01*
X0014232Y0184107D01*
X0014134Y0184235D01*
X0014039Y0184365D01*
X0013947Y0184497D01*
X0013859Y0184631D01*
X0013774Y0184768D01*
X0013692Y0184906D01*
X0013614Y0185047D01*
X0013540Y0185189D01*
X0013469Y0185333D01*
X0013401Y0185479D01*
X0013338Y0185627D01*
X0013277Y0185776D01*
X0013221Y0185927D01*
X0013168Y0186079D01*
X0013119Y0186232D01*
X0013074Y0186386D01*
X0013033Y0186541D01*
X0012995Y0186698D01*
X0012962Y0186855D01*
X0012932Y0187013D01*
X0012906Y0187172D01*
X0012885Y0187331D01*
X0012867Y0187491D01*
X0012853Y0187651D01*
X0012843Y0187812D01*
X0012837Y0187972D01*
X0012835Y0188133D01*
D11*
X0052230Y0149763D03*
X0053636Y0161342D03*
X0060262Y0170941D03*
X0070590Y0176362D03*
X0082254Y0176362D03*
X0092582Y0170941D03*
X0099208Y0161342D03*
X0100614Y0149763D03*
X0096478Y0138856D03*
X0087747Y0131122D03*
X0076422Y0128330D03*
X0065097Y0131122D03*
X0056366Y0138856D03*
D12*
X0041172Y0121880D03*
X0032511Y0125620D03*
X0032511Y0118140D03*
X0028500Y0134545D03*
X0028500Y0142026D03*
X0026408Y0150871D03*
X0026408Y0158351D03*
X0029826Y0166262D03*
X0029826Y0173742D03*
X0038488Y0170002D03*
X0040105Y0182637D03*
X0040105Y0190117D03*
X0048767Y0186377D03*
X0035069Y0154611D03*
X0037162Y0138285D03*
X0106303Y0115389D03*
X0114965Y0111649D03*
X0114965Y0119130D03*
X0122325Y0126788D03*
X0122325Y0134268D03*
X0113664Y0130528D03*
X0127114Y0146281D03*
X0127114Y0153761D03*
X0129901Y0161500D03*
X0129901Y0168980D03*
X0121239Y0165240D03*
X0117017Y0177293D03*
X0117017Y0184773D03*
X0108355Y0181033D03*
X0118453Y0150021D03*
D13*
X0101435Y0060914D03*
X0096435Y0060914D03*
X0091435Y0060914D03*
X0086435Y0060914D03*
X0081435Y0060914D03*
X0076435Y0060914D03*
X0071435Y0060914D03*
X0066435Y0060914D03*
X0061435Y0060914D03*
X0056435Y0060914D03*
X0051435Y0060914D03*
X0046435Y0060914D03*
X0041435Y0060914D03*
X0036435Y0060914D03*
X0036435Y0025314D03*
X0041435Y0025314D03*
X0046435Y0025314D03*
X0051435Y0025314D03*
X0056435Y0025314D03*
X0061435Y0025314D03*
X0066435Y0025314D03*
X0071435Y0025314D03*
X0076435Y0025314D03*
X0081435Y0025314D03*
X0086435Y0025314D03*
X0091435Y0025314D03*
X0096435Y0025314D03*
X0101435Y0025314D03*
D14*
X0100288Y0106072D03*
X0096548Y0114733D03*
X0092808Y0106072D03*
X0051812Y0106052D03*
X0048071Y0114714D03*
X0044331Y0106052D03*
D15*
X0066776Y0146204D03*
X0066776Y0159196D03*
X0086067Y0159196D03*
X0086067Y0146204D03*
D16*
X0021067Y0068999D02*
X0013667Y0068999D01*
X0013667Y0058999D02*
X0021067Y0058999D01*
X0021067Y0048999D02*
X0013667Y0048999D01*
X0013667Y0038999D02*
X0021067Y0038999D01*
X0021067Y0028999D02*
X0013667Y0028999D01*
X0013667Y0018999D02*
X0021067Y0018999D01*
X0021067Y0008999D02*
X0013667Y0008999D01*
D17*
X0057824Y0015594D03*
X0069224Y0015594D03*
D18*
X0071004Y0097818D03*
X0071004Y0103724D03*
X0081044Y0103724D03*
X0081044Y0097818D03*
X0127504Y0097818D03*
X0127504Y0103724D03*
X0137544Y0103724D03*
X0137544Y0097818D03*
X0022504Y0097818D03*
X0022504Y0103724D03*
X0012465Y0103724D03*
X0012465Y0097818D03*
D19*
X0015910Y0097818D03*
X0019060Y0097818D03*
X0019060Y0103724D03*
X0015910Y0103724D03*
X0074449Y0103724D03*
X0077599Y0103724D03*
X0077599Y0097818D03*
X0074449Y0097818D03*
X0130949Y0097818D03*
X0134099Y0097818D03*
X0134099Y0103724D03*
X0130949Y0103724D03*
D20*
X0075871Y0113094D03*
X0069178Y0113094D03*
X0068178Y0078094D03*
X0074871Y0078094D03*
D21*
X0076524Y0069594D03*
X0082721Y0073566D03*
X0082524Y0083094D03*
X0095319Y0072779D03*
X0104331Y0070629D03*
X0107544Y0105263D03*
X0107918Y0124747D03*
X0115792Y0139708D03*
X0117524Y0158094D03*
X0125355Y0173491D03*
X0125516Y0183015D03*
X0082524Y0153094D03*
X0067524Y0153094D03*
X0067024Y0141094D03*
X0082524Y0118094D03*
X0061024Y0112094D03*
X0055162Y0113724D03*
X0040201Y0115299D03*
X0038627Y0129472D03*
X0035524Y0146594D03*
X0036264Y0163330D03*
X0044138Y0175141D03*
X0064524Y0084094D03*
X0078024Y0015594D03*
X0085221Y0015799D03*
D22*
X0100172Y0104004D02*
X0100172Y0105304D01*
X0100288Y0106072D01*
X0112772Y0119704D02*
X0108272Y0124204D01*
X0107918Y0124747D01*
X0112772Y0119704D02*
X0114572Y0119704D01*
X0114965Y0119130D01*
X0122325Y0134268D02*
X0121772Y0135004D01*
X0116372Y0140404D01*
X0115792Y0139708D01*
X0055162Y0113724D02*
X0054272Y0113404D01*
X0052472Y0111604D01*
X0052472Y0106204D01*
X0051812Y0106052D01*
X0040201Y0115299D02*
X0039872Y0116104D01*
X0038072Y0117904D01*
X0032672Y0117904D01*
X0032511Y0118140D01*
X0038072Y0129604D02*
X0038627Y0129472D01*
X0038072Y0129604D02*
X0033572Y0134104D01*
X0029072Y0134104D01*
X0028500Y0134545D01*
X0036264Y0163330D02*
X0035372Y0163804D01*
X0033572Y0165604D01*
X0029972Y0165604D01*
X0029826Y0166262D01*
X0040072Y0178404D02*
X0040105Y0182637D01*
X0040072Y0178404D02*
X0042572Y0176404D01*
X0043472Y0175504D01*
X0044138Y0175141D01*
D23*
X0038488Y0170002D02*
X0057423Y0170002D01*
X0060262Y0170941D01*
X0053636Y0161342D02*
X0046119Y0154611D01*
X0035069Y0154611D01*
X0031247Y0150871D02*
X0035524Y0146594D01*
X0031247Y0150871D02*
X0026408Y0150871D01*
X0026151Y0158094D02*
X0022524Y0158094D01*
X0019060Y0154629D01*
X0019060Y0103724D01*
X0015910Y0103724D02*
X0015910Y0161480D01*
X0027524Y0173094D01*
X0029178Y0173094D01*
X0029826Y0173742D01*
X0026408Y0158351D02*
X0026151Y0158094D01*
X0028500Y0142026D02*
X0022524Y0138094D01*
X0022504Y0103724D01*
X0022504Y0097818D02*
X0022504Y0093114D01*
X0041024Y0075094D01*
X0048524Y0075094D01*
X0051435Y0072183D01*
X0051435Y0060914D01*
X0046524Y0061003D02*
X0046435Y0060914D01*
X0046524Y0061003D02*
X0046524Y0070594D01*
X0045524Y0071594D01*
X0038524Y0071594D01*
X0019060Y0091058D01*
X0019060Y0097818D01*
X0015910Y0097818D02*
X0015910Y0089708D01*
X0037524Y0068094D01*
X0041024Y0068094D01*
X0041435Y0067683D01*
X0041435Y0060914D01*
X0036435Y0060914D02*
X0036435Y0064183D01*
X0012465Y0088153D01*
X0012465Y0097818D01*
X0012465Y0103724D02*
X0012465Y0168035D01*
X0012524Y0168094D02*
X0034548Y0190117D01*
X0040105Y0190117D01*
X0048767Y0186377D02*
X0055297Y0186377D01*
X0070590Y0176362D01*
X0082254Y0176362D02*
X0086139Y0181033D01*
X0108355Y0181033D01*
X0117017Y0177293D02*
X0133325Y0177293D01*
X0137524Y0173094D01*
X0137524Y0103743D01*
X0137544Y0103724D01*
X0134099Y0103724D02*
X0134099Y0157302D01*
X0129901Y0161500D01*
X0122782Y0158094D02*
X0127114Y0153761D01*
X0122782Y0158094D02*
X0117524Y0158094D01*
X0121239Y0165240D02*
X0105378Y0165240D01*
X0102524Y0168094D01*
X0095429Y0168094D01*
X0092582Y0170941D01*
X0099208Y0161342D02*
X0107132Y0161342D01*
X0118453Y0150021D01*
X0127114Y0146281D02*
X0127524Y0145871D01*
X0127524Y0145094D01*
X0130949Y0141669D01*
X0130949Y0103724D01*
X0127504Y0103724D02*
X0127504Y0123074D01*
X0127524Y0123094D01*
X0124009Y0126609D01*
X0122504Y0126609D01*
X0113664Y0130528D02*
X0100614Y0143578D01*
X0100614Y0149763D01*
X0096478Y0138856D02*
X0103524Y0131810D01*
X0103524Y0120594D01*
X0103729Y0120389D01*
X0106303Y0115389D01*
X0107544Y0105263D02*
X0106285Y0104004D01*
X0100172Y0104004D01*
X0092808Y0106072D02*
X0091286Y0111094D01*
X0081524Y0111094D01*
X0077599Y0108169D01*
X0077599Y0103724D01*
X0074449Y0103724D02*
X0074449Y0106169D01*
X0072524Y0108094D01*
X0062524Y0108094D01*
X0052524Y0098094D01*
X0047524Y0098094D01*
X0044331Y0101287D01*
X0044331Y0106052D01*
X0048071Y0114714D02*
X0052796Y0119606D01*
X0065097Y0131122D01*
X0067024Y0141094D02*
X0067024Y0145956D01*
X0066776Y0146204D01*
X0067524Y0153094D02*
X0067524Y0159196D01*
X0066776Y0159196D01*
X0052230Y0149763D02*
X0041542Y0139860D01*
X0037162Y0138285D01*
X0032511Y0125620D02*
X0030050Y0125620D01*
X0027524Y0123094D01*
X0027524Y0108094D01*
X0042524Y0093094D01*
X0052524Y0093094D01*
X0062524Y0103094D01*
X0070375Y0103094D01*
X0071004Y0103724D01*
X0071004Y0097818D02*
X0062249Y0097818D01*
X0052524Y0088094D01*
X0052524Y0083094D01*
X0056435Y0079183D01*
X0056435Y0060914D01*
X0061435Y0060914D02*
X0061435Y0079183D01*
X0057524Y0083094D01*
X0057524Y0088094D01*
X0062524Y0093094D01*
X0072524Y0093094D01*
X0074449Y0095019D01*
X0074449Y0097818D01*
X0077599Y0097818D02*
X0077599Y0093019D01*
X0082524Y0088094D01*
X0107524Y0088094D01*
X0109099Y0086519D01*
X0109099Y0057169D01*
X0106024Y0054275D01*
X0042524Y0054275D01*
X0036435Y0047005D01*
X0036435Y0025314D01*
X0041435Y0025314D02*
X0041435Y0042005D01*
X0050024Y0050338D01*
X0111524Y0050338D01*
X0112024Y0051094D01*
X0112544Y0051614D01*
X0112544Y0088074D01*
X0107524Y0093094D01*
X0085768Y0093094D01*
X0081044Y0097818D01*
X0081044Y0103724D02*
X0081894Y0103724D01*
X0087524Y0098094D01*
X0112524Y0098094D01*
X0114965Y0100535D01*
X0114965Y0111649D01*
X0127504Y0097818D02*
X0127504Y0051574D01*
X0123524Y0046401D01*
X0054524Y0046401D01*
X0046435Y0039505D01*
X0046435Y0025314D01*
X0051435Y0025314D02*
X0051435Y0037505D01*
X0057524Y0042464D01*
X0125024Y0042464D01*
X0131024Y0049594D01*
X0131024Y0085066D01*
X0130949Y0097818D01*
X0134099Y0097818D02*
X0134099Y0046669D01*
X0128024Y0038527D01*
X0060024Y0038527D01*
X0056435Y0037005D01*
X0056435Y0025314D01*
X0061435Y0025314D02*
X0061435Y0034005D01*
X0064024Y0034590D01*
X0129024Y0034590D01*
X0136548Y0043884D01*
X0137544Y0044879D01*
X0137544Y0097818D01*
X0104331Y0070629D02*
X0101435Y0069025D01*
X0101435Y0060914D01*
X0096435Y0060914D02*
X0096435Y0071663D01*
X0095319Y0072779D01*
X0091435Y0071151D02*
X0089020Y0073566D01*
X0082721Y0073566D01*
X0085524Y0069594D02*
X0076524Y0069594D01*
X0074871Y0071247D01*
X0074871Y0078094D01*
X0079871Y0083094D01*
X0082524Y0083094D01*
X0091435Y0071151D02*
X0091435Y0060914D01*
X0086435Y0060914D02*
X0086024Y0061325D01*
X0086024Y0069094D01*
X0085524Y0069594D01*
X0068178Y0078094D02*
X0068524Y0080094D01*
X0064524Y0084094D01*
X0061024Y0112094D02*
X0068178Y0112094D01*
X0069178Y0113094D01*
X0075871Y0113094D02*
X0075871Y0127779D01*
X0076422Y0128330D01*
X0082524Y0118094D02*
X0082524Y0142661D01*
X0086067Y0146204D01*
X0082524Y0153094D02*
X0086067Y0156637D01*
X0086067Y0159196D01*
X0087747Y0131122D02*
X0094496Y0131122D01*
X0097524Y0128094D01*
X0097524Y0115709D01*
X0096548Y0114733D01*
X0056366Y0138856D02*
X0041172Y0124448D01*
X0041172Y0121880D01*
X0066435Y0025314D02*
X0066435Y0022005D01*
X0062524Y0018094D01*
X0060324Y0018094D01*
X0057824Y0015594D01*
X0069224Y0015594D02*
X0071435Y0017805D01*
X0071435Y0025314D01*
X0076435Y0025314D02*
X0076435Y0019183D01*
X0078024Y0015594D01*
X0081435Y0019585D02*
X0081435Y0025314D01*
X0081435Y0019585D02*
X0085221Y0015799D01*
X0086658Y0009787D02*
X0030831Y0009787D01*
X0022524Y0018094D01*
X0022024Y0018094D01*
X0017367Y0018999D01*
X0017367Y0008999D02*
X0021024Y0006637D01*
X0088233Y0006637D01*
X0096435Y0014839D01*
X0096435Y0025314D01*
X0091435Y0025314D02*
X0091435Y0014564D01*
X0086658Y0009787D01*
X0136548Y0043884D02*
X0137544Y0045114D01*
X0125516Y0183015D02*
X0123758Y0184773D01*
X0117017Y0184773D01*
D24*
X0125355Y0173491D02*
X0129866Y0168980D01*
X0129901Y0168980D01*
X0122325Y0126788D02*
X0122504Y0126609D01*
M02*
