G75*
%MOIN*%
%OFA0B0*%
%FSLAX25Y25*%
%IPPOS*%
%LPD*%
%AMOC8*
5,1,8,0,0,1.08239X$1,22.5*
%
%ADD10C,0.00000*%
%ADD11C,0.00300*%
%ADD12C,0.00400*%
%ADD13C,0.00600*%
%ADD14C,0.00591*%
%ADD15R,0.03000X0.01800*%
D10*
X0007524Y0024687D02*
X0007524Y0231380D01*
X0102012Y0231380D01*
X0102012Y0024687D01*
X0007524Y0024687D01*
X0083701Y0153624D02*
X0083703Y0153785D01*
X0083709Y0153945D01*
X0083719Y0154106D01*
X0083733Y0154266D01*
X0083751Y0154426D01*
X0083772Y0154585D01*
X0083798Y0154744D01*
X0083828Y0154902D01*
X0083861Y0155059D01*
X0083899Y0155216D01*
X0083940Y0155371D01*
X0083985Y0155525D01*
X0084034Y0155678D01*
X0084087Y0155830D01*
X0084143Y0155981D01*
X0084204Y0156130D01*
X0084267Y0156278D01*
X0084335Y0156424D01*
X0084406Y0156568D01*
X0084480Y0156710D01*
X0084558Y0156851D01*
X0084640Y0156989D01*
X0084725Y0157126D01*
X0084813Y0157260D01*
X0084905Y0157392D01*
X0085000Y0157522D01*
X0085098Y0157650D01*
X0085199Y0157775D01*
X0085303Y0157897D01*
X0085410Y0158017D01*
X0085520Y0158134D01*
X0085633Y0158249D01*
X0085749Y0158360D01*
X0085868Y0158469D01*
X0085989Y0158574D01*
X0086113Y0158677D01*
X0086239Y0158777D01*
X0086367Y0158873D01*
X0086498Y0158966D01*
X0086632Y0159056D01*
X0086767Y0159143D01*
X0086905Y0159226D01*
X0087044Y0159306D01*
X0087186Y0159382D01*
X0087329Y0159455D01*
X0087474Y0159524D01*
X0087621Y0159590D01*
X0087769Y0159652D01*
X0087919Y0159710D01*
X0088070Y0159765D01*
X0088223Y0159816D01*
X0088377Y0159863D01*
X0088532Y0159906D01*
X0088688Y0159945D01*
X0088844Y0159981D01*
X0089002Y0160012D01*
X0089160Y0160040D01*
X0089319Y0160064D01*
X0089479Y0160084D01*
X0089639Y0160100D01*
X0089799Y0160112D01*
X0089960Y0160120D01*
X0090121Y0160124D01*
X0090281Y0160124D01*
X0090442Y0160120D01*
X0090603Y0160112D01*
X0090763Y0160100D01*
X0090923Y0160084D01*
X0091083Y0160064D01*
X0091242Y0160040D01*
X0091400Y0160012D01*
X0091558Y0159981D01*
X0091714Y0159945D01*
X0091870Y0159906D01*
X0092025Y0159863D01*
X0092179Y0159816D01*
X0092332Y0159765D01*
X0092483Y0159710D01*
X0092633Y0159652D01*
X0092781Y0159590D01*
X0092928Y0159524D01*
X0093073Y0159455D01*
X0093216Y0159382D01*
X0093358Y0159306D01*
X0093497Y0159226D01*
X0093635Y0159143D01*
X0093770Y0159056D01*
X0093904Y0158966D01*
X0094035Y0158873D01*
X0094163Y0158777D01*
X0094289Y0158677D01*
X0094413Y0158574D01*
X0094534Y0158469D01*
X0094653Y0158360D01*
X0094769Y0158249D01*
X0094882Y0158134D01*
X0094992Y0158017D01*
X0095099Y0157897D01*
X0095203Y0157775D01*
X0095304Y0157650D01*
X0095402Y0157522D01*
X0095497Y0157392D01*
X0095589Y0157260D01*
X0095677Y0157126D01*
X0095762Y0156989D01*
X0095844Y0156851D01*
X0095922Y0156710D01*
X0095996Y0156568D01*
X0096067Y0156424D01*
X0096135Y0156278D01*
X0096198Y0156130D01*
X0096259Y0155981D01*
X0096315Y0155830D01*
X0096368Y0155678D01*
X0096417Y0155525D01*
X0096462Y0155371D01*
X0096503Y0155216D01*
X0096541Y0155059D01*
X0096574Y0154902D01*
X0096604Y0154744D01*
X0096630Y0154585D01*
X0096651Y0154426D01*
X0096669Y0154266D01*
X0096683Y0154106D01*
X0096693Y0153945D01*
X0096699Y0153785D01*
X0096701Y0153624D01*
X0096699Y0153463D01*
X0096693Y0153303D01*
X0096683Y0153142D01*
X0096669Y0152982D01*
X0096651Y0152822D01*
X0096630Y0152663D01*
X0096604Y0152504D01*
X0096574Y0152346D01*
X0096541Y0152189D01*
X0096503Y0152032D01*
X0096462Y0151877D01*
X0096417Y0151723D01*
X0096368Y0151570D01*
X0096315Y0151418D01*
X0096259Y0151267D01*
X0096198Y0151118D01*
X0096135Y0150970D01*
X0096067Y0150824D01*
X0095996Y0150680D01*
X0095922Y0150538D01*
X0095844Y0150397D01*
X0095762Y0150259D01*
X0095677Y0150122D01*
X0095589Y0149988D01*
X0095497Y0149856D01*
X0095402Y0149726D01*
X0095304Y0149598D01*
X0095203Y0149473D01*
X0095099Y0149351D01*
X0094992Y0149231D01*
X0094882Y0149114D01*
X0094769Y0148999D01*
X0094653Y0148888D01*
X0094534Y0148779D01*
X0094413Y0148674D01*
X0094289Y0148571D01*
X0094163Y0148471D01*
X0094035Y0148375D01*
X0093904Y0148282D01*
X0093770Y0148192D01*
X0093635Y0148105D01*
X0093497Y0148022D01*
X0093358Y0147942D01*
X0093216Y0147866D01*
X0093073Y0147793D01*
X0092928Y0147724D01*
X0092781Y0147658D01*
X0092633Y0147596D01*
X0092483Y0147538D01*
X0092332Y0147483D01*
X0092179Y0147432D01*
X0092025Y0147385D01*
X0091870Y0147342D01*
X0091714Y0147303D01*
X0091558Y0147267D01*
X0091400Y0147236D01*
X0091242Y0147208D01*
X0091083Y0147184D01*
X0090923Y0147164D01*
X0090763Y0147148D01*
X0090603Y0147136D01*
X0090442Y0147128D01*
X0090281Y0147124D01*
X0090121Y0147124D01*
X0089960Y0147128D01*
X0089799Y0147136D01*
X0089639Y0147148D01*
X0089479Y0147164D01*
X0089319Y0147184D01*
X0089160Y0147208D01*
X0089002Y0147236D01*
X0088844Y0147267D01*
X0088688Y0147303D01*
X0088532Y0147342D01*
X0088377Y0147385D01*
X0088223Y0147432D01*
X0088070Y0147483D01*
X0087919Y0147538D01*
X0087769Y0147596D01*
X0087621Y0147658D01*
X0087474Y0147724D01*
X0087329Y0147793D01*
X0087186Y0147866D01*
X0087044Y0147942D01*
X0086905Y0148022D01*
X0086767Y0148105D01*
X0086632Y0148192D01*
X0086498Y0148282D01*
X0086367Y0148375D01*
X0086239Y0148471D01*
X0086113Y0148571D01*
X0085989Y0148674D01*
X0085868Y0148779D01*
X0085749Y0148888D01*
X0085633Y0148999D01*
X0085520Y0149114D01*
X0085410Y0149231D01*
X0085303Y0149351D01*
X0085199Y0149473D01*
X0085098Y0149598D01*
X0085000Y0149726D01*
X0084905Y0149856D01*
X0084813Y0149988D01*
X0084725Y0150122D01*
X0084640Y0150259D01*
X0084558Y0150397D01*
X0084480Y0150538D01*
X0084406Y0150680D01*
X0084335Y0150824D01*
X0084267Y0150970D01*
X0084204Y0151118D01*
X0084143Y0151267D01*
X0084087Y0151418D01*
X0084034Y0151570D01*
X0083985Y0151723D01*
X0083940Y0151877D01*
X0083899Y0152032D01*
X0083861Y0152189D01*
X0083828Y0152346D01*
X0083798Y0152504D01*
X0083772Y0152663D01*
X0083751Y0152822D01*
X0083733Y0152982D01*
X0083719Y0153142D01*
X0083709Y0153303D01*
X0083703Y0153463D01*
X0083701Y0153624D01*
X0013819Y0218585D02*
X0013821Y0218746D01*
X0013827Y0218906D01*
X0013837Y0219067D01*
X0013851Y0219227D01*
X0013869Y0219387D01*
X0013890Y0219546D01*
X0013916Y0219705D01*
X0013946Y0219863D01*
X0013979Y0220020D01*
X0014017Y0220177D01*
X0014058Y0220332D01*
X0014103Y0220486D01*
X0014152Y0220639D01*
X0014205Y0220791D01*
X0014261Y0220942D01*
X0014322Y0221091D01*
X0014385Y0221239D01*
X0014453Y0221385D01*
X0014524Y0221529D01*
X0014598Y0221671D01*
X0014676Y0221812D01*
X0014758Y0221950D01*
X0014843Y0222087D01*
X0014931Y0222221D01*
X0015023Y0222353D01*
X0015118Y0222483D01*
X0015216Y0222611D01*
X0015317Y0222736D01*
X0015421Y0222858D01*
X0015528Y0222978D01*
X0015638Y0223095D01*
X0015751Y0223210D01*
X0015867Y0223321D01*
X0015986Y0223430D01*
X0016107Y0223535D01*
X0016231Y0223638D01*
X0016357Y0223738D01*
X0016485Y0223834D01*
X0016616Y0223927D01*
X0016750Y0224017D01*
X0016885Y0224104D01*
X0017023Y0224187D01*
X0017162Y0224267D01*
X0017304Y0224343D01*
X0017447Y0224416D01*
X0017592Y0224485D01*
X0017739Y0224551D01*
X0017887Y0224613D01*
X0018037Y0224671D01*
X0018188Y0224726D01*
X0018341Y0224777D01*
X0018495Y0224824D01*
X0018650Y0224867D01*
X0018806Y0224906D01*
X0018962Y0224942D01*
X0019120Y0224973D01*
X0019278Y0225001D01*
X0019437Y0225025D01*
X0019597Y0225045D01*
X0019757Y0225061D01*
X0019917Y0225073D01*
X0020078Y0225081D01*
X0020239Y0225085D01*
X0020399Y0225085D01*
X0020560Y0225081D01*
X0020721Y0225073D01*
X0020881Y0225061D01*
X0021041Y0225045D01*
X0021201Y0225025D01*
X0021360Y0225001D01*
X0021518Y0224973D01*
X0021676Y0224942D01*
X0021832Y0224906D01*
X0021988Y0224867D01*
X0022143Y0224824D01*
X0022297Y0224777D01*
X0022450Y0224726D01*
X0022601Y0224671D01*
X0022751Y0224613D01*
X0022899Y0224551D01*
X0023046Y0224485D01*
X0023191Y0224416D01*
X0023334Y0224343D01*
X0023476Y0224267D01*
X0023615Y0224187D01*
X0023753Y0224104D01*
X0023888Y0224017D01*
X0024022Y0223927D01*
X0024153Y0223834D01*
X0024281Y0223738D01*
X0024407Y0223638D01*
X0024531Y0223535D01*
X0024652Y0223430D01*
X0024771Y0223321D01*
X0024887Y0223210D01*
X0025000Y0223095D01*
X0025110Y0222978D01*
X0025217Y0222858D01*
X0025321Y0222736D01*
X0025422Y0222611D01*
X0025520Y0222483D01*
X0025615Y0222353D01*
X0025707Y0222221D01*
X0025795Y0222087D01*
X0025880Y0221950D01*
X0025962Y0221812D01*
X0026040Y0221671D01*
X0026114Y0221529D01*
X0026185Y0221385D01*
X0026253Y0221239D01*
X0026316Y0221091D01*
X0026377Y0220942D01*
X0026433Y0220791D01*
X0026486Y0220639D01*
X0026535Y0220486D01*
X0026580Y0220332D01*
X0026621Y0220177D01*
X0026659Y0220020D01*
X0026692Y0219863D01*
X0026722Y0219705D01*
X0026748Y0219546D01*
X0026769Y0219387D01*
X0026787Y0219227D01*
X0026801Y0219067D01*
X0026811Y0218906D01*
X0026817Y0218746D01*
X0026819Y0218585D01*
X0026817Y0218424D01*
X0026811Y0218264D01*
X0026801Y0218103D01*
X0026787Y0217943D01*
X0026769Y0217783D01*
X0026748Y0217624D01*
X0026722Y0217465D01*
X0026692Y0217307D01*
X0026659Y0217150D01*
X0026621Y0216993D01*
X0026580Y0216838D01*
X0026535Y0216684D01*
X0026486Y0216531D01*
X0026433Y0216379D01*
X0026377Y0216228D01*
X0026316Y0216079D01*
X0026253Y0215931D01*
X0026185Y0215785D01*
X0026114Y0215641D01*
X0026040Y0215499D01*
X0025962Y0215358D01*
X0025880Y0215220D01*
X0025795Y0215083D01*
X0025707Y0214949D01*
X0025615Y0214817D01*
X0025520Y0214687D01*
X0025422Y0214559D01*
X0025321Y0214434D01*
X0025217Y0214312D01*
X0025110Y0214192D01*
X0025000Y0214075D01*
X0024887Y0213960D01*
X0024771Y0213849D01*
X0024652Y0213740D01*
X0024531Y0213635D01*
X0024407Y0213532D01*
X0024281Y0213432D01*
X0024153Y0213336D01*
X0024022Y0213243D01*
X0023888Y0213153D01*
X0023753Y0213066D01*
X0023615Y0212983D01*
X0023476Y0212903D01*
X0023334Y0212827D01*
X0023191Y0212754D01*
X0023046Y0212685D01*
X0022899Y0212619D01*
X0022751Y0212557D01*
X0022601Y0212499D01*
X0022450Y0212444D01*
X0022297Y0212393D01*
X0022143Y0212346D01*
X0021988Y0212303D01*
X0021832Y0212264D01*
X0021676Y0212228D01*
X0021518Y0212197D01*
X0021360Y0212169D01*
X0021201Y0212145D01*
X0021041Y0212125D01*
X0020881Y0212109D01*
X0020721Y0212097D01*
X0020560Y0212089D01*
X0020399Y0212085D01*
X0020239Y0212085D01*
X0020078Y0212089D01*
X0019917Y0212097D01*
X0019757Y0212109D01*
X0019597Y0212125D01*
X0019437Y0212145D01*
X0019278Y0212169D01*
X0019120Y0212197D01*
X0018962Y0212228D01*
X0018806Y0212264D01*
X0018650Y0212303D01*
X0018495Y0212346D01*
X0018341Y0212393D01*
X0018188Y0212444D01*
X0018037Y0212499D01*
X0017887Y0212557D01*
X0017739Y0212619D01*
X0017592Y0212685D01*
X0017447Y0212754D01*
X0017304Y0212827D01*
X0017162Y0212903D01*
X0017023Y0212983D01*
X0016885Y0213066D01*
X0016750Y0213153D01*
X0016616Y0213243D01*
X0016485Y0213336D01*
X0016357Y0213432D01*
X0016231Y0213532D01*
X0016107Y0213635D01*
X0015986Y0213740D01*
X0015867Y0213849D01*
X0015751Y0213960D01*
X0015638Y0214075D01*
X0015528Y0214192D01*
X0015421Y0214312D01*
X0015317Y0214434D01*
X0015216Y0214559D01*
X0015118Y0214687D01*
X0015023Y0214817D01*
X0014931Y0214949D01*
X0014843Y0215083D01*
X0014758Y0215220D01*
X0014676Y0215358D01*
X0014598Y0215499D01*
X0014524Y0215641D01*
X0014453Y0215785D01*
X0014385Y0215931D01*
X0014322Y0216079D01*
X0014261Y0216228D01*
X0014205Y0216379D01*
X0014152Y0216531D01*
X0014103Y0216684D01*
X0014058Y0216838D01*
X0014017Y0216993D01*
X0013979Y0217150D01*
X0013946Y0217307D01*
X0013916Y0217465D01*
X0013890Y0217624D01*
X0013869Y0217783D01*
X0013851Y0217943D01*
X0013837Y0218103D01*
X0013827Y0218264D01*
X0013821Y0218424D01*
X0013819Y0218585D01*
D11*
X0025385Y0198788D02*
X0024778Y0198182D01*
X0024778Y0197575D01*
X0025385Y0196968D01*
X0026598Y0196968D01*
X0027205Y0197575D01*
X0027205Y0198182D01*
X0026598Y0198788D01*
X0025385Y0198788D01*
X0025385Y0196968D02*
X0024778Y0196361D01*
X0024778Y0195755D01*
X0025385Y0195148D01*
X0026598Y0195148D01*
X0027205Y0195755D01*
X0027205Y0196361D01*
X0026598Y0196968D01*
X0034252Y0203349D02*
X0031825Y0205776D01*
X0031825Y0206383D01*
X0034252Y0206383D01*
X0034252Y0203349D02*
X0034252Y0202743D01*
X0024114Y0183320D02*
X0022901Y0183320D01*
X0022294Y0182713D01*
X0022294Y0180286D01*
X0022901Y0179680D01*
X0024114Y0179680D01*
X0024721Y0180286D01*
X0024114Y0181500D02*
X0024721Y0182106D01*
X0024721Y0182713D01*
X0024114Y0183320D01*
X0024114Y0181500D02*
X0022294Y0181500D01*
X0025932Y0171804D02*
X0025325Y0171197D01*
X0027752Y0168771D01*
X0027145Y0168164D01*
X0025932Y0168164D01*
X0025325Y0168771D01*
X0025325Y0171197D01*
X0025932Y0171804D02*
X0027145Y0171804D01*
X0027752Y0171197D01*
X0027752Y0168771D01*
X0030610Y0161484D02*
X0030135Y0161009D01*
X0030135Y0160058D01*
X0030610Y0159583D01*
X0032036Y0159583D01*
X0032036Y0158632D02*
X0032036Y0161484D01*
X0030610Y0161484D01*
X0033035Y0161009D02*
X0033035Y0159108D01*
X0033510Y0158632D01*
X0034936Y0158632D01*
X0034936Y0161484D01*
X0033510Y0161484D01*
X0033035Y0161009D01*
X0035935Y0161484D02*
X0035935Y0158632D01*
X0035935Y0160058D02*
X0037836Y0160058D01*
X0038835Y0160058D02*
X0039310Y0159583D01*
X0040736Y0159583D01*
X0039786Y0159583D02*
X0038835Y0158632D01*
X0037836Y0158632D02*
X0037836Y0161484D01*
X0038835Y0161009D02*
X0038835Y0160058D01*
X0038835Y0161009D02*
X0039310Y0161484D01*
X0040736Y0161484D01*
X0040736Y0158632D01*
X0040722Y0131280D02*
X0042542Y0131280D01*
X0043149Y0130673D01*
X0043149Y0129460D01*
X0042542Y0128853D01*
X0040722Y0128853D01*
X0039524Y0129460D02*
X0039524Y0130673D01*
X0038917Y0131280D01*
X0037703Y0131280D01*
X0037097Y0130673D01*
X0037097Y0129460D01*
X0037703Y0128853D01*
X0038917Y0128853D01*
X0039524Y0129460D01*
X0038566Y0124461D02*
X0038566Y0120821D01*
X0040993Y0124461D01*
X0040993Y0120821D01*
X0042196Y0120821D02*
X0043409Y0120821D01*
X0042803Y0120821D02*
X0042803Y0124461D01*
X0043409Y0124461D02*
X0042196Y0124461D01*
X0044355Y0128853D02*
X0044961Y0128853D01*
X0044961Y0129460D01*
X0044355Y0129460D01*
X0044355Y0128853D01*
X0046160Y0130066D02*
X0048586Y0130066D01*
X0048586Y0129460D02*
X0048586Y0130673D01*
X0047980Y0131280D01*
X0046766Y0131280D01*
X0046160Y0130673D01*
X0046160Y0130066D01*
X0046766Y0128853D02*
X0047980Y0128853D01*
X0048586Y0129460D01*
X0049785Y0128853D02*
X0051605Y0128853D01*
X0052212Y0129460D01*
X0052212Y0131280D01*
X0053410Y0130673D02*
X0053410Y0129460D01*
X0054017Y0128853D01*
X0055837Y0128853D01*
X0057035Y0128853D02*
X0057035Y0130673D01*
X0057642Y0131280D01*
X0058248Y0130673D01*
X0058248Y0128853D01*
X0059462Y0128853D02*
X0059462Y0131280D01*
X0058855Y0131280D01*
X0058248Y0130673D01*
X0055837Y0131280D02*
X0055837Y0127639D01*
X0056095Y0124461D02*
X0056095Y0120821D01*
X0056702Y0120821D02*
X0055488Y0120821D01*
X0054285Y0120821D02*
X0051858Y0123248D01*
X0051858Y0123855D01*
X0052465Y0124461D01*
X0053678Y0124461D01*
X0054285Y0123855D01*
X0055488Y0124461D02*
X0056702Y0124461D01*
X0054285Y0120821D02*
X0051858Y0120821D01*
X0050660Y0121428D02*
X0050053Y0120821D01*
X0048840Y0120821D01*
X0048233Y0121428D01*
X0048233Y0123855D02*
X0048840Y0124461D01*
X0050053Y0124461D01*
X0050660Y0123855D01*
X0050660Y0121428D01*
X0050391Y0127639D02*
X0050998Y0127639D01*
X0050391Y0127639D02*
X0049785Y0128246D01*
X0049785Y0131280D01*
X0053410Y0130673D02*
X0054017Y0131280D01*
X0055837Y0131280D01*
X0060660Y0131280D02*
X0062480Y0131280D01*
X0063087Y0130673D01*
X0063087Y0129460D01*
X0062480Y0128853D01*
X0060660Y0128853D01*
X0060660Y0132493D01*
X0064290Y0128853D02*
X0065504Y0128853D01*
X0064897Y0128853D02*
X0064897Y0131280D01*
X0065504Y0131280D01*
X0066702Y0131280D02*
X0067915Y0128853D01*
X0069129Y0131280D01*
X0070327Y0130673D02*
X0070327Y0128853D01*
X0072147Y0128853D01*
X0072754Y0129460D01*
X0072147Y0130066D01*
X0070327Y0130066D01*
X0070327Y0130673D02*
X0070934Y0131280D01*
X0072147Y0131280D01*
X0073952Y0131280D02*
X0075772Y0131280D01*
X0076379Y0130673D01*
X0076379Y0129460D01*
X0075772Y0128853D01*
X0073952Y0128853D01*
X0073952Y0132493D01*
X0077585Y0129460D02*
X0077585Y0128853D01*
X0078192Y0128853D01*
X0078192Y0129460D01*
X0077585Y0129460D01*
X0079390Y0129460D02*
X0079390Y0131280D01*
X0079390Y0129460D02*
X0079997Y0128853D01*
X0080603Y0129460D01*
X0081210Y0128853D01*
X0081817Y0129460D01*
X0081817Y0131280D01*
X0083015Y0131280D02*
X0083015Y0129460D01*
X0083622Y0128853D01*
X0084229Y0129460D01*
X0084835Y0128853D01*
X0085442Y0129460D01*
X0085442Y0131280D01*
X0086640Y0131280D02*
X0086640Y0129460D01*
X0087247Y0128853D01*
X0087854Y0129460D01*
X0088460Y0128853D01*
X0089067Y0129460D01*
X0089067Y0131280D01*
X0076036Y0124461D02*
X0076036Y0120821D01*
X0073609Y0120821D02*
X0073609Y0124461D01*
X0072410Y0123248D02*
X0071804Y0123248D01*
X0071804Y0120821D01*
X0072410Y0120821D02*
X0071197Y0120821D01*
X0069994Y0120821D02*
X0067567Y0123248D01*
X0066369Y0123248D02*
X0065762Y0123248D01*
X0065762Y0120821D01*
X0066369Y0120821D02*
X0065155Y0120821D01*
X0063952Y0121428D02*
X0063952Y0122641D01*
X0063345Y0123248D01*
X0062132Y0123248D01*
X0061525Y0122641D01*
X0061525Y0122035D01*
X0063952Y0122035D01*
X0063952Y0121428D02*
X0063345Y0120821D01*
X0062132Y0120821D01*
X0065762Y0124461D02*
X0065762Y0125068D01*
X0069994Y0123248D02*
X0067567Y0120821D01*
X0071804Y0124461D02*
X0071804Y0125068D01*
X0076036Y0124461D02*
X0073609Y0120821D01*
X0064897Y0132493D02*
X0064897Y0133100D01*
X0071942Y0157632D02*
X0071942Y0160484D01*
X0070516Y0160484D01*
X0070040Y0160009D01*
X0070040Y0159058D01*
X0070516Y0158583D01*
X0071942Y0158583D01*
X0072940Y0158108D02*
X0072940Y0160009D01*
X0073416Y0160484D01*
X0074842Y0160484D01*
X0074842Y0157632D01*
X0073416Y0157632D01*
X0072940Y0158108D01*
X0075840Y0157632D02*
X0075840Y0160484D01*
X0075840Y0159058D02*
X0077742Y0159058D01*
X0077742Y0157632D02*
X0077742Y0160484D01*
X0078741Y0157632D02*
X0080642Y0157632D01*
X0080642Y0160484D01*
X0080523Y0168648D02*
X0080523Y0172288D01*
X0081736Y0171075D01*
X0081736Y0168648D02*
X0079310Y0168648D01*
X0084294Y0179195D02*
X0086721Y0179195D01*
X0084294Y0181622D01*
X0084294Y0182229D01*
X0084901Y0182835D01*
X0086114Y0182835D01*
X0086721Y0182229D01*
X0085114Y0191211D02*
X0083901Y0191211D01*
X0083294Y0191818D01*
X0083294Y0192424D01*
X0083901Y0193031D01*
X0084507Y0193031D01*
X0083901Y0193031D02*
X0083294Y0193638D01*
X0083294Y0194245D01*
X0083901Y0194851D01*
X0085114Y0194851D01*
X0085721Y0194245D01*
X0085721Y0191818D02*
X0085114Y0191211D01*
X0077221Y0205047D02*
X0074794Y0205047D01*
X0075401Y0206867D02*
X0077221Y0205047D01*
X0075401Y0203227D02*
X0075401Y0206867D01*
X0061768Y0213286D02*
X0061161Y0212680D01*
X0059948Y0212680D01*
X0059341Y0213286D01*
X0059341Y0214500D01*
X0059948Y0215106D01*
X0060554Y0215106D01*
X0061768Y0214500D01*
X0061768Y0216320D01*
X0059341Y0216320D01*
X0049236Y0214015D02*
X0047416Y0214015D01*
X0046810Y0213409D01*
X0046810Y0212802D01*
X0047416Y0212195D01*
X0048630Y0212195D01*
X0049236Y0212802D01*
X0049236Y0214015D01*
X0048023Y0215229D01*
X0046810Y0215835D01*
X0024416Y0133100D02*
X0024416Y0132493D01*
X0024416Y0131280D02*
X0024416Y0128853D01*
X0023810Y0128853D02*
X0025023Y0128853D01*
X0026221Y0128853D02*
X0026221Y0130673D01*
X0026828Y0131280D01*
X0028648Y0131280D01*
X0028648Y0128853D01*
X0032273Y0128853D02*
X0029847Y0132493D01*
X0033472Y0130673D02*
X0033472Y0128853D01*
X0034685Y0128853D02*
X0034685Y0130673D01*
X0034078Y0131280D01*
X0033472Y0130673D01*
X0034685Y0130673D02*
X0035292Y0131280D01*
X0035898Y0131280D01*
X0035898Y0128853D01*
X0036154Y0124461D02*
X0036154Y0120821D01*
X0037367Y0120821D02*
X0034941Y0120821D01*
X0033742Y0122641D02*
X0031316Y0122641D01*
X0031922Y0120821D02*
X0031922Y0124461D01*
X0033742Y0122641D01*
X0036154Y0124461D02*
X0037367Y0123248D01*
X0026492Y0123248D02*
X0025279Y0120821D01*
X0024065Y0123248D01*
X0022867Y0123248D02*
X0021654Y0124461D01*
X0021654Y0120821D01*
X0022867Y0120821D02*
X0020440Y0120821D01*
X0019242Y0120821D02*
X0019242Y0121428D01*
X0018635Y0121428D01*
X0018635Y0120821D01*
X0019242Y0120821D01*
X0017429Y0120821D02*
X0015002Y0123248D01*
X0015002Y0123855D01*
X0015609Y0124461D01*
X0016823Y0124461D01*
X0017429Y0123855D01*
X0017429Y0120821D02*
X0015002Y0120821D01*
X0014744Y0128853D02*
X0015958Y0128853D01*
X0016564Y0129460D01*
X0016564Y0130673D01*
X0015958Y0131280D01*
X0014744Y0131280D01*
X0014138Y0130673D01*
X0014138Y0130066D01*
X0016564Y0130066D01*
X0017768Y0128853D02*
X0018981Y0128853D01*
X0018374Y0128853D02*
X0018374Y0131280D01*
X0018981Y0131280D01*
X0020180Y0131280D02*
X0022606Y0128853D01*
X0020180Y0128853D02*
X0022606Y0131280D01*
X0024416Y0131280D02*
X0025023Y0131280D01*
X0018374Y0132493D02*
X0018374Y0133100D01*
D12*
X0026986Y0093325D02*
X0026986Y0090440D01*
X0028429Y0088997D01*
X0029872Y0090440D01*
X0029872Y0093325D01*
X0031337Y0093325D02*
X0031337Y0088997D01*
X0031337Y0091161D02*
X0034222Y0091161D01*
X0035687Y0091161D02*
X0038572Y0091161D01*
X0037129Y0092604D02*
X0037129Y0089719D01*
X0034222Y0088997D02*
X0034222Y0093325D01*
X0034773Y0082601D02*
X0031887Y0078273D01*
X0031887Y0082601D01*
X0030422Y0082601D02*
X0028258Y0082601D01*
X0027537Y0081880D01*
X0027537Y0078994D01*
X0028258Y0078273D01*
X0030422Y0078273D01*
X0030422Y0082601D01*
X0034773Y0082601D02*
X0034773Y0078273D01*
X0036237Y0078994D02*
X0036237Y0080437D01*
X0037680Y0080437D01*
X0039123Y0081880D02*
X0038401Y0082601D01*
X0036959Y0082601D01*
X0036237Y0081880D01*
X0039123Y0081880D02*
X0039123Y0078994D01*
X0038401Y0078273D01*
X0036959Y0078273D01*
X0036237Y0078994D01*
X0035923Y0073215D02*
X0033759Y0073215D01*
X0033038Y0072494D01*
X0033038Y0069608D01*
X0033759Y0068887D01*
X0035923Y0068887D01*
X0035923Y0073215D01*
X0037388Y0068166D02*
X0040274Y0068166D01*
X0041738Y0069608D02*
X0041738Y0072494D01*
X0042460Y0073215D01*
X0044624Y0073215D01*
X0044624Y0068887D01*
X0042460Y0068887D01*
X0041738Y0069608D01*
X0040759Y0063215D02*
X0042923Y0063215D01*
X0042923Y0058887D01*
X0040759Y0058887D01*
X0040038Y0059608D01*
X0040038Y0062494D01*
X0040759Y0063215D01*
X0038573Y0062494D02*
X0038573Y0059608D01*
X0037852Y0058887D01*
X0036409Y0058887D01*
X0035688Y0059608D01*
X0035688Y0062494D01*
X0036409Y0063215D01*
X0037852Y0063215D01*
X0038573Y0062494D01*
X0034223Y0063215D02*
X0034223Y0059608D01*
X0033502Y0058887D01*
X0032059Y0058887D01*
X0031338Y0059608D01*
X0031338Y0063215D01*
X0029873Y0063215D02*
X0026988Y0063215D01*
X0028430Y0063215D02*
X0028430Y0058887D01*
X0029208Y0053325D02*
X0028486Y0052604D01*
X0029208Y0053325D02*
X0030650Y0053325D01*
X0031372Y0052604D01*
X0031372Y0049719D01*
X0030650Y0048997D01*
X0029208Y0048997D01*
X0028486Y0049719D01*
X0032837Y0049719D02*
X0033558Y0048997D01*
X0035001Y0048997D01*
X0035722Y0049719D01*
X0035722Y0052604D01*
X0035001Y0053325D01*
X0033558Y0053325D01*
X0032837Y0052604D01*
X0037187Y0053325D02*
X0037187Y0050440D01*
X0038629Y0048997D01*
X0040072Y0050440D01*
X0040072Y0053325D01*
X0044388Y0058166D02*
X0047274Y0058166D01*
X0048309Y0059806D02*
X0048309Y0055202D01*
X0046775Y0055202D02*
X0049844Y0055202D01*
X0049844Y0058271D02*
X0048309Y0059806D01*
X0048738Y0059608D02*
X0048738Y0062494D01*
X0049460Y0063215D01*
X0051624Y0063215D01*
X0051624Y0058887D01*
X0049460Y0058887D01*
X0048738Y0059608D01*
X0053089Y0058887D02*
X0055974Y0058887D01*
X0055974Y0063215D01*
X0053089Y0063215D01*
X0054531Y0061051D02*
X0055974Y0061051D01*
X0057439Y0058887D02*
X0060324Y0058887D01*
X0060324Y0063215D01*
X0053324Y0068887D02*
X0050439Y0068887D01*
X0048974Y0068887D02*
X0046089Y0068887D01*
X0047531Y0071051D02*
X0048974Y0071051D01*
X0048974Y0073215D02*
X0048974Y0068887D01*
X0048974Y0073215D02*
X0046089Y0073215D01*
X0053324Y0073215D02*
X0053324Y0068887D01*
X0048309Y0050357D02*
X0048309Y0045753D01*
X0046775Y0045753D02*
X0049844Y0045753D01*
X0049844Y0048823D02*
X0048309Y0050357D01*
X0048325Y0038727D02*
X0048325Y0034123D01*
X0049860Y0034123D02*
X0046790Y0034123D01*
X0049860Y0037193D02*
X0048325Y0038727D01*
X0039072Y0032604D02*
X0039072Y0031883D01*
X0038351Y0031161D01*
X0036908Y0031161D01*
X0036187Y0030440D01*
X0036187Y0029719D01*
X0036908Y0028997D01*
X0038351Y0028997D01*
X0039072Y0029719D01*
X0039072Y0032604D02*
X0038351Y0033325D01*
X0036908Y0033325D01*
X0036187Y0032604D01*
X0034722Y0033325D02*
X0034722Y0028997D01*
X0032558Y0028997D01*
X0031837Y0029719D01*
X0031837Y0032604D01*
X0032558Y0033325D01*
X0034722Y0033325D01*
X0033501Y0038997D02*
X0032058Y0038997D01*
X0031337Y0039719D01*
X0029872Y0038997D02*
X0026986Y0038997D01*
X0029872Y0038997D02*
X0029872Y0043325D01*
X0031337Y0042604D02*
X0032058Y0043325D01*
X0033501Y0043325D01*
X0034222Y0042604D01*
X0034222Y0039719D01*
X0033501Y0038997D01*
X0035687Y0039719D02*
X0036408Y0038997D01*
X0037851Y0038997D01*
X0038572Y0039719D01*
X0037851Y0041161D02*
X0036408Y0041161D01*
X0035687Y0040440D01*
X0035687Y0039719D01*
X0035687Y0042604D02*
X0036408Y0043325D01*
X0037851Y0043325D01*
X0038572Y0042604D01*
X0038572Y0041883D01*
X0037851Y0041161D01*
X0028929Y0033325D02*
X0030372Y0031883D01*
X0030372Y0028997D01*
X0030372Y0031161D02*
X0027486Y0031161D01*
X0027486Y0031883D02*
X0027486Y0028997D01*
X0027486Y0031883D02*
X0028929Y0033325D01*
X0028673Y0068887D02*
X0028673Y0073215D01*
X0025788Y0068887D01*
X0025788Y0073215D01*
X0030131Y0073215D02*
X0031573Y0073215D01*
X0030852Y0073215D02*
X0030852Y0068887D01*
X0031573Y0068887D02*
X0030131Y0068887D01*
X0055001Y0092010D02*
X0055001Y0093191D01*
X0067205Y0093191D02*
X0067205Y0092010D01*
X0076981Y0060987D02*
X0078516Y0060987D01*
X0079283Y0060220D01*
X0080818Y0059452D02*
X0080818Y0056383D01*
X0079283Y0056383D02*
X0076214Y0059452D01*
X0076214Y0060220D01*
X0076981Y0060987D01*
X0076214Y0056383D02*
X0079283Y0056383D01*
X0080818Y0058685D02*
X0083887Y0058685D01*
X0083887Y0059452D02*
X0082352Y0060987D01*
X0080818Y0059452D01*
X0083887Y0059452D02*
X0083887Y0056383D01*
X0081352Y0049176D02*
X0079818Y0047641D01*
X0079818Y0044572D01*
X0078283Y0044572D02*
X0075214Y0044572D01*
X0076749Y0044572D02*
X0076749Y0049176D01*
X0078283Y0047641D01*
X0079818Y0046874D02*
X0082887Y0046874D01*
X0082887Y0047641D02*
X0081352Y0049176D01*
X0082887Y0047641D02*
X0082887Y0044572D01*
X0081856Y0037365D02*
X0080322Y0035830D01*
X0080322Y0032761D01*
X0078787Y0033528D02*
X0078787Y0036598D01*
X0078020Y0037365D01*
X0076485Y0037365D01*
X0075718Y0036598D01*
X0078787Y0033528D01*
X0078020Y0032761D01*
X0076485Y0032761D01*
X0075718Y0033528D01*
X0075718Y0036598D01*
X0080322Y0035063D02*
X0083391Y0035063D01*
X0083391Y0035830D02*
X0081856Y0037365D01*
X0083391Y0035830D02*
X0083391Y0032761D01*
D13*
X0055435Y0151897D02*
X0055435Y0156168D01*
X0057571Y0154032D02*
X0053300Y0154032D01*
D14*
X0053089Y0098758D02*
X0056447Y0098758D01*
X0056899Y0094312D01*
X0057905Y0094020D01*
X0058871Y0093620D01*
X0059788Y0093115D01*
X0063252Y0095939D01*
X0065627Y0093564D01*
X0062802Y0090101D01*
X0063307Y0089184D01*
X0063708Y0088217D01*
X0063999Y0087212D01*
X0068445Y0086760D01*
X0068445Y0083402D01*
X0063999Y0082950D01*
X0063708Y0081945D01*
X0063307Y0080978D01*
X0062802Y0080061D01*
X0065627Y0076597D01*
X0063252Y0074223D01*
X0059788Y0077047D01*
X0059106Y0076659D01*
X0058394Y0076328D01*
X0056416Y0081102D01*
X0057059Y0081435D01*
X0057638Y0081870D01*
X0058135Y0082396D01*
X0058537Y0082998D01*
X0058833Y0083659D01*
X0059014Y0084359D01*
X0059075Y0085081D01*
X0058999Y0085885D01*
X0058774Y0086661D01*
X0058409Y0087381D01*
X0057915Y0088020D01*
X0057311Y0088556D01*
X0056618Y0088970D01*
X0055859Y0089247D01*
X0055062Y0089377D01*
X0054255Y0089356D01*
X0053466Y0089185D01*
X0052722Y0088870D01*
X0052051Y0088421D01*
X0051475Y0087855D01*
X0051015Y0087191D01*
X0050687Y0086454D01*
X0050502Y0085667D01*
X0050468Y0084860D01*
X0050584Y0084061D01*
X0050848Y0083298D01*
X0051250Y0082598D01*
X0051776Y0081984D01*
X0052406Y0081480D01*
X0053120Y0081102D01*
X0051143Y0076328D01*
X0050431Y0076659D01*
X0049748Y0077047D01*
X0046285Y0074223D01*
X0043910Y0076597D01*
X0046734Y0080061D01*
X0046229Y0080978D01*
X0045829Y0081945D01*
X0045538Y0082950D01*
X0041091Y0083402D01*
X0041091Y0086760D01*
X0045538Y0087212D01*
X0045829Y0088217D01*
X0046229Y0089184D01*
X0046734Y0090101D01*
X0043910Y0093564D01*
X0046285Y0095939D01*
X0049748Y0093115D01*
X0050665Y0093620D01*
X0051632Y0094020D01*
X0052637Y0094312D01*
X0053089Y0098758D01*
X0053045Y0098320D02*
X0056492Y0098320D01*
X0056552Y0097731D02*
X0052985Y0097731D01*
X0052925Y0097142D02*
X0056612Y0097142D01*
X0056671Y0096553D02*
X0052865Y0096553D01*
X0052805Y0095964D02*
X0056731Y0095964D01*
X0056791Y0095375D02*
X0052745Y0095375D01*
X0052685Y0094786D02*
X0056851Y0094786D01*
X0057296Y0094196D02*
X0052240Y0094196D01*
X0050643Y0093607D02*
X0058894Y0093607D01*
X0060392Y0093607D02*
X0065583Y0093607D01*
X0065181Y0093018D02*
X0044355Y0093018D01*
X0043953Y0093607D02*
X0049144Y0093607D01*
X0048422Y0094196D02*
X0044542Y0094196D01*
X0045131Y0094786D02*
X0047699Y0094786D01*
X0046977Y0095375D02*
X0045720Y0095375D01*
X0044835Y0092429D02*
X0064701Y0092429D01*
X0064221Y0091840D02*
X0045316Y0091840D01*
X0045796Y0091251D02*
X0063740Y0091251D01*
X0063260Y0090662D02*
X0046276Y0090662D01*
X0046719Y0090073D02*
X0062818Y0090073D01*
X0063142Y0089484D02*
X0046394Y0089484D01*
X0046110Y0088895D02*
X0052781Y0088895D01*
X0051933Y0088306D02*
X0045866Y0088306D01*
X0045684Y0087717D02*
X0051379Y0087717D01*
X0050986Y0087128D02*
X0044709Y0087128D01*
X0045001Y0083004D02*
X0051017Y0083004D01*
X0050746Y0083593D02*
X0041091Y0083593D01*
X0041091Y0084182D02*
X0050567Y0084182D01*
X0050481Y0084771D02*
X0041091Y0084771D01*
X0041091Y0085361D02*
X0050489Y0085361D01*
X0050568Y0085950D02*
X0041091Y0085950D01*
X0041091Y0086539D02*
X0050725Y0086539D01*
X0051406Y0082415D02*
X0045692Y0082415D01*
X0045878Y0081826D02*
X0051974Y0081826D01*
X0052866Y0081237D02*
X0046122Y0081237D01*
X0046411Y0080648D02*
X0052932Y0080648D01*
X0052688Y0080059D02*
X0046733Y0080059D01*
X0046252Y0079470D02*
X0052444Y0079470D01*
X0052200Y0078881D02*
X0045772Y0078881D01*
X0045292Y0078292D02*
X0051956Y0078292D01*
X0051712Y0077703D02*
X0044811Y0077703D01*
X0044331Y0077114D02*
X0051468Y0077114D01*
X0051224Y0076525D02*
X0050720Y0076525D01*
X0049108Y0076525D02*
X0043983Y0076525D01*
X0044572Y0075936D02*
X0048386Y0075936D01*
X0047663Y0075346D02*
X0045161Y0075346D01*
X0045750Y0074757D02*
X0046941Y0074757D01*
X0057337Y0078881D02*
X0063765Y0078881D01*
X0064245Y0078292D02*
X0057581Y0078292D01*
X0057825Y0077703D02*
X0064725Y0077703D01*
X0065205Y0077114D02*
X0058069Y0077114D01*
X0058313Y0076525D02*
X0058817Y0076525D01*
X0060428Y0076525D02*
X0065554Y0076525D01*
X0064965Y0075936D02*
X0061151Y0075936D01*
X0061873Y0075346D02*
X0064376Y0075346D01*
X0063787Y0074757D02*
X0062596Y0074757D01*
X0063284Y0079470D02*
X0057093Y0079470D01*
X0056849Y0080059D02*
X0062804Y0080059D01*
X0063126Y0080648D02*
X0056605Y0080648D01*
X0056677Y0081237D02*
X0063415Y0081237D01*
X0063659Y0081826D02*
X0057580Y0081826D01*
X0058148Y0082415D02*
X0063844Y0082415D01*
X0064536Y0083004D02*
X0058540Y0083004D01*
X0058804Y0083593D02*
X0068445Y0083593D01*
X0068445Y0084182D02*
X0058968Y0084182D01*
X0059048Y0084771D02*
X0068445Y0084771D01*
X0068445Y0085361D02*
X0059048Y0085361D01*
X0058980Y0085950D02*
X0068445Y0085950D01*
X0068445Y0086539D02*
X0058810Y0086539D01*
X0058537Y0087128D02*
X0064827Y0087128D01*
X0063853Y0087717D02*
X0058150Y0087717D01*
X0057593Y0088306D02*
X0063671Y0088306D01*
X0063427Y0088895D02*
X0056743Y0088895D01*
X0061115Y0094196D02*
X0064994Y0094196D01*
X0064405Y0094786D02*
X0061837Y0094786D01*
X0062559Y0095375D02*
X0063816Y0095375D01*
D15*
X0011264Y0175514D03*
M02*
