G75*
%MOIN*%
%OFA0B0*%
%FSLAX25Y25*%
%IPPOS*%
%LPD*%
%AMOC8*
5,1,8,0,0,1.08239X$1,22.5*
%
%ADD10C,0.00000*%
%ADD11C,0.05307*%
%ADD12R,0.05118X0.05906*%
%ADD13C,0.07400*%
%ADD14C,0.07400*%
%ADD15C,0.01600*%
%ADD16C,0.03562*%
%ADD17C,0.01200*%
D10*
X0007524Y0003094D02*
X0007524Y0199944D01*
X0145319Y0199944D01*
X0145319Y0003094D01*
X0007524Y0003094D01*
X0127008Y0014905D02*
X0127010Y0015066D01*
X0127016Y0015226D01*
X0127026Y0015387D01*
X0127040Y0015547D01*
X0127058Y0015707D01*
X0127079Y0015866D01*
X0127105Y0016025D01*
X0127135Y0016183D01*
X0127168Y0016340D01*
X0127206Y0016497D01*
X0127247Y0016652D01*
X0127292Y0016806D01*
X0127341Y0016959D01*
X0127394Y0017111D01*
X0127450Y0017262D01*
X0127511Y0017411D01*
X0127574Y0017559D01*
X0127642Y0017705D01*
X0127713Y0017849D01*
X0127787Y0017991D01*
X0127865Y0018132D01*
X0127947Y0018270D01*
X0128032Y0018407D01*
X0128120Y0018541D01*
X0128212Y0018673D01*
X0128307Y0018803D01*
X0128405Y0018931D01*
X0128506Y0019056D01*
X0128610Y0019178D01*
X0128717Y0019298D01*
X0128827Y0019415D01*
X0128940Y0019530D01*
X0129056Y0019641D01*
X0129175Y0019750D01*
X0129296Y0019855D01*
X0129420Y0019958D01*
X0129546Y0020058D01*
X0129674Y0020154D01*
X0129805Y0020247D01*
X0129939Y0020337D01*
X0130074Y0020424D01*
X0130212Y0020507D01*
X0130351Y0020587D01*
X0130493Y0020663D01*
X0130636Y0020736D01*
X0130781Y0020805D01*
X0130928Y0020871D01*
X0131076Y0020933D01*
X0131226Y0020991D01*
X0131377Y0021046D01*
X0131530Y0021097D01*
X0131684Y0021144D01*
X0131839Y0021187D01*
X0131995Y0021226D01*
X0132151Y0021262D01*
X0132309Y0021293D01*
X0132467Y0021321D01*
X0132626Y0021345D01*
X0132786Y0021365D01*
X0132946Y0021381D01*
X0133106Y0021393D01*
X0133267Y0021401D01*
X0133428Y0021405D01*
X0133588Y0021405D01*
X0133749Y0021401D01*
X0133910Y0021393D01*
X0134070Y0021381D01*
X0134230Y0021365D01*
X0134390Y0021345D01*
X0134549Y0021321D01*
X0134707Y0021293D01*
X0134865Y0021262D01*
X0135021Y0021226D01*
X0135177Y0021187D01*
X0135332Y0021144D01*
X0135486Y0021097D01*
X0135639Y0021046D01*
X0135790Y0020991D01*
X0135940Y0020933D01*
X0136088Y0020871D01*
X0136235Y0020805D01*
X0136380Y0020736D01*
X0136523Y0020663D01*
X0136665Y0020587D01*
X0136804Y0020507D01*
X0136942Y0020424D01*
X0137077Y0020337D01*
X0137211Y0020247D01*
X0137342Y0020154D01*
X0137470Y0020058D01*
X0137596Y0019958D01*
X0137720Y0019855D01*
X0137841Y0019750D01*
X0137960Y0019641D01*
X0138076Y0019530D01*
X0138189Y0019415D01*
X0138299Y0019298D01*
X0138406Y0019178D01*
X0138510Y0019056D01*
X0138611Y0018931D01*
X0138709Y0018803D01*
X0138804Y0018673D01*
X0138896Y0018541D01*
X0138984Y0018407D01*
X0139069Y0018270D01*
X0139151Y0018132D01*
X0139229Y0017991D01*
X0139303Y0017849D01*
X0139374Y0017705D01*
X0139442Y0017559D01*
X0139505Y0017411D01*
X0139566Y0017262D01*
X0139622Y0017111D01*
X0139675Y0016959D01*
X0139724Y0016806D01*
X0139769Y0016652D01*
X0139810Y0016497D01*
X0139848Y0016340D01*
X0139881Y0016183D01*
X0139911Y0016025D01*
X0139937Y0015866D01*
X0139958Y0015707D01*
X0139976Y0015547D01*
X0139990Y0015387D01*
X0140000Y0015226D01*
X0140006Y0015066D01*
X0140008Y0014905D01*
X0140006Y0014744D01*
X0140000Y0014584D01*
X0139990Y0014423D01*
X0139976Y0014263D01*
X0139958Y0014103D01*
X0139937Y0013944D01*
X0139911Y0013785D01*
X0139881Y0013627D01*
X0139848Y0013470D01*
X0139810Y0013313D01*
X0139769Y0013158D01*
X0139724Y0013004D01*
X0139675Y0012851D01*
X0139622Y0012699D01*
X0139566Y0012548D01*
X0139505Y0012399D01*
X0139442Y0012251D01*
X0139374Y0012105D01*
X0139303Y0011961D01*
X0139229Y0011819D01*
X0139151Y0011678D01*
X0139069Y0011540D01*
X0138984Y0011403D01*
X0138896Y0011269D01*
X0138804Y0011137D01*
X0138709Y0011007D01*
X0138611Y0010879D01*
X0138510Y0010754D01*
X0138406Y0010632D01*
X0138299Y0010512D01*
X0138189Y0010395D01*
X0138076Y0010280D01*
X0137960Y0010169D01*
X0137841Y0010060D01*
X0137720Y0009955D01*
X0137596Y0009852D01*
X0137470Y0009752D01*
X0137342Y0009656D01*
X0137211Y0009563D01*
X0137077Y0009473D01*
X0136942Y0009386D01*
X0136804Y0009303D01*
X0136665Y0009223D01*
X0136523Y0009147D01*
X0136380Y0009074D01*
X0136235Y0009005D01*
X0136088Y0008939D01*
X0135940Y0008877D01*
X0135790Y0008819D01*
X0135639Y0008764D01*
X0135486Y0008713D01*
X0135332Y0008666D01*
X0135177Y0008623D01*
X0135021Y0008584D01*
X0134865Y0008548D01*
X0134707Y0008517D01*
X0134549Y0008489D01*
X0134390Y0008465D01*
X0134230Y0008445D01*
X0134070Y0008429D01*
X0133910Y0008417D01*
X0133749Y0008409D01*
X0133588Y0008405D01*
X0133428Y0008405D01*
X0133267Y0008409D01*
X0133106Y0008417D01*
X0132946Y0008429D01*
X0132786Y0008445D01*
X0132626Y0008465D01*
X0132467Y0008489D01*
X0132309Y0008517D01*
X0132151Y0008548D01*
X0131995Y0008584D01*
X0131839Y0008623D01*
X0131684Y0008666D01*
X0131530Y0008713D01*
X0131377Y0008764D01*
X0131226Y0008819D01*
X0131076Y0008877D01*
X0130928Y0008939D01*
X0130781Y0009005D01*
X0130636Y0009074D01*
X0130493Y0009147D01*
X0130351Y0009223D01*
X0130212Y0009303D01*
X0130074Y0009386D01*
X0129939Y0009473D01*
X0129805Y0009563D01*
X0129674Y0009656D01*
X0129546Y0009752D01*
X0129420Y0009852D01*
X0129296Y0009955D01*
X0129175Y0010060D01*
X0129056Y0010169D01*
X0128940Y0010280D01*
X0128827Y0010395D01*
X0128717Y0010512D01*
X0128610Y0010632D01*
X0128506Y0010754D01*
X0128405Y0010879D01*
X0128307Y0011007D01*
X0128212Y0011137D01*
X0128120Y0011269D01*
X0128032Y0011403D01*
X0127947Y0011540D01*
X0127865Y0011678D01*
X0127787Y0011819D01*
X0127713Y0011961D01*
X0127642Y0012105D01*
X0127574Y0012251D01*
X0127511Y0012399D01*
X0127450Y0012548D01*
X0127394Y0012699D01*
X0127341Y0012851D01*
X0127292Y0013004D01*
X0127247Y0013158D01*
X0127206Y0013313D01*
X0127168Y0013470D01*
X0127135Y0013627D01*
X0127105Y0013785D01*
X0127079Y0013944D01*
X0127058Y0014103D01*
X0127040Y0014263D01*
X0127026Y0014423D01*
X0127016Y0014584D01*
X0127010Y0014744D01*
X0127008Y0014905D01*
X0012835Y0188133D02*
X0012837Y0188294D01*
X0012843Y0188454D01*
X0012853Y0188615D01*
X0012867Y0188775D01*
X0012885Y0188935D01*
X0012906Y0189094D01*
X0012932Y0189253D01*
X0012962Y0189411D01*
X0012995Y0189568D01*
X0013033Y0189725D01*
X0013074Y0189880D01*
X0013119Y0190034D01*
X0013168Y0190187D01*
X0013221Y0190339D01*
X0013277Y0190490D01*
X0013338Y0190639D01*
X0013401Y0190787D01*
X0013469Y0190933D01*
X0013540Y0191077D01*
X0013614Y0191219D01*
X0013692Y0191360D01*
X0013774Y0191498D01*
X0013859Y0191635D01*
X0013947Y0191769D01*
X0014039Y0191901D01*
X0014134Y0192031D01*
X0014232Y0192159D01*
X0014333Y0192284D01*
X0014437Y0192406D01*
X0014544Y0192526D01*
X0014654Y0192643D01*
X0014767Y0192758D01*
X0014883Y0192869D01*
X0015002Y0192978D01*
X0015123Y0193083D01*
X0015247Y0193186D01*
X0015373Y0193286D01*
X0015501Y0193382D01*
X0015632Y0193475D01*
X0015766Y0193565D01*
X0015901Y0193652D01*
X0016039Y0193735D01*
X0016178Y0193815D01*
X0016320Y0193891D01*
X0016463Y0193964D01*
X0016608Y0194033D01*
X0016755Y0194099D01*
X0016903Y0194161D01*
X0017053Y0194219D01*
X0017204Y0194274D01*
X0017357Y0194325D01*
X0017511Y0194372D01*
X0017666Y0194415D01*
X0017822Y0194454D01*
X0017978Y0194490D01*
X0018136Y0194521D01*
X0018294Y0194549D01*
X0018453Y0194573D01*
X0018613Y0194593D01*
X0018773Y0194609D01*
X0018933Y0194621D01*
X0019094Y0194629D01*
X0019255Y0194633D01*
X0019415Y0194633D01*
X0019576Y0194629D01*
X0019737Y0194621D01*
X0019897Y0194609D01*
X0020057Y0194593D01*
X0020217Y0194573D01*
X0020376Y0194549D01*
X0020534Y0194521D01*
X0020692Y0194490D01*
X0020848Y0194454D01*
X0021004Y0194415D01*
X0021159Y0194372D01*
X0021313Y0194325D01*
X0021466Y0194274D01*
X0021617Y0194219D01*
X0021767Y0194161D01*
X0021915Y0194099D01*
X0022062Y0194033D01*
X0022207Y0193964D01*
X0022350Y0193891D01*
X0022492Y0193815D01*
X0022631Y0193735D01*
X0022769Y0193652D01*
X0022904Y0193565D01*
X0023038Y0193475D01*
X0023169Y0193382D01*
X0023297Y0193286D01*
X0023423Y0193186D01*
X0023547Y0193083D01*
X0023668Y0192978D01*
X0023787Y0192869D01*
X0023903Y0192758D01*
X0024016Y0192643D01*
X0024126Y0192526D01*
X0024233Y0192406D01*
X0024337Y0192284D01*
X0024438Y0192159D01*
X0024536Y0192031D01*
X0024631Y0191901D01*
X0024723Y0191769D01*
X0024811Y0191635D01*
X0024896Y0191498D01*
X0024978Y0191360D01*
X0025056Y0191219D01*
X0025130Y0191077D01*
X0025201Y0190933D01*
X0025269Y0190787D01*
X0025332Y0190639D01*
X0025393Y0190490D01*
X0025449Y0190339D01*
X0025502Y0190187D01*
X0025551Y0190034D01*
X0025596Y0189880D01*
X0025637Y0189725D01*
X0025675Y0189568D01*
X0025708Y0189411D01*
X0025738Y0189253D01*
X0025764Y0189094D01*
X0025785Y0188935D01*
X0025803Y0188775D01*
X0025817Y0188615D01*
X0025827Y0188454D01*
X0025833Y0188294D01*
X0025835Y0188133D01*
X0025833Y0187972D01*
X0025827Y0187812D01*
X0025817Y0187651D01*
X0025803Y0187491D01*
X0025785Y0187331D01*
X0025764Y0187172D01*
X0025738Y0187013D01*
X0025708Y0186855D01*
X0025675Y0186698D01*
X0025637Y0186541D01*
X0025596Y0186386D01*
X0025551Y0186232D01*
X0025502Y0186079D01*
X0025449Y0185927D01*
X0025393Y0185776D01*
X0025332Y0185627D01*
X0025269Y0185479D01*
X0025201Y0185333D01*
X0025130Y0185189D01*
X0025056Y0185047D01*
X0024978Y0184906D01*
X0024896Y0184768D01*
X0024811Y0184631D01*
X0024723Y0184497D01*
X0024631Y0184365D01*
X0024536Y0184235D01*
X0024438Y0184107D01*
X0024337Y0183982D01*
X0024233Y0183860D01*
X0024126Y0183740D01*
X0024016Y0183623D01*
X0023903Y0183508D01*
X0023787Y0183397D01*
X0023668Y0183288D01*
X0023547Y0183183D01*
X0023423Y0183080D01*
X0023297Y0182980D01*
X0023169Y0182884D01*
X0023038Y0182791D01*
X0022904Y0182701D01*
X0022769Y0182614D01*
X0022631Y0182531D01*
X0022492Y0182451D01*
X0022350Y0182375D01*
X0022207Y0182302D01*
X0022062Y0182233D01*
X0021915Y0182167D01*
X0021767Y0182105D01*
X0021617Y0182047D01*
X0021466Y0181992D01*
X0021313Y0181941D01*
X0021159Y0181894D01*
X0021004Y0181851D01*
X0020848Y0181812D01*
X0020692Y0181776D01*
X0020534Y0181745D01*
X0020376Y0181717D01*
X0020217Y0181693D01*
X0020057Y0181673D01*
X0019897Y0181657D01*
X0019737Y0181645D01*
X0019576Y0181637D01*
X0019415Y0181633D01*
X0019255Y0181633D01*
X0019094Y0181637D01*
X0018933Y0181645D01*
X0018773Y0181657D01*
X0018613Y0181673D01*
X0018453Y0181693D01*
X0018294Y0181717D01*
X0018136Y0181745D01*
X0017978Y0181776D01*
X0017822Y0181812D01*
X0017666Y0181851D01*
X0017511Y0181894D01*
X0017357Y0181941D01*
X0017204Y0181992D01*
X0017053Y0182047D01*
X0016903Y0182105D01*
X0016755Y0182167D01*
X0016608Y0182233D01*
X0016463Y0182302D01*
X0016320Y0182375D01*
X0016178Y0182451D01*
X0016039Y0182531D01*
X0015901Y0182614D01*
X0015766Y0182701D01*
X0015632Y0182791D01*
X0015501Y0182884D01*
X0015373Y0182980D01*
X0015247Y0183080D01*
X0015123Y0183183D01*
X0015002Y0183288D01*
X0014883Y0183397D01*
X0014767Y0183508D01*
X0014654Y0183623D01*
X0014544Y0183740D01*
X0014437Y0183860D01*
X0014333Y0183982D01*
X0014232Y0184107D01*
X0014134Y0184235D01*
X0014039Y0184365D01*
X0013947Y0184497D01*
X0013859Y0184631D01*
X0013774Y0184768D01*
X0013692Y0184906D01*
X0013614Y0185047D01*
X0013540Y0185189D01*
X0013469Y0185333D01*
X0013401Y0185479D01*
X0013338Y0185627D01*
X0013277Y0185776D01*
X0013221Y0185927D01*
X0013168Y0186079D01*
X0013119Y0186232D01*
X0013074Y0186386D01*
X0013033Y0186541D01*
X0012995Y0186698D01*
X0012962Y0186855D01*
X0012932Y0187013D01*
X0012906Y0187172D01*
X0012885Y0187331D01*
X0012867Y0187491D01*
X0012853Y0187651D01*
X0012843Y0187812D01*
X0012837Y0187972D01*
X0012835Y0188133D01*
D11*
X0052230Y0149763D03*
X0053636Y0161342D03*
X0060262Y0170941D03*
X0070590Y0176362D03*
X0082254Y0176362D03*
X0092582Y0170941D03*
X0099208Y0161342D03*
X0100614Y0149763D03*
X0096478Y0138856D03*
X0087747Y0131122D03*
X0076422Y0128330D03*
X0065097Y0131122D03*
X0056366Y0138856D03*
D12*
X0076028Y0050732D03*
X0082721Y0050732D03*
X0089414Y0050732D03*
X0089414Y0034984D03*
X0082721Y0034984D03*
X0076028Y0034984D03*
X0107524Y0045220D03*
X0114217Y0045220D03*
X0120910Y0045220D03*
D13*
X0021067Y0048999D02*
X0013667Y0048999D01*
X0013667Y0038999D02*
X0021067Y0038999D01*
X0021067Y0028999D02*
X0013667Y0028999D01*
X0013667Y0018999D02*
X0021067Y0018999D01*
X0021067Y0008999D02*
X0013667Y0008999D01*
X0013667Y0058999D02*
X0021067Y0058999D01*
X0021067Y0068999D02*
X0013667Y0068999D01*
D14*
X0057824Y0015594D03*
X0069224Y0015594D03*
D15*
X0073343Y0011086D02*
X0124051Y0011086D01*
X0123871Y0011397D02*
X0125652Y0008313D01*
X0125652Y0008313D01*
X0128380Y0006023D01*
X0128380Y0006023D01*
X0129835Y0005494D01*
X0026188Y0005494D01*
X0026238Y0005544D01*
X0027167Y0007786D01*
X0027167Y0010213D01*
X0026238Y0012455D01*
X0024693Y0013999D01*
X0026238Y0015544D01*
X0027167Y0017786D01*
X0027167Y0020213D01*
X0026238Y0022455D01*
X0024693Y0023999D01*
X0025788Y0025094D01*
X0028121Y0025094D01*
X0029223Y0025551D01*
X0030067Y0026394D01*
X0030067Y0026394D01*
X0035657Y0031984D01*
X0071069Y0031984D01*
X0071069Y0031553D01*
X0071434Y0030671D01*
X0072110Y0029996D01*
X0072992Y0029631D01*
X0074631Y0029631D01*
X0074803Y0023475D01*
X0074818Y0022920D01*
X0074818Y0022366D01*
X0074835Y0022325D01*
X0074944Y0018426D01*
X0074738Y0018221D01*
X0074395Y0019049D01*
X0072680Y0020765D01*
X0070438Y0021694D01*
X0068011Y0021694D01*
X0065769Y0020765D01*
X0064053Y0019049D01*
X0063524Y0017773D01*
X0062995Y0019049D01*
X0061280Y0020765D01*
X0059037Y0021694D01*
X0056611Y0021694D01*
X0054369Y0020765D01*
X0052653Y0019049D01*
X0051724Y0016807D01*
X0051724Y0014380D01*
X0052653Y0012138D01*
X0054369Y0010423D01*
X0056611Y0009494D01*
X0059037Y0009494D01*
X0061280Y0010423D01*
X0062995Y0012138D01*
X0063524Y0013415D01*
X0064053Y0012138D01*
X0065769Y0010423D01*
X0068011Y0009494D01*
X0070438Y0009494D01*
X0072680Y0010423D01*
X0074395Y0012138D01*
X0074738Y0012967D01*
X0075656Y0012049D01*
X0077192Y0011413D01*
X0078856Y0011413D01*
X0080393Y0012049D01*
X0081569Y0013225D01*
X0082205Y0014762D01*
X0082205Y0016426D01*
X0081569Y0017962D01*
X0080942Y0018589D01*
X0080900Y0020094D01*
X0113121Y0020094D01*
X0114223Y0020551D01*
X0115067Y0021394D01*
X0115524Y0022497D01*
X0115524Y0033691D01*
X0115067Y0034793D01*
X0114223Y0035637D01*
X0110524Y0039336D01*
X0110524Y0039867D01*
X0110561Y0039867D01*
X0110871Y0039995D01*
X0111181Y0039867D01*
X0117253Y0039867D01*
X0118136Y0040232D01*
X0118370Y0040467D01*
X0120430Y0040467D01*
X0120430Y0044740D01*
X0121389Y0044740D01*
X0121389Y0040467D01*
X0123706Y0040467D01*
X0124164Y0040590D01*
X0124574Y0040827D01*
X0124909Y0041162D01*
X0125146Y0041572D01*
X0125269Y0042030D01*
X0125269Y0044740D01*
X0121390Y0044740D01*
X0121390Y0045699D01*
X0125269Y0045699D01*
X0125269Y0048410D01*
X0125146Y0048867D01*
X0124909Y0049278D01*
X0124574Y0049613D01*
X0124164Y0049850D01*
X0123706Y0049973D01*
X0121389Y0049973D01*
X0121389Y0045699D01*
X0120430Y0045699D01*
X0120430Y0049973D01*
X0118370Y0049973D01*
X0118136Y0050207D01*
X0117253Y0050573D01*
X0117217Y0050573D01*
X0117217Y0053691D01*
X0116760Y0054793D01*
X0115916Y0055637D01*
X0114814Y0056094D01*
X0109223Y0056094D01*
X0107788Y0057529D01*
X0107431Y0067816D01*
X0107876Y0068261D01*
X0108512Y0069798D01*
X0108512Y0071461D01*
X0107876Y0072998D01*
X0106700Y0074174D01*
X0105163Y0074810D01*
X0103500Y0074810D01*
X0101963Y0074174D01*
X0100787Y0072998D01*
X0100150Y0071461D01*
X0100150Y0069798D01*
X0100787Y0068261D01*
X0101434Y0067613D01*
X0101831Y0056191D01*
X0101831Y0055647D01*
X0101852Y0055597D01*
X0101854Y0055543D01*
X0102079Y0055047D01*
X0102288Y0054544D01*
X0102326Y0054506D01*
X0102349Y0054457D01*
X0102747Y0054085D01*
X0105438Y0051394D01*
X0106259Y0050573D01*
X0104488Y0050573D01*
X0103606Y0050207D01*
X0102930Y0049532D01*
X0102565Y0048650D01*
X0102565Y0041790D01*
X0102930Y0040908D01*
X0103606Y0040232D01*
X0104488Y0039867D01*
X0104524Y0039867D01*
X0104524Y0037497D01*
X0104981Y0036394D01*
X0109524Y0031851D01*
X0109524Y0026094D01*
X0080732Y0026094D01*
X0080633Y0029631D01*
X0085757Y0029631D01*
X0086640Y0029996D01*
X0086874Y0030231D01*
X0088934Y0030231D01*
X0088934Y0034504D01*
X0089893Y0034504D01*
X0089893Y0030231D01*
X0092210Y0030231D01*
X0092668Y0030354D01*
X0093078Y0030590D01*
X0093413Y0030926D01*
X0093650Y0031336D01*
X0093773Y0031794D01*
X0093773Y0034504D01*
X0089894Y0034504D01*
X0089894Y0035463D01*
X0093773Y0035463D01*
X0093773Y0038173D01*
X0093650Y0038631D01*
X0093413Y0039042D01*
X0093078Y0039377D01*
X0092668Y0039614D01*
X0092210Y0039736D01*
X0089893Y0039736D01*
X0089893Y0035463D01*
X0088934Y0035463D01*
X0088934Y0039736D01*
X0086874Y0039736D01*
X0086753Y0039858D01*
X0096704Y0039858D01*
X0097806Y0040314D01*
X0098650Y0041158D01*
X0099107Y0042261D01*
X0099107Y0043454D01*
X0098650Y0044557D01*
X0098319Y0044888D01*
X0098319Y0069866D01*
X0098864Y0070410D01*
X0099501Y0071947D01*
X0099501Y0073611D01*
X0098864Y0075147D01*
X0097688Y0076323D01*
X0096151Y0076960D01*
X0094488Y0076960D01*
X0092951Y0076323D01*
X0091775Y0075147D01*
X0091138Y0073611D01*
X0091138Y0071947D01*
X0091775Y0070410D01*
X0092319Y0069866D01*
X0092319Y0055455D01*
X0092210Y0055484D01*
X0089893Y0055484D01*
X0089893Y0051211D01*
X0088934Y0051211D01*
X0088934Y0055484D01*
X0086874Y0055484D01*
X0086640Y0055719D01*
X0085757Y0056084D01*
X0085721Y0056084D01*
X0085721Y0070653D01*
X0086266Y0071198D01*
X0086902Y0072735D01*
X0086902Y0074398D01*
X0086266Y0075935D01*
X0085089Y0077111D01*
X0083553Y0077747D01*
X0081889Y0077747D01*
X0080353Y0077111D01*
X0079176Y0075935D01*
X0078540Y0074398D01*
X0078540Y0073284D01*
X0077421Y0073748D01*
X0077567Y0073894D01*
X0078024Y0074997D01*
X0078024Y0117851D01*
X0078343Y0118170D01*
X0078343Y0117262D01*
X0078980Y0115725D01*
X0079524Y0115181D01*
X0079524Y0086007D01*
X0078980Y0085462D01*
X0078343Y0083926D01*
X0078343Y0082262D01*
X0078980Y0080725D01*
X0080156Y0079549D01*
X0081692Y0078913D01*
X0083356Y0078913D01*
X0084893Y0079549D01*
X0086069Y0080725D01*
X0086705Y0082262D01*
X0086705Y0083926D01*
X0086069Y0085462D01*
X0085524Y0086007D01*
X0085524Y0115181D01*
X0086069Y0115725D01*
X0086705Y0117262D01*
X0086705Y0118926D01*
X0086069Y0120462D01*
X0084893Y0121638D01*
X0083356Y0122275D01*
X0082448Y0122275D01*
X0085067Y0124894D01*
X0085524Y0125997D01*
X0085524Y0126573D01*
X0086742Y0126068D01*
X0088752Y0126068D01*
X0090610Y0126838D01*
X0092031Y0128259D01*
X0092801Y0130117D01*
X0092801Y0132127D01*
X0092031Y0133984D01*
X0090610Y0135406D01*
X0088752Y0136175D01*
X0086742Y0136175D01*
X0085524Y0135671D01*
X0085524Y0150181D01*
X0086069Y0150725D01*
X0086705Y0152262D01*
X0086705Y0153926D01*
X0086069Y0155462D01*
X0084893Y0156638D01*
X0083356Y0157275D01*
X0081692Y0157275D01*
X0080156Y0156638D01*
X0078980Y0155462D01*
X0078343Y0153926D01*
X0078343Y0152262D01*
X0078980Y0150725D01*
X0079524Y0150181D01*
X0079524Y0132375D01*
X0079284Y0132615D01*
X0077427Y0133384D01*
X0075417Y0133384D01*
X0073559Y0132615D01*
X0073524Y0132580D01*
X0073524Y0138191D01*
X0073067Y0139293D01*
X0072223Y0140137D01*
X0071205Y0141155D01*
X0071205Y0141926D01*
X0070569Y0143462D01*
X0069393Y0144638D01*
X0067856Y0145275D01*
X0066192Y0145275D01*
X0064656Y0144638D01*
X0063480Y0143462D01*
X0062843Y0141926D01*
X0062843Y0140262D01*
X0063480Y0138725D01*
X0064656Y0137549D01*
X0066192Y0136913D01*
X0066963Y0136913D01*
X0067524Y0136351D01*
X0067524Y0135586D01*
X0066102Y0136175D01*
X0064091Y0136175D01*
X0062234Y0135406D01*
X0060812Y0133984D01*
X0060043Y0132127D01*
X0060043Y0130117D01*
X0060812Y0128259D01*
X0062234Y0126838D01*
X0064091Y0126068D01*
X0066102Y0126068D01*
X0067524Y0126657D01*
X0067524Y0077336D01*
X0042187Y0051999D01*
X0026427Y0051999D01*
X0026238Y0052455D01*
X0024522Y0054171D01*
X0024048Y0054367D01*
X0024650Y0054804D01*
X0025262Y0055416D01*
X0025771Y0056117D01*
X0026164Y0056888D01*
X0026431Y0057711D01*
X0026567Y0058566D01*
X0026567Y0058799D01*
X0017567Y0058799D01*
X0017567Y0059199D01*
X0026567Y0059199D01*
X0026567Y0059432D01*
X0026431Y0060287D01*
X0026164Y0061111D01*
X0025771Y0061882D01*
X0025262Y0062582D01*
X0024650Y0063195D01*
X0024048Y0063632D01*
X0024522Y0063828D01*
X0026238Y0065544D01*
X0027167Y0067786D01*
X0027167Y0070213D01*
X0026238Y0072455D01*
X0025651Y0073041D01*
X0037571Y0084961D01*
X0061040Y0107913D01*
X0061856Y0107913D01*
X0063393Y0108549D01*
X0064569Y0109725D01*
X0065205Y0111262D01*
X0065205Y0112926D01*
X0064569Y0114462D01*
X0063393Y0115638D01*
X0061856Y0116275D01*
X0060192Y0116275D01*
X0058656Y0115638D01*
X0057480Y0114462D01*
X0056843Y0112926D01*
X0056843Y0112201D01*
X0033778Y0089644D01*
X0033762Y0089637D01*
X0033351Y0089227D01*
X0032937Y0088821D01*
X0032930Y0088805D01*
X0019224Y0075099D01*
X0012453Y0075099D01*
X0010211Y0074171D01*
X0009924Y0073884D01*
X0009924Y0184234D01*
X0011479Y0181541D01*
X0014207Y0179251D01*
X0017554Y0178033D01*
X0021116Y0178033D01*
X0024463Y0179251D01*
X0027192Y0181541D01*
X0028972Y0184626D01*
X0029591Y0188133D01*
X0029591Y0188133D01*
X0028972Y0191641D01*
X0027192Y0194725D01*
X0027192Y0194726D01*
X0024463Y0197015D01*
X0023009Y0197544D01*
X0142919Y0197544D01*
X0142919Y0018804D01*
X0141365Y0021497D01*
X0141365Y0021497D01*
X0138636Y0023787D01*
X0135289Y0025005D01*
X0131727Y0025005D01*
X0128380Y0023787D01*
X0125652Y0021497D01*
X0123871Y0018413D01*
X0123871Y0018413D01*
X0123253Y0014905D01*
X0123253Y0014905D01*
X0123871Y0011397D01*
X0123871Y0011397D01*
X0123644Y0012685D02*
X0081028Y0012685D01*
X0082007Y0014283D02*
X0123362Y0014283D01*
X0123425Y0015882D02*
X0082205Y0015882D01*
X0081768Y0017480D02*
X0123707Y0017480D01*
X0124256Y0019079D02*
X0080928Y0019079D01*
X0080705Y0027072D02*
X0109524Y0027072D01*
X0109524Y0028670D02*
X0080660Y0028670D01*
X0074658Y0028670D02*
X0032343Y0028670D01*
X0030744Y0027072D02*
X0074702Y0027072D01*
X0074747Y0025473D02*
X0029036Y0025473D01*
X0026312Y0022276D02*
X0074836Y0022276D01*
X0074792Y0023874D02*
X0024818Y0023874D01*
X0026974Y0020677D02*
X0054281Y0020677D01*
X0052683Y0019079D02*
X0027167Y0019079D01*
X0027040Y0017480D02*
X0052003Y0017480D01*
X0051724Y0015882D02*
X0026378Y0015882D01*
X0024977Y0014283D02*
X0051764Y0014283D01*
X0052426Y0012685D02*
X0026008Y0012685D01*
X0026805Y0011086D02*
X0053705Y0011086D01*
X0061367Y0020677D02*
X0065681Y0020677D01*
X0064083Y0019079D02*
X0062966Y0019079D01*
X0063222Y0012685D02*
X0063826Y0012685D01*
X0065105Y0011086D02*
X0061943Y0011086D01*
X0072767Y0020677D02*
X0074881Y0020677D01*
X0074926Y0019079D02*
X0074366Y0019079D01*
X0074622Y0012685D02*
X0075020Y0012685D01*
X0071837Y0030269D02*
X0033941Y0030269D01*
X0035540Y0031867D02*
X0071069Y0031867D01*
X0086753Y0045858D02*
X0086874Y0045979D01*
X0088934Y0045979D01*
X0088934Y0050252D01*
X0089893Y0050252D01*
X0089893Y0045979D01*
X0092210Y0045979D01*
X0092319Y0046008D01*
X0092319Y0045858D01*
X0086753Y0045858D01*
X0088934Y0046254D02*
X0089893Y0046254D01*
X0089893Y0047852D02*
X0088934Y0047852D01*
X0088934Y0049451D02*
X0089893Y0049451D01*
X0089893Y0052648D02*
X0088934Y0052648D01*
X0088934Y0054246D02*
X0089893Y0054246D01*
X0092319Y0055845D02*
X0086336Y0055845D01*
X0085721Y0057443D02*
X0092319Y0057443D01*
X0092319Y0059042D02*
X0085721Y0059042D01*
X0085721Y0060640D02*
X0092319Y0060640D01*
X0092319Y0062239D02*
X0085721Y0062239D01*
X0085721Y0063837D02*
X0092319Y0063837D01*
X0092319Y0065436D02*
X0085721Y0065436D01*
X0085721Y0067034D02*
X0092319Y0067034D01*
X0092319Y0068633D02*
X0085721Y0068633D01*
X0085721Y0070231D02*
X0091954Y0070231D01*
X0091187Y0071830D02*
X0086527Y0071830D01*
X0086902Y0073428D02*
X0091138Y0073428D01*
X0091725Y0075027D02*
X0086642Y0075027D01*
X0085575Y0076625D02*
X0093680Y0076625D01*
X0096959Y0076625D02*
X0142919Y0076625D01*
X0142919Y0075027D02*
X0098914Y0075027D01*
X0099501Y0073428D02*
X0101217Y0073428D01*
X0100303Y0071830D02*
X0099452Y0071830D01*
X0100150Y0070231D02*
X0098685Y0070231D01*
X0098319Y0068633D02*
X0100633Y0068633D01*
X0101454Y0067034D02*
X0098319Y0067034D01*
X0098319Y0065436D02*
X0101510Y0065436D01*
X0101565Y0063837D02*
X0098319Y0063837D01*
X0098319Y0062239D02*
X0101621Y0062239D01*
X0101677Y0060640D02*
X0098319Y0060640D01*
X0098319Y0059042D02*
X0101732Y0059042D01*
X0101788Y0057443D02*
X0098319Y0057443D01*
X0098319Y0055845D02*
X0101831Y0055845D01*
X0102574Y0054246D02*
X0098319Y0054246D01*
X0098319Y0052648D02*
X0104184Y0052648D01*
X0105783Y0051049D02*
X0098319Y0051049D01*
X0098319Y0049451D02*
X0102897Y0049451D01*
X0102565Y0047852D02*
X0098319Y0047852D01*
X0098319Y0046254D02*
X0102565Y0046254D01*
X0102565Y0044655D02*
X0098552Y0044655D01*
X0099107Y0043057D02*
X0102565Y0043057D01*
X0102702Y0041458D02*
X0098774Y0041458D01*
X0096708Y0039860D02*
X0104524Y0039860D01*
X0104524Y0038261D02*
X0093749Y0038261D01*
X0093773Y0036663D02*
X0104870Y0036663D01*
X0106311Y0035064D02*
X0089894Y0035064D01*
X0089893Y0033466D02*
X0088934Y0033466D01*
X0088934Y0031867D02*
X0089893Y0031867D01*
X0089893Y0030269D02*
X0088934Y0030269D01*
X0092351Y0030269D02*
X0109524Y0030269D01*
X0109508Y0031867D02*
X0093773Y0031867D01*
X0093773Y0033466D02*
X0107910Y0033466D01*
X0111600Y0038261D02*
X0142919Y0038261D01*
X0142919Y0036663D02*
X0113198Y0036663D01*
X0110524Y0039860D02*
X0142919Y0039860D01*
X0142919Y0041458D02*
X0125080Y0041458D01*
X0125269Y0043057D02*
X0142919Y0043057D01*
X0142919Y0044655D02*
X0125269Y0044655D01*
X0125269Y0046254D02*
X0142919Y0046254D01*
X0142919Y0047852D02*
X0125269Y0047852D01*
X0124737Y0049451D02*
X0142919Y0049451D01*
X0142919Y0051049D02*
X0117217Y0051049D01*
X0117217Y0052648D02*
X0142919Y0052648D01*
X0142919Y0054246D02*
X0116987Y0054246D01*
X0115415Y0055845D02*
X0142919Y0055845D01*
X0142919Y0057443D02*
X0107874Y0057443D01*
X0107736Y0059042D02*
X0142919Y0059042D01*
X0142919Y0060640D02*
X0107680Y0060640D01*
X0107625Y0062239D02*
X0142919Y0062239D01*
X0142919Y0063837D02*
X0107569Y0063837D01*
X0107514Y0065436D02*
X0142919Y0065436D01*
X0142919Y0067034D02*
X0107458Y0067034D01*
X0108030Y0068633D02*
X0142919Y0068633D01*
X0142919Y0070231D02*
X0108512Y0070231D01*
X0108360Y0071830D02*
X0142919Y0071830D01*
X0142919Y0073428D02*
X0107445Y0073428D01*
X0120430Y0049451D02*
X0121389Y0049451D01*
X0121389Y0047852D02*
X0120430Y0047852D01*
X0120430Y0046254D02*
X0121389Y0046254D01*
X0121389Y0044655D02*
X0120430Y0044655D01*
X0120430Y0043057D02*
X0121389Y0043057D01*
X0121389Y0041458D02*
X0120430Y0041458D01*
X0114797Y0035064D02*
X0142919Y0035064D01*
X0142919Y0033466D02*
X0115524Y0033466D01*
X0115524Y0031867D02*
X0142919Y0031867D01*
X0142919Y0030269D02*
X0115524Y0030269D01*
X0115524Y0028670D02*
X0142919Y0028670D01*
X0142919Y0027072D02*
X0115524Y0027072D01*
X0115524Y0025473D02*
X0142919Y0025473D01*
X0142919Y0023874D02*
X0138395Y0023874D01*
X0138636Y0023787D02*
X0138636Y0023787D01*
X0140437Y0022276D02*
X0142919Y0022276D01*
X0142919Y0020677D02*
X0141838Y0020677D01*
X0142761Y0019079D02*
X0142919Y0019079D01*
X0128622Y0023874D02*
X0115524Y0023874D01*
X0115433Y0022276D02*
X0126580Y0022276D01*
X0125652Y0021497D02*
X0125652Y0021497D01*
X0125652Y0021497D01*
X0125179Y0020677D02*
X0114350Y0020677D01*
X0124973Y0009488D02*
X0027167Y0009488D01*
X0027167Y0007889D02*
X0126156Y0007889D01*
X0128061Y0006291D02*
X0026547Y0006291D01*
X0026045Y0052648D02*
X0042835Y0052648D01*
X0044434Y0054246D02*
X0024340Y0054246D01*
X0025573Y0055845D02*
X0046032Y0055845D01*
X0047631Y0057443D02*
X0026344Y0057443D01*
X0026317Y0060640D02*
X0050828Y0060640D01*
X0049229Y0059042D02*
X0017567Y0059042D01*
X0024531Y0063837D02*
X0054025Y0063837D01*
X0052426Y0062239D02*
X0025511Y0062239D01*
X0026130Y0065436D02*
X0055623Y0065436D01*
X0057222Y0067034D02*
X0026855Y0067034D01*
X0027167Y0068633D02*
X0058820Y0068633D01*
X0060419Y0070231D02*
X0027159Y0070231D01*
X0026497Y0071830D02*
X0062017Y0071830D01*
X0063616Y0073428D02*
X0026038Y0073428D01*
X0027637Y0075027D02*
X0065215Y0075027D01*
X0066813Y0076625D02*
X0029235Y0076625D01*
X0030834Y0078224D02*
X0067524Y0078224D01*
X0067524Y0079822D02*
X0032432Y0079822D01*
X0034031Y0081421D02*
X0067524Y0081421D01*
X0067524Y0083019D02*
X0035629Y0083019D01*
X0037228Y0084618D02*
X0067524Y0084618D01*
X0067524Y0086216D02*
X0038855Y0086216D01*
X0040489Y0087815D02*
X0067524Y0087815D01*
X0067524Y0089413D02*
X0042124Y0089413D01*
X0043758Y0091012D02*
X0067524Y0091012D01*
X0067524Y0092610D02*
X0045393Y0092610D01*
X0047027Y0094209D02*
X0067524Y0094209D01*
X0067524Y0095807D02*
X0048662Y0095807D01*
X0050296Y0097406D02*
X0067524Y0097406D01*
X0067524Y0099005D02*
X0051931Y0099005D01*
X0053565Y0100603D02*
X0067524Y0100603D01*
X0067524Y0102202D02*
X0055200Y0102202D01*
X0056834Y0103800D02*
X0067524Y0103800D01*
X0067524Y0105399D02*
X0058469Y0105399D01*
X0060103Y0106997D02*
X0067524Y0106997D01*
X0067524Y0108596D02*
X0063439Y0108596D01*
X0064763Y0110194D02*
X0067524Y0110194D01*
X0067524Y0111793D02*
X0065205Y0111793D01*
X0065012Y0113391D02*
X0067524Y0113391D01*
X0067524Y0114990D02*
X0064041Y0114990D01*
X0067524Y0116588D02*
X0009924Y0116588D01*
X0009924Y0114990D02*
X0058007Y0114990D01*
X0057036Y0113391D02*
X0009924Y0113391D01*
X0009924Y0111793D02*
X0056425Y0111793D01*
X0054791Y0110194D02*
X0009924Y0110194D01*
X0009924Y0108596D02*
X0053156Y0108596D01*
X0051522Y0106997D02*
X0009924Y0106997D01*
X0009924Y0105399D02*
X0049887Y0105399D01*
X0048253Y0103800D02*
X0009924Y0103800D01*
X0009924Y0102202D02*
X0046618Y0102202D01*
X0044984Y0100603D02*
X0009924Y0100603D01*
X0009924Y0099005D02*
X0043349Y0099005D01*
X0041715Y0097406D02*
X0009924Y0097406D01*
X0009924Y0095807D02*
X0040080Y0095807D01*
X0038446Y0094209D02*
X0009924Y0094209D01*
X0009924Y0092610D02*
X0036811Y0092610D01*
X0035177Y0091012D02*
X0009924Y0091012D01*
X0009924Y0089413D02*
X0033538Y0089413D01*
X0031940Y0087815D02*
X0009924Y0087815D01*
X0009924Y0086216D02*
X0030341Y0086216D01*
X0028743Y0084618D02*
X0009924Y0084618D01*
X0009924Y0083019D02*
X0027144Y0083019D01*
X0025546Y0081421D02*
X0009924Y0081421D01*
X0009924Y0079822D02*
X0023947Y0079822D01*
X0022349Y0078224D02*
X0009924Y0078224D01*
X0009924Y0076625D02*
X0020750Y0076625D01*
X0012278Y0075027D02*
X0009924Y0075027D01*
X0009924Y0118187D02*
X0067524Y0118187D01*
X0067524Y0119785D02*
X0009924Y0119785D01*
X0009924Y0121384D02*
X0067524Y0121384D01*
X0067524Y0122982D02*
X0009924Y0122982D01*
X0009924Y0124581D02*
X0067524Y0124581D01*
X0067524Y0126179D02*
X0066370Y0126179D01*
X0063823Y0126179D02*
X0009924Y0126179D01*
X0009924Y0127778D02*
X0061294Y0127778D01*
X0060350Y0129376D02*
X0009924Y0129376D01*
X0009924Y0130975D02*
X0060043Y0130975D01*
X0060228Y0132573D02*
X0009924Y0132573D01*
X0009924Y0134172D02*
X0054470Y0134172D01*
X0055361Y0133803D02*
X0057371Y0133803D01*
X0059228Y0134572D01*
X0060650Y0135994D01*
X0061419Y0137851D01*
X0061419Y0139862D01*
X0060650Y0141719D01*
X0059228Y0143141D01*
X0057371Y0143910D01*
X0055361Y0143910D01*
X0053503Y0143141D01*
X0052082Y0141719D01*
X0051312Y0139862D01*
X0051312Y0137851D01*
X0052082Y0135994D01*
X0053503Y0134572D01*
X0055361Y0133803D01*
X0058262Y0134172D02*
X0061000Y0134172D01*
X0060427Y0135770D02*
X0063113Y0135770D01*
X0061220Y0137369D02*
X0065091Y0137369D01*
X0063379Y0138967D02*
X0061419Y0138967D01*
X0061128Y0140566D02*
X0062843Y0140566D01*
X0062942Y0142164D02*
X0060205Y0142164D01*
X0057726Y0143763D02*
X0063780Y0143763D01*
X0070268Y0143763D02*
X0079524Y0143763D01*
X0079524Y0145361D02*
X0054809Y0145361D01*
X0055092Y0145479D02*
X0056514Y0146900D01*
X0057283Y0148758D01*
X0057283Y0150768D01*
X0056514Y0152625D01*
X0055092Y0154047D01*
X0053235Y0154816D01*
X0051224Y0154816D01*
X0049367Y0154047D01*
X0047945Y0152625D01*
X0047176Y0150768D01*
X0047176Y0148758D01*
X0047945Y0146900D01*
X0049367Y0145479D01*
X0051224Y0144709D01*
X0053235Y0144709D01*
X0055092Y0145479D01*
X0055005Y0143763D02*
X0009924Y0143763D01*
X0009924Y0145361D02*
X0049650Y0145361D01*
X0047921Y0146960D02*
X0009924Y0146960D01*
X0009924Y0148558D02*
X0047259Y0148558D01*
X0047176Y0150157D02*
X0009924Y0150157D01*
X0009924Y0151755D02*
X0047585Y0151755D01*
X0048674Y0153354D02*
X0009924Y0153354D01*
X0009924Y0154952D02*
X0078768Y0154952D01*
X0078343Y0153354D02*
X0055785Y0153354D01*
X0056874Y0151755D02*
X0078553Y0151755D01*
X0079524Y0150157D02*
X0057283Y0150157D01*
X0057201Y0148558D02*
X0079524Y0148558D01*
X0079524Y0146960D02*
X0056539Y0146960D01*
X0052527Y0142164D02*
X0009924Y0142164D01*
X0009924Y0140566D02*
X0051604Y0140566D01*
X0051312Y0138967D02*
X0009924Y0138967D01*
X0009924Y0137369D02*
X0051512Y0137369D01*
X0052305Y0135770D02*
X0009924Y0135770D01*
X0009924Y0156551D02*
X0051996Y0156551D01*
X0052630Y0156288D02*
X0054641Y0156288D01*
X0056498Y0157058D01*
X0057920Y0158479D01*
X0058689Y0160337D01*
X0058689Y0162347D01*
X0057920Y0164204D01*
X0056498Y0165626D01*
X0054641Y0166395D01*
X0052630Y0166395D01*
X0050773Y0165626D01*
X0049351Y0164204D01*
X0048582Y0162347D01*
X0048582Y0160337D01*
X0049351Y0158479D01*
X0050773Y0157058D01*
X0052630Y0156288D01*
X0055275Y0156551D02*
X0080068Y0156551D01*
X0084980Y0156551D02*
X0097569Y0156551D01*
X0098203Y0156288D02*
X0100213Y0156288D01*
X0102071Y0157058D01*
X0103492Y0158479D01*
X0104262Y0160337D01*
X0104262Y0162347D01*
X0103492Y0164204D01*
X0102071Y0165626D01*
X0100213Y0166395D01*
X0098203Y0166395D01*
X0096345Y0165626D01*
X0094924Y0164204D01*
X0094154Y0162347D01*
X0094154Y0160337D01*
X0094924Y0158479D01*
X0096345Y0157058D01*
X0098203Y0156288D01*
X0099609Y0154816D02*
X0097751Y0154047D01*
X0096330Y0152625D01*
X0095560Y0150768D01*
X0095560Y0148758D01*
X0096330Y0146900D01*
X0097751Y0145479D01*
X0099609Y0144709D01*
X0101619Y0144709D01*
X0103477Y0145479D01*
X0104898Y0146900D01*
X0105667Y0148758D01*
X0105667Y0150768D01*
X0104898Y0152625D01*
X0103477Y0154047D01*
X0101619Y0154816D01*
X0099609Y0154816D01*
X0100847Y0156551D02*
X0142919Y0156551D01*
X0142919Y0158149D02*
X0103162Y0158149D01*
X0104018Y0159748D02*
X0142919Y0159748D01*
X0142919Y0161346D02*
X0104262Y0161346D01*
X0104014Y0162945D02*
X0142919Y0162945D01*
X0142919Y0164543D02*
X0103153Y0164543D01*
X0100825Y0166142D02*
X0142919Y0166142D01*
X0142919Y0167741D02*
X0096528Y0167741D01*
X0096866Y0168078D02*
X0097636Y0169936D01*
X0097636Y0171946D01*
X0096866Y0173804D01*
X0095445Y0175225D01*
X0093587Y0175995D01*
X0091577Y0175995D01*
X0089719Y0175225D01*
X0088298Y0173804D01*
X0087528Y0171946D01*
X0087528Y0169936D01*
X0088298Y0168078D01*
X0089719Y0166657D01*
X0091577Y0165888D01*
X0093587Y0165888D01*
X0095445Y0166657D01*
X0096866Y0168078D01*
X0097388Y0169339D02*
X0142919Y0169339D01*
X0142919Y0170938D02*
X0097636Y0170938D01*
X0097391Y0172536D02*
X0142919Y0172536D01*
X0142919Y0174135D02*
X0096535Y0174135D01*
X0094219Y0175733D02*
X0142919Y0175733D01*
X0142919Y0177332D02*
X0087307Y0177332D01*
X0087307Y0177367D02*
X0086538Y0179225D01*
X0085116Y0180646D01*
X0083259Y0181415D01*
X0081248Y0181415D01*
X0079391Y0180646D01*
X0077969Y0179225D01*
X0077200Y0177367D01*
X0077200Y0175357D01*
X0077969Y0173499D01*
X0079391Y0172078D01*
X0081248Y0171308D01*
X0083259Y0171308D01*
X0085116Y0172078D01*
X0086538Y0173499D01*
X0087307Y0175357D01*
X0087307Y0177367D01*
X0087307Y0175733D02*
X0090945Y0175733D01*
X0088629Y0174135D02*
X0086801Y0174135D01*
X0087773Y0172536D02*
X0085575Y0172536D01*
X0087528Y0170938D02*
X0065315Y0170938D01*
X0065315Y0169936D02*
X0064546Y0168078D01*
X0063124Y0166657D01*
X0061267Y0165888D01*
X0059256Y0165888D01*
X0057399Y0166657D01*
X0055977Y0168078D01*
X0055208Y0169936D01*
X0055208Y0171946D01*
X0055977Y0173804D01*
X0057399Y0175225D01*
X0059256Y0175995D01*
X0061267Y0175995D01*
X0063124Y0175225D01*
X0064546Y0173804D01*
X0065315Y0171946D01*
X0065315Y0169936D01*
X0065068Y0169339D02*
X0087776Y0169339D01*
X0088636Y0167741D02*
X0064208Y0167741D01*
X0061881Y0166142D02*
X0090962Y0166142D01*
X0094202Y0166142D02*
X0097591Y0166142D01*
X0095263Y0164543D02*
X0057581Y0164543D01*
X0058441Y0162945D02*
X0094402Y0162945D01*
X0094154Y0161346D02*
X0058689Y0161346D01*
X0058445Y0159748D02*
X0094398Y0159748D01*
X0095254Y0158149D02*
X0057590Y0158149D01*
X0058642Y0166142D02*
X0055253Y0166142D01*
X0056315Y0167741D02*
X0009924Y0167741D01*
X0009924Y0169339D02*
X0055455Y0169339D01*
X0055208Y0170938D02*
X0009924Y0170938D01*
X0009924Y0172536D02*
X0055452Y0172536D01*
X0056308Y0174135D02*
X0009924Y0174135D01*
X0009924Y0175733D02*
X0058625Y0175733D01*
X0061898Y0175733D02*
X0065536Y0175733D01*
X0065536Y0175357D02*
X0065536Y0177367D01*
X0066306Y0179225D01*
X0067727Y0180646D01*
X0069585Y0181415D01*
X0071595Y0181415D01*
X0073452Y0180646D01*
X0074874Y0179225D01*
X0075643Y0177367D01*
X0075643Y0175357D01*
X0074874Y0173499D01*
X0073452Y0172078D01*
X0071595Y0171308D01*
X0069585Y0171308D01*
X0067727Y0172078D01*
X0066306Y0173499D01*
X0065536Y0175357D01*
X0066043Y0174135D02*
X0064215Y0174135D01*
X0065071Y0172536D02*
X0067269Y0172536D01*
X0065536Y0177332D02*
X0009924Y0177332D01*
X0009924Y0178930D02*
X0015090Y0178930D01*
X0014207Y0179251D02*
X0014207Y0179251D01*
X0012685Y0180529D02*
X0009924Y0180529D01*
X0009924Y0182127D02*
X0011140Y0182127D01*
X0011479Y0181541D02*
X0011479Y0181541D01*
X0010217Y0183726D02*
X0009924Y0183726D01*
X0009924Y0166142D02*
X0052019Y0166142D01*
X0049690Y0164543D02*
X0009924Y0164543D01*
X0009924Y0162945D02*
X0048830Y0162945D01*
X0048582Y0161346D02*
X0009924Y0161346D01*
X0009924Y0159748D02*
X0048826Y0159748D01*
X0049681Y0158149D02*
X0009924Y0158149D01*
X0023580Y0178930D02*
X0066184Y0178930D01*
X0067610Y0180529D02*
X0025985Y0180529D01*
X0027192Y0181541D02*
X0027192Y0181541D01*
X0027192Y0181541D01*
X0027530Y0182127D02*
X0142919Y0182127D01*
X0142919Y0180529D02*
X0085234Y0180529D01*
X0086660Y0178930D02*
X0142919Y0178930D01*
X0142919Y0183726D02*
X0028453Y0183726D01*
X0028972Y0184626D02*
X0028972Y0184626D01*
X0029096Y0185324D02*
X0142919Y0185324D01*
X0142919Y0186923D02*
X0029377Y0186923D01*
X0029523Y0188521D02*
X0142919Y0188521D01*
X0142919Y0190120D02*
X0029241Y0190120D01*
X0028972Y0191641D02*
X0028972Y0191641D01*
X0028928Y0191718D02*
X0142919Y0191718D01*
X0142919Y0193317D02*
X0028005Y0193317D01*
X0026966Y0194915D02*
X0142919Y0194915D01*
X0142919Y0196514D02*
X0025060Y0196514D01*
X0024463Y0197015D02*
X0024463Y0197015D01*
X0024463Y0179251D02*
X0024463Y0179251D01*
X0067080Y0135770D02*
X0067524Y0135770D01*
X0071795Y0140566D02*
X0079524Y0140566D01*
X0079524Y0142164D02*
X0071106Y0142164D01*
X0073202Y0138967D02*
X0079524Y0138967D01*
X0079524Y0137369D02*
X0073524Y0137369D01*
X0073524Y0135770D02*
X0079524Y0135770D01*
X0079524Y0134172D02*
X0073524Y0134172D01*
X0079326Y0132573D02*
X0079524Y0132573D01*
X0085524Y0135770D02*
X0085764Y0135770D01*
X0085524Y0137369D02*
X0091624Y0137369D01*
X0091424Y0137851D02*
X0092193Y0135994D01*
X0093615Y0134572D01*
X0095472Y0133803D01*
X0097483Y0133803D01*
X0099340Y0134572D01*
X0100762Y0135994D01*
X0101531Y0137851D01*
X0101531Y0139862D01*
X0100762Y0141719D01*
X0099340Y0143141D01*
X0097483Y0143910D01*
X0095472Y0143910D01*
X0093615Y0143141D01*
X0092193Y0141719D01*
X0091424Y0139862D01*
X0091424Y0137851D01*
X0091424Y0138967D02*
X0085524Y0138967D01*
X0085524Y0140566D02*
X0091716Y0140566D01*
X0092639Y0142164D02*
X0085524Y0142164D01*
X0085524Y0143763D02*
X0095117Y0143763D01*
X0096305Y0146960D02*
X0085524Y0146960D01*
X0085524Y0148558D02*
X0095643Y0148558D01*
X0095560Y0150157D02*
X0085524Y0150157D01*
X0086495Y0151755D02*
X0095969Y0151755D01*
X0097058Y0153354D02*
X0086705Y0153354D01*
X0086280Y0154952D02*
X0142919Y0154952D01*
X0142919Y0153354D02*
X0104170Y0153354D01*
X0105258Y0151755D02*
X0142919Y0151755D01*
X0142919Y0150157D02*
X0105667Y0150157D01*
X0105585Y0148558D02*
X0142919Y0148558D01*
X0142919Y0146960D02*
X0104923Y0146960D01*
X0103194Y0145361D02*
X0142919Y0145361D01*
X0142919Y0143763D02*
X0097838Y0143763D01*
X0098034Y0145361D02*
X0085524Y0145361D01*
X0089730Y0135770D02*
X0092417Y0135770D01*
X0091844Y0134172D02*
X0094582Y0134172D01*
X0092616Y0132573D02*
X0142919Y0132573D01*
X0142919Y0130975D02*
X0092801Y0130975D01*
X0092494Y0129376D02*
X0142919Y0129376D01*
X0142919Y0127778D02*
X0091550Y0127778D01*
X0089020Y0126179D02*
X0142919Y0126179D01*
X0142919Y0124581D02*
X0084754Y0124581D01*
X0085524Y0126179D02*
X0086474Y0126179D01*
X0083155Y0122982D02*
X0142919Y0122982D01*
X0142919Y0121384D02*
X0085147Y0121384D01*
X0086349Y0119785D02*
X0142919Y0119785D01*
X0142919Y0118187D02*
X0086705Y0118187D01*
X0086426Y0116588D02*
X0142919Y0116588D01*
X0142919Y0114990D02*
X0085524Y0114990D01*
X0085524Y0113391D02*
X0142919Y0113391D01*
X0142919Y0111793D02*
X0085524Y0111793D01*
X0085524Y0110194D02*
X0142919Y0110194D01*
X0142919Y0108596D02*
X0085524Y0108596D01*
X0085524Y0106997D02*
X0142919Y0106997D01*
X0142919Y0105399D02*
X0085524Y0105399D01*
X0085524Y0103800D02*
X0142919Y0103800D01*
X0142919Y0102202D02*
X0085524Y0102202D01*
X0085524Y0100603D02*
X0142919Y0100603D01*
X0142919Y0099005D02*
X0085524Y0099005D01*
X0085524Y0097406D02*
X0142919Y0097406D01*
X0142919Y0095807D02*
X0085524Y0095807D01*
X0085524Y0094209D02*
X0142919Y0094209D01*
X0142919Y0092610D02*
X0085524Y0092610D01*
X0085524Y0091012D02*
X0142919Y0091012D01*
X0142919Y0089413D02*
X0085524Y0089413D01*
X0085524Y0087815D02*
X0142919Y0087815D01*
X0142919Y0086216D02*
X0085524Y0086216D01*
X0086418Y0084618D02*
X0142919Y0084618D01*
X0142919Y0083019D02*
X0086705Y0083019D01*
X0086357Y0081421D02*
X0142919Y0081421D01*
X0142919Y0079822D02*
X0085166Y0079822D01*
X0079883Y0079822D02*
X0078024Y0079822D01*
X0078024Y0078224D02*
X0142919Y0078224D01*
X0128380Y0023787D02*
X0128380Y0023787D01*
X0089893Y0036663D02*
X0088934Y0036663D01*
X0088934Y0038261D02*
X0089893Y0038261D01*
X0078540Y0073428D02*
X0078193Y0073428D01*
X0078024Y0075027D02*
X0078800Y0075027D01*
X0078024Y0076625D02*
X0079867Y0076625D01*
X0078691Y0081421D02*
X0078024Y0081421D01*
X0078024Y0083019D02*
X0078343Y0083019D01*
X0078630Y0084618D02*
X0078024Y0084618D01*
X0078024Y0086216D02*
X0079524Y0086216D01*
X0079524Y0087815D02*
X0078024Y0087815D01*
X0078024Y0089413D02*
X0079524Y0089413D01*
X0079524Y0091012D02*
X0078024Y0091012D01*
X0078024Y0092610D02*
X0079524Y0092610D01*
X0079524Y0094209D02*
X0078024Y0094209D01*
X0078024Y0095807D02*
X0079524Y0095807D01*
X0079524Y0097406D02*
X0078024Y0097406D01*
X0078024Y0099005D02*
X0079524Y0099005D01*
X0079524Y0100603D02*
X0078024Y0100603D01*
X0078024Y0102202D02*
X0079524Y0102202D01*
X0079524Y0103800D02*
X0078024Y0103800D01*
X0078024Y0105399D02*
X0079524Y0105399D01*
X0079524Y0106997D02*
X0078024Y0106997D01*
X0078024Y0108596D02*
X0079524Y0108596D01*
X0079524Y0110194D02*
X0078024Y0110194D01*
X0078024Y0111793D02*
X0079524Y0111793D01*
X0079524Y0113391D02*
X0078024Y0113391D01*
X0078024Y0114990D02*
X0079524Y0114990D01*
X0078622Y0116588D02*
X0078024Y0116588D01*
X0098373Y0134172D02*
X0142919Y0134172D01*
X0142919Y0135770D02*
X0100538Y0135770D01*
X0101331Y0137369D02*
X0142919Y0137369D01*
X0142919Y0138967D02*
X0101531Y0138967D01*
X0101240Y0140566D02*
X0142919Y0140566D01*
X0142919Y0142164D02*
X0100317Y0142164D01*
X0078933Y0172536D02*
X0073911Y0172536D01*
X0075137Y0174135D02*
X0077706Y0174135D01*
X0077200Y0175733D02*
X0075643Y0175733D01*
X0075643Y0177332D02*
X0077200Y0177332D01*
X0077848Y0178930D02*
X0074996Y0178930D01*
X0073570Y0180529D02*
X0079274Y0180529D01*
D16*
X0082524Y0153094D03*
X0067524Y0153094D03*
X0067024Y0141094D03*
X0082524Y0118094D03*
X0061024Y0112094D03*
X0055162Y0113724D03*
X0040201Y0115299D03*
X0038627Y0129472D03*
X0035524Y0146594D03*
X0036264Y0163330D03*
X0044138Y0175141D03*
X0107918Y0124747D03*
X0115792Y0139708D03*
X0117524Y0158094D03*
X0125355Y0173491D03*
X0125516Y0183015D03*
X0107544Y0105263D03*
X0095319Y0072779D03*
X0104331Y0070629D03*
X0082721Y0073566D03*
X0076524Y0069594D03*
X0082524Y0083094D03*
X0064524Y0084094D03*
X0078024Y0015594D03*
X0085221Y0015799D03*
D17*
X0078024Y0015594D02*
X0077818Y0022962D01*
X0077950Y0023094D01*
X0112524Y0023094D01*
X0112524Y0033094D01*
X0107524Y0038094D01*
X0107524Y0045220D01*
X0114217Y0045220D02*
X0114217Y0053094D01*
X0107981Y0053094D01*
X0104831Y0056243D01*
X0104331Y0070629D01*
X0095319Y0072779D02*
X0095319Y0043645D01*
X0096107Y0042858D01*
X0083508Y0042858D01*
X0083508Y0035771D01*
X0082721Y0034984D01*
X0077524Y0033488D02*
X0076028Y0034984D01*
X0076028Y0050732D01*
X0076028Y0069098D01*
X0076524Y0069594D01*
X0075024Y0075594D02*
X0075024Y0119094D01*
X0082524Y0126594D01*
X0082524Y0153094D01*
X0067024Y0141094D02*
X0070524Y0137594D01*
X0070524Y0076094D01*
X0043430Y0048999D01*
X0017367Y0048999D01*
X0017367Y0038999D02*
X0018272Y0038094D01*
X0037524Y0038094D01*
X0075024Y0075594D01*
X0082721Y0073566D02*
X0082721Y0050732D01*
X0076028Y0034984D02*
X0034414Y0034984D01*
X0027524Y0028094D01*
X0018272Y0028094D01*
X0017367Y0028999D01*
X0017367Y0068999D02*
X0035461Y0087094D01*
X0061024Y0112094D01*
X0082524Y0118094D02*
X0082524Y0083094D01*
X0077524Y0033488D02*
X0077818Y0022962D01*
M02*
