%
M48
M72
T01C0.02362
T02C0.03307
T03C0.04000
T04C0.13000
%
T01
X64524Y84094
X76524Y69594
X82721Y73566
X82524Y83094
X95319Y72779
X104331Y70629
X107544Y105263
X107918Y124747
X115792Y139708
X117524Y158094
X125355Y173491
X125516Y183015
X82524Y153094
X67524Y153094
X67024Y141094
X82524Y118094
X61024Y112094
X55162Y113724
X40201Y115299
X38627Y129472
X35524Y146594
X36264Y163330
X44138Y175141
X78024Y15594
X85221Y15799
T02
X76422Y128330
X65097Y131122
X56366Y138856
X52230Y149763
X53636Y161342
X60262Y170941
X70590Y176362
X82254Y176362
X92582Y170941
X99208Y161342
X100614Y149763
X96478Y138856
X87747Y131122
T03
X17367Y8999
X17367Y18999
X17367Y28999
X17367Y38999
X17367Y48999
X17367Y58999
X17367Y68999
X57824Y15594
X69224Y15594
T04
X19335Y188133
X133508Y14905
M30
